<?xml version="1.0" standalone="no"?>
<!DOCTYPE svg PUBLIC "-//W3C//DTD SVG 1.1//EN" "http://www.w3.org/Graphics/SVG/1.1/DTD/svg11.dtd" >
<svg xmlns="http://www.w3.org/2000/svg" xmlns:xlink="http://www.w3.org/1999/xlink" version="1.1">
<metadata>
Created by FontForge 20161003 at Mon Jul 31 10:13:22 2017
 By www-data
Digitized data copyright (c) 2012-2015, The Mozilla Foundation and Telefonica S.A.
</metadata>
<defs>
<font id="FiraSansCondensedMedium" horiz-adv-x="482" >
  <font-face 
    font-family="FiraSansCondensedMedium"
    font-weight="500"
    font-stretch="condensed"
    units-per-em="1000"
    panose-1="2 11 6 3 5 0 0 2 0 4"
    ascent="800"
    descent="-200"
    x-height="529"
    cap-height="691"
    bbox="-356 -355 1360 1265"
    underline-thickness="50"
    underline-position="-150"
    unicode-range="U+000D-FEFF"
  />
<missing-glyph horiz-adv-x="666" 
d="M543 1050v-1400h-420v1400h420zM489 998h-311v-1296h311v1296zM324 451q111 0 111 -115q0 -104 -95 -118v-45q0 -11 -7.5 -17.5t-17.5 -6.5t-17.5 6.5t-7.5 17.5v84q53 3 72 19.5t19 57.5q0 33 -13 51t-48 18q-29 0 -52 -11q-8 -3 -13 -3q-24 0 -24 23q0 19 29.5 29
t63.5 10zM315 120q15 0 25 -10t10 -25q0 -16 -10 -26.5t-25 -10.5t-25 10.5t-10 26.5q0 15 10 25t25 10z" />
    <glyph glyph-name="fi" unicode="fi" horiz-adv-x="512" 
d="M257 754q80 0 147 -38l-35 -79q-50 23 -99 23q-39 0 -55 -16t-16 -52v-63h253v-529h-123v440h-130v-440h-123v440h-71v89h71v66q0 70 45 114.5t136 44.5z" />
    <glyph glyph-name="fl" unicode="fl" horiz-adv-x="542" 
d="M511 89l25 -85q-38 -19 -79 -19q-55 0 -86.5 33.5t-31.5 91.5v541q-42 11 -73 11q-37 0 -51 -15.5t-14 -50.5v-67h91l-14 -89h-77v-440h-123v440h-71v89h71v68q0 69 43.5 113t126.5 44q51 0 102 -18l112 12v-633q0 -31 25 -31q9 0 24 5z" />
    <glyph glyph-name=".notdef" horiz-adv-x="666" 
d="M543 1050v-1400h-420v1400h420zM489 998h-311v-1296h311v1296zM324 451q111 0 111 -115q0 -104 -95 -118v-45q0 -11 -7.5 -17.5t-17.5 -6.5t-17.5 6.5t-7.5 17.5v84q53 3 72 19.5t19 57.5q0 33 -13 51t-48 18q-29 0 -52 -11q-8 -3 -13 -3q-24 0 -24 23q0 19 29.5 29
t63.5 10zM315 120q15 0 25 -10t10 -25q0 -16 -10 -26.5t-25 -10.5t-25 10.5t-10 26.5q0 15 10 25t25 10z" />
    <glyph glyph-name=".null" horiz-adv-x="0" 
 />
    <glyph glyph-name="nonmarkingreturn" horiz-adv-x="333" 
 />
    <glyph glyph-name="CR" unicode="&#xd;" horiz-adv-x="209" 
 />
    <glyph glyph-name="space" unicode=" " horiz-adv-x="209" 
 />
    <glyph glyph-name="exclam" unicode="!" horiz-adv-x="225" 
d="M177 691l-16 -449h-98l-17 449h131zM112 142q34 0 55.5 -23t21.5 -55t-21.5 -55.5t-55.5 -23.5t-55 23t-21 56q0 32 21.5 55t54.5 23z" />
    <glyph glyph-name="quotedbl" unicode="&#x22;" horiz-adv-x="400" 
d="M63 421l-15 270h112l-15 -270h-82zM255 421l-15 270h111l-14 -270h-82z" />
    <glyph glyph-name="numbersign" unicode="#" horiz-adv-x="471" 
d="M458 444h-60l-27 -205h56v-84h-67l-20 -155h-98l20 155h-103l-20 -155h-98l20 155h-48v84h59l27 205h-55v85h66l19 144h99l-19 -144h102l19 144h99l-19 -144h48v-85zM273 239l27 205h-103l-27 -205h103z" />
    <glyph glyph-name="dollar" unicode="$" horiz-adv-x="469" 
d="M444 193q0 -73 -42.5 -126.5t-116.5 -70.5v-154h-91v148q-107 8 -185 89l62 68q71 -64 144 -64q49 0 76 27.5t27 75.5q0 42 -24 67.5t-87 48.5q-93 36 -133.5 81.5t-40.5 116.5q0 70 45 119t116 61v147h91v-147q82 -14 143 -78l-59 -67q-59 55 -124 55q-40 0 -63.5 -22
t-23.5 -60q0 -37 24.5 -60t92.5 -49q86 -33 127.5 -78t41.5 -128z" />
    <glyph glyph-name="percent" unicode="%" horiz-adv-x="743" 
d="M534 715l77 -45l-400 -705l-77 45zM184 685q66 0 107.5 -46t41.5 -129q0 -82 -41.5 -128t-107.5 -46q-65 0 -107.5 46t-42.5 128q0 83 42 129t108 46zM184 609q-59 0 -59 -99t59 -99q33 0 45.5 25t12.5 74q0 48 -13 73.5t-45 25.5zM560 334q65 0 107 -46t42 -129
q0 -82 -41.5 -128t-107.5 -46t-108.5 46t-42.5 128q0 83 42.5 129t108.5 46zM560 258q-33 0 -46.5 -25t-13.5 -74q0 -98 60 -98q33 0 45.5 24.5t12.5 73.5t-12.5 74t-45.5 25z" />
    <glyph glyph-name="ampersand" unicode="&#x26;" horiz-adv-x="682" 
d="M271 706q82 0 130 -44t48 -114q0 -58 -30.5 -101.5t-87.5 -84.5l130 -148q29 80 44 154l100 -26q-29 -110 -78 -193l103 -106l-98 -58l-75 87q-81 -87 -192 -87q-92 0 -149 53t-57 138q0 60 29 105.5t91 90.5q-47 49 -66 86.5t-19 86.5q0 70 46 115.5t131 45.5zM272 622
q-61 0 -61 -77q0 -34 12.5 -59.5t42.5 -61.5q35 31 51 57t16 63q0 78 -61 78zM247 305q-60 -50 -60 -124q0 -51 26 -78t71 -27q64 0 111 58z" />
    <glyph glyph-name="quotesingle" unicode="'" horiz-adv-x="209" 
d="M63 421l-15 270h112l-15 -270h-82z" />
    <glyph glyph-name="parenleft" unicode="(" horiz-adv-x="286" 
d="M186 851l79 -52q-64 -107 -92 -204t-28 -245t28 -245t92 -204l-79 -52q-81 122 -123 231.5t-42 269.5t42 269.5t123 231.5z" />
    <glyph glyph-name="parenright" unicode=")" horiz-adv-x="286" 
d="M99 851q41 -65 63.5 -105t50 -104t39.5 -135.5t12 -156.5t-12 -156.5t-39.5 -135.5t-50 -104t-63.5 -105l-78 52q64 107 92 205.5t28 243.5q0 146 -28 244t-92 205z" />
    <glyph glyph-name="asterisk" unicode="*" horiz-adv-x="400" 
d="M383 549l-124 -28l92 -110l-90 -57l-61 126l-60 -127l-89 57l90 111l-124 28l33 94l114 -57l-17 155h106l-17 -155l113 58z" />
    <glyph glyph-name="plus" unicode="+" horiz-adv-x="451" 
d="M276 531v-151h130v-98h-130v-149h-102v149h-130v98h130v151h102z" />
    <glyph glyph-name="comma" unicode="," horiz-adv-x="217" 
d="M109 142q32 0 53 -22t21 -55q0 -26 -25 -89l-56 -147h-71l38 170q-35 24 -35 66q0 33 21 55t54 22z" />
    <glyph glyph-name="hyphen" unicode="-" horiz-adv-x="358" 
d="M45 264v98h268v-98h-268z" />
    <glyph glyph-name="period" unicode="." horiz-adv-x="221" 
d="M110 142q34 0 55.5 -23t21.5 -55t-21.5 -55.5t-55.5 -23.5t-55 23t-21 56q0 32 21.5 55t54.5 23z" />
    <glyph glyph-name="slash" unicode="/" horiz-adv-x="447" 
d="M275 811l103 -23l-205 -896l-104 23z" />
    <glyph glyph-name="zero" unicode="0" horiz-adv-x="517" 
d="M259 685q105 0 159 -88t54 -261q0 -351 -213 -351q-214 0 -214 351q0 349 214 349zM259 591q-47 0 -67 -55.5t-20 -199.5q0 -147 20 -202t67 -55t67 55t20 202q0 145 -20 200t-67 55z" />
    <glyph glyph-name="one" unicode="1" horiz-adv-x="392" 
d="M314 672v-672h-121v549l-126 -89l-55 79l192 133h110z" />
    <glyph glyph-name="two" unicode="2" horiz-adv-x="435" 
d="M197 685q91 0 142.5 -52t51.5 -132q0 -83 -48 -163.5t-189 -239.5h250l-13 -98h-370v91q152 179 198 254.5t46 148.5q0 45 -21.5 69.5t-58.5 24.5q-31 0 -55 -16t-53 -52l-74 56q76 109 194 109z" />
    <glyph glyph-name="three" unicode="3" horiz-adv-x="444" 
d="M202 685q86 0 137.5 -50t51.5 -122q0 -122 -127 -157q68 -8 107 -49t39 -115q0 -87 -58.5 -147t-157.5 -60q-115 0 -194 96l69 62q59 -62 118 -62q44 0 71 30.5t27 85.5q0 59 -27.5 85t-81.5 26h-43l14 87h28q45 0 72 27.5t27 77.5q0 44 -23 68t-63 24q-61 0 -112 -56
l-63 64q83 85 189 85z" />
    <glyph glyph-name="four" unicode="4" horiz-adv-x="480" 
d="M460 250v-94h-68v-156h-116v156h-250v85l167 445l104 -38l-147 -398h127l13 171h102v-171h68z" />
    <glyph glyph-name="five" unicode="5" horiz-adv-x="457" 
d="M400 673l-15 -92h-215v-172q43 25 90 25q73 0 119 -56.5t46 -158.5q0 -105 -60.5 -169.5t-160.5 -64.5q-111 0 -189 94l69 63q53 -61 115 -61q48 0 74.5 35t26.5 103q0 127 -87 127q-37 0 -74 -23h-85v350h346z" />
    <glyph glyph-name="six" unicode="6" horiz-adv-x="493" 
d="M301 447q71 0 117 -57.5t46 -160.5q0 -112 -55.5 -178t-148.5 -66q-215 0 -215 326q0 172 66 273t180 101q73 0 129 -43l-45 -74q-39 25 -80 25q-54 0 -86.5 -56.5t-37.5 -163.5q49 74 130 74zM342 227q0 132 -73 132q-56 0 -98 -75q2 -113 22 -160t67 -47q80 0 82 150z
" />
    <glyph glyph-name="seven" unicode="7" horiz-adv-x="398" 
d="M381 673v-87l-215 -599l-110 36l201 554h-244v96h368z" />
    <glyph glyph-name="eight" unicode="8" horiz-adv-x="494" 
d="M340 361q126 -62 126 -180q0 -88 -59.5 -142t-162.5 -54q-100 0 -158 53.5t-58 139.5q0 116 117 171q-93 57 -93 159q0 82 55 129.5t139 47.5q86 0 141.5 -45t55.5 -127q0 -96 -103 -152zM247 599q-77 0 -77 -93q0 -41 18.5 -64.5t62.5 -43.5l16 -7q33 25 45.5 51.5
t12.5 64.5q0 92 -78 92zM248 76q96 0 96 105q0 47 -22 73.5t-80 51.5l-24 11q-68 -44 -68 -135q0 -106 98 -106z" />
    <glyph glyph-name="nine" unicode="9" horiz-adv-x="483" 
d="M236 685q103 0 157 -69t54 -193q0 -103 -20.5 -177t-65 -126.5t-108 -86t-156.5 -58.5l-26 88q115 35 174 90t73 153q-50 -67 -123 -67q-69 0 -118 60t-49 158q0 107 58.5 167.5t149.5 60.5zM230 328q53 0 92 69q1 111 -18.5 154.5t-66.5 43.5q-86 0 -86 -136
q0 -131 79 -131z" />
    <glyph glyph-name="colon" unicode=":" horiz-adv-x="221" 
d="M110 498q34 0 55.5 -23t21.5 -55t-21.5 -55.5t-55.5 -23.5t-55 23t-21 56q0 32 21.5 55t54.5 23zM110 142q34 0 55.5 -23t21.5 -55t-21.5 -55.5t-55.5 -23.5t-55 23t-21 56q0 32 21.5 55t54.5 23z" />
    <glyph glyph-name="semicolon" unicode=";" horiz-adv-x="221" 
d="M110 498q34 0 55.5 -23t21.5 -55t-21.5 -55.5t-55.5 -23.5t-55 23t-21 56q0 32 21.5 55t54.5 23zM109 142q32 0 53 -22t21 -55q0 -26 -25 -89l-56 -147h-71l38 170q-35 24 -35 66q0 33 21 55t54 22z" />
    <glyph glyph-name="less" unicode="&#x3c;" horiz-adv-x="443" 
d="M369 558l42 -88l-281 -137l281 -136l-42 -90l-338 171v110z" />
    <glyph glyph-name="equal" unicode="=" horiz-adv-x="442" 
d="M44 384v95h354v-95h-354zM44 183v95h354v-95h-354z" />
    <glyph glyph-name="greater" unicode="&#x3e;" horiz-adv-x="443" 
d="M74 558l337 -170v-110l-337 -171l-43 90l282 136l-282 137z" />
    <glyph glyph-name="question" unicode="?" horiz-adv-x="418" 
d="M215 706q87 0 135 -47.5t48 -113.5q0 -42 -16 -74t-39 -51.5t-45.5 -37.5t-38.5 -44t-16 -61v-35h-113v41q0 47 14.5 80.5t35.5 52.5t42.5 35t36 37.5t14.5 50.5q0 33 -18.5 50.5t-51.5 17.5q-58 0 -108 -62l-75 58q75 103 195 103zM188 142q34 0 55.5 -23t21.5 -55
t-21.5 -55.5t-55.5 -23.5q-33 0 -54.5 23.5t-21.5 55.5t21.5 55t54.5 23z" />
    <glyph glyph-name="at" unicode="@" horiz-adv-x="885" 
d="M456 497q79 0 147 -43v-252q0 -64 10.5 -88t34.5 -24q77 0 77 219q0 145 -67.5 224.5t-200.5 79.5q-139 0 -217 -101.5t-78 -270.5q0 -175 76.5 -269.5t219.5 -94.5q84 0 167 33l30 -86q-96 -41 -199 -41q-187 0 -296.5 122.5t-109.5 335.5q0 203 114 333.5t293 130.5
q118 0 205.5 -54t130 -142.5t42.5 -197.5q0 -133 -50 -218.5t-133 -85.5q-47 0 -75.5 28.5t-36.5 68.5q-40 -95 -125 -95q-75 0 -115 59.5t-40 163.5q0 128 52 196.5t144 68.5zM431 90q40 0 67 52v266q-20 9 -45 9q-42 0 -61.5 -42t-19.5 -143q0 -78 14 -110t45 -32z" />
    <glyph glyph-name="A" unicode="A" horiz-adv-x="516" 
d="M388 0l-36 162h-191l-36 -162h-127l183 691h155l182 -691h-130zM182 258h149l-75 336z" />
    <glyph glyph-name="B" unicode="B" horiz-adv-x="531" 
d="M359 366q67 -15 106.5 -53t39.5 -114q0 -103 -68.5 -151t-189.5 -48h-182v691h158q123 0 190 -44.5t67 -131.5q0 -58 -33.5 -96.5t-87.5 -52.5zM236 597h-43v-191h52q105 0 105 98q0 49 -27.5 71t-86.5 22zM248 96q61 0 93.5 24.5t32.5 82.5q0 113 -120 113h-61v-220h55z
" />
    <glyph glyph-name="C" unicode="C" horiz-adv-x="496" 
d="M304 706q97 0 177 -72l-62 -74q-54 48 -109 48q-139 0 -139 -261q0 -260 140 -260q54 0 116 53l60 -72q-73 -83 -182 -83q-123 0 -195 92t-72 270q0 175 73.5 267t192.5 92z" />
    <glyph glyph-name="D" unicode="D" horiz-adv-x="566" 
d="M222 691q52 0 93 -7.5t82.5 -29.5t69 -58.5t44.5 -99t17 -147.5q0 -349 -292 -349h-171v691h157zM242 596h-49v-501h51q47 0 78 19t52.5 77t21.5 158q0 77 -11.5 128t-34.5 76t-48 34t-60 9z" />
    <glyph glyph-name="E" unicode="E" horiz-adv-x="455" 
d="M421 691l-14 -95h-214v-198h187v-94h-187v-208h229v-96h-357v691h356z" />
    <glyph glyph-name="F" unicode="F" horiz-adv-x="423" 
d="M65 0v691h346l-13 -95h-205v-211h178v-95h-178v-290h-128z" />
    <glyph glyph-name="G" unicode="G" horiz-adv-x="560" 
d="M317 706q110 0 194 -81l-65 -67q-60 51 -124 51q-69 0 -110 -62.5t-41 -200.5q0 -142 32.5 -202.5t100.5 -60.5q48 0 89 27v185h-85l-13 95h219v-338q-95 -66 -209 -66q-132 0 -199.5 91t-67.5 269q0 170 79.5 265t199.5 95z" />
    <glyph glyph-name="H" unicode="H" horiz-adv-x="580" 
d="M388 0v310h-195v-310h-128v691h128v-279h195v279h127v-691h-127z" />
    <glyph glyph-name="I" unicode="I" horiz-adv-x="258" 
d="M193 691v-691h-128v691h128z" />
    <glyph glyph-name="J" unicode="J" horiz-adv-x="272" 
d="M210 691v-591q0 -109 -48 -164.5t-135 -87.5l-34 90q56 27 72.5 61t16.5 106v586h128z" />
    <glyph glyph-name="K" unicode="K" horiz-adv-x="540" 
d="M193 691v-691h-128v691h128zM530 691l-200 -313l216 -378h-143l-206 369l202 322h131z" />
    <glyph glyph-name="L" unicode="L" horiz-adv-x="437" 
d="M193 691v-586h234l-13 -105h-349v691h128z" />
    <glyph glyph-name="M" unicode="M" horiz-adv-x="690" 
d="M603 691l46 -691h-122l-13 292q-8 173 -7 280l-102 -496h-120l-108 497q4 -116 -3 -285l-13 -288h-120l47 691h161l98 -487l92 487h164z" />
    <glyph glyph-name="N" unicode="N" horiz-adv-x="579" 
d="M514 691v-691h-162l-191 565q17 -151 17 -276v-289h-113v691h161l192 -566q-17 113 -17 235v331h113z" />
    <glyph glyph-name="O" unicode="O" horiz-adv-x="604" 
d="M302 706q126 0 195 -90.5t69 -269.5q0 -177 -69.5 -269t-194.5 -92t-194.5 90.5t-69.5 269.5q0 176 70 268.5t194 92.5zM302 608q-66 0 -98.5 -61t-32.5 -202q0 -142 33 -202t98 -60q66 0 98.5 60t32.5 203q0 140 -32.5 201t-98.5 61z" />
    <glyph glyph-name="P" unicode="P" horiz-adv-x="512" 
d="M233 691q127 0 194 -55.5t67 -163.5q0 -115 -66.5 -172t-185.5 -57h-49v-243h-128v691h168zM235 338q66 0 96.5 30t30.5 103q0 66 -30.5 96t-95.5 30h-43v-259h42z" />
    <glyph glyph-name="Q" unicode="Q" horiz-adv-x="604" 
d="M423 42q103 -1 179 -68l-80 -98q-46 57 -97.5 84.5t-129.5 27.5q-119 0 -188 91.5t-69 265.5q0 175 70 268t194 93q125 0 194.5 -91.5t69.5 -268.5q0 -123 -37.5 -193t-105.5 -111zM171 345q0 -141 33 -201.5t98 -60.5q66 0 98.5 60.5t32.5 202.5q0 141 -32.5 201.5
t-98.5 60.5t-98.5 -61t-32.5 -202z" />
    <glyph glyph-name="R" unicode="R" horiz-adv-x="533" 
d="M389 0l-130 279h-66v-279h-128v691h173q254 0 254 -203q0 -68 -28.5 -112t-90.5 -71l155 -305h-139zM193 371h51q60 0 88 28t28 89q0 57 -29 83.5t-94 26.5h-44v-227z" />
    <glyph glyph-name="S" unicode="S" horiz-adv-x="486" 
d="M244 706q118 0 200 -85l-61 -69q-62 56 -129 56q-41 0 -65 -22.5t-24 -61.5q0 -38 24.5 -62t95.5 -50q89 -35 132 -81.5t43 -133.5q0 -92 -62.5 -152t-167.5 -60q-130 0 -221 94l65 70q74 -66 149 -66q49 0 77 28.5t28 77.5q0 44 -24.5 70.5t-89.5 50.5
q-95 36 -137.5 83.5t-42.5 121.5q0 84 59.5 137.5t150.5 53.5z" />
    <glyph glyph-name="T" unicode="T" horiz-adv-x="460" 
d="M457 691l-13 -100h-151v-591h-127v591h-157v100h448z" />
    <glyph glyph-name="U" unicode="U" horiz-adv-x="564" 
d="M509 691v-486q0 -98 -58.5 -158.5t-168.5 -60.5q-111 0 -169 59.5t-58 159.5v486h128v-479q0 -65 24 -96t75 -31q99 0 99 127v479h128z" />
    <glyph glyph-name="V" unicode="V" horiz-adv-x="499" 
d="M501 691l-170 -691h-157l-176 691h130l126 -578l122 578h125z" />
    <glyph glyph-name="W" unicode="W" horiz-adv-x="732" 
d="M717 691l-104 -691h-166l-82 556l-85 -556h-163l-102 691h123l71 -589l90 589h135l88 -589l77 589h118z" />
    <glyph glyph-name="X" unicode="X" horiz-adv-x="491" 
d="M319 373l174 -373h-136l-115 287l-112 -287h-132l169 368l-156 323h136l97 -243l102 243h131z" />
    <glyph glyph-name="Y" unicode="Y" horiz-adv-x="502" 
d="M506 691l-191 -428v-263h-128v262l-191 429h135l122 -325l122 325h131z" />
    <glyph glyph-name="Z" unicode="Z" horiz-adv-x="460" 
d="M434 691v-99l-278 -488h281l-13 -104h-407v98l279 491h-251v102h389z" />
    <glyph glyph-name="bracketleft" unicode="[" horiz-adv-x="280" 
d="M253 819v-95h-100v-749h100v-94h-216v938h216z" />
    <glyph glyph-name="backslash" unicode="\" horiz-adv-x="447" 
d="M173 810l205 -895l-104 -23l-205 895z" />
    <glyph glyph-name="bracketright" unicode="]" horiz-adv-x="280" 
d="M243 819v-938h-216v94h101v749h-101v95h216z" />
    <glyph glyph-name="asciicircum" unicode="^" horiz-adv-x="480" 
d="M295 842l163 -315h-122l-98 217l-94 -217h-122l162 315h111z" />
    <glyph glyph-name="underscore" unicode="_" horiz-adv-x="451" 
d="M12 -155v99h427v-99h-427z" />
    <glyph glyph-name="grave" unicode="`" horiz-adv-x="293" 
d="M84 813l183 -122l-35 -60l-198 90z" />
    <glyph glyph-name="a" unicode="a" horiz-adv-x="475" 
d="M411 130q0 -27 7.5 -40t24.5 -21l-25 -82q-83 9 -105 75q-48 -77 -136 -77q-68 0 -108.5 45t-40.5 118q0 86 55 131t160 45h47v35q0 51 -18.5 72t-61.5 21q-49 0 -122 -27l-28 81q87 38 171 38q180 0 180 -178v-236zM211 74q51 0 79 66v111h-35q-104 0 -104 -94
q0 -83 60 -83z" />
    <glyph glyph-name="b" unicode="b" horiz-adv-x="517" 
d="M311 544q81 0 124.5 -71t43.5 -208q0 -129 -49 -204.5t-132 -75.5q-73 0 -119 67l-8 -52h-109v740l123 13v-281q47 72 126 72zM265 78q86 0 86 187q0 105 -20.5 145t-58.5 40q-48 0 -87 -69v-246q33 -57 80 -57z" />
    <glyph glyph-name="c" unicode="c" horiz-adv-x="415" 
d="M257 544q86 0 150 -61l-53 -71q-45 36 -89 36q-98 0 -98 -186q0 -97 25 -137.5t72 -40.5q41 0 89 34l54 -72q-64 -61 -149 -61q-103 0 -162 72.5t-59 202.5q0 132 59 208t161 76z" />
    <glyph glyph-name="d" unicode="d" horiz-adv-x="519" 
d="M334 754l123 -13v-741h-109l-6 63q-49 -78 -128 -78q-86 0 -131 73.5t-45 205.5q0 126 51 203t133 77q68 0 112 -56v266zM248 78q49 0 86 64v254q-36 55 -80 55q-88 0 -88 -186q0 -187 82 -187z" />
    <glyph glyph-name="e" unicode="e" 
d="M450 277q0 -23 -2 -51h-286q5 -81 31.5 -114t73.5 -33q58 0 115 44l51 -68q-75 -70 -174 -70q-107 0 -164.5 72.5t-57.5 202.5t55 207t155 77q97 0 150 -68.5t53 -198.5zM331 306v7q0 74 -20 109t-63 35q-40 0 -61 -34t-25 -117h169z" />
    <glyph glyph-name="f" unicode="f" horiz-adv-x="307" 
d="M259 660q-58 0 -58 -63v-68h109l-14 -89h-95v-440h-123v440h-71v89h71v65q0 73 43 116.5t123 43.5q62 0 122 -30l-34 -81q-38 17 -73 17z" />
    <glyph glyph-name="g" unicode="g" horiz-adv-x="465" 
d="M435 598l32 -96q-42 -18 -131 -18q86 -42 86 -136q0 -80 -51 -129t-138 -49q-27 0 -54 8q-19 -16 -19 -41q0 -39 55 -39h61q82 0 130 -41.5t48 -106.5q0 -77 -60 -122t-172 -45q-119 0 -166 41.5t-47 123.5h109q0 -43 22 -61t83 -18q108 0 108 73q0 66 -81 66h-48
q-75 0 -110 27.5t-35 73.5q0 55 55 95q-82 49 -82 150q0 87 54.5 138t144.5 51q48 0 88.5 8t62.5 18t55 29zM228 460q-77 0 -77 -104q0 -51 20 -78.5t56 -27.5q76 0 76 107q0 103 -75 103z" />
    <glyph glyph-name="h" unicode="h" horiz-adv-x="504" 
d="M316 544q60 0 94.5 -42.5t34.5 -118.5v-383h-123v368q0 81 -48 81q-45 0 -89 -79v-370h-123v740l123 13v-288q54 79 131 79z" />
    <glyph glyph-name="i" unicode="i" horiz-adv-x="248" 
d="M123 794q33 0 54 -21.5t21 -53.5q0 -33 -21 -54t-54 -21t-54 21.5t-21 53.5t21 53.5t54 21.5zM185 529v-529h-123v529h123z" />
    <glyph glyph-name="j" unicode="j" horiz-adv-x="247" 
d="M123 794q33 0 54 -21.5t21 -53.5q0 -33 -21 -54t-54 -21t-54 21.5t-21 53.5t21 53.5t54 21.5zM185 529v-484q0 -111 -43 -166t-132 -95l-40 89q50 27 71 59.5t21 105.5v491h123z" />
    <glyph glyph-name="k" unicode="k" horiz-adv-x="471" 
d="M185 754v-754h-123v741zM463 529l-149 -233l162 -296h-134l-152 289l151 240h122z" />
    <glyph glyph-name="l" unicode="l" horiz-adv-x="260" 
d="M177 -15q-55 0 -87.5 33.5t-32.5 91.5v631l123 13v-639q0 -31 26 -31q8 0 23 5l25 -85q-36 -19 -77 -19z" />
    <glyph glyph-name="m" unicode="m" horiz-adv-x="734" 
d="M554 544q55 0 88.5 -43.5t33.5 -117.5v-383h-121v369q0 81 -44 81q-43 0 -82 -75v-375h-120v369q0 81 -44 81q-45 0 -82 -75v-375h-121v529h107l8 -69q54 84 131 84q82 0 111 -89q56 89 135 89z" />
    <glyph glyph-name="n" unicode="n" horiz-adv-x="504" 
d="M316 544q61 0 95 -42.5t34 -118.5v-383h-123v368q0 45 -11.5 63t-35.5 18q-46 0 -90 -79v-370h-123v529h107l10 -70q55 85 137 85z" />
    <glyph glyph-name="o" unicode="o" horiz-adv-x="512" 
d="M256 544q103 0 160.5 -71.5t57.5 -207.5q0 -131 -58 -205.5t-160 -74.5q-104 0 -161.5 72.5t-57.5 207.5q0 133 58 206t161 73zM256 450q-46 0 -68.5 -43.5t-22.5 -141.5q0 -100 22.5 -143t68.5 -43t68 43.5t22 142.5t-22 142t-68 43z" />
    <glyph glyph-name="p" unicode="p" horiz-adv-x="517" 
d="M312 544q83 0 125 -72t42 -206q0 -129 -48 -205t-133 -76q-68 0 -113 57v-245l-123 -14v746h109l6 -64q52 79 135 79zM265 79q86 0 86 186q0 102 -19.5 143.5t-58.5 41.5q-49 0 -88 -67v-252q33 -52 80 -52z" />
    <glyph glyph-name="q" unicode="q" horiz-adv-x="519" 
d="M350 529h107v-746l-123 14v258q-46 -70 -121 -70q-84 0 -129.5 73.5t-45.5 205.5q0 127 51 203.5t134 76.5q71 0 121 -66zM248 78q50 0 86 66v252q-36 55 -81 55q-87 0 -87 -186q0 -187 82 -187z" />
    <glyph glyph-name="r" unicode="r" horiz-adv-x="345" 
d="M300 543q21 0 44 -7l-21 -119q-20 6 -39 6q-40 0 -63 -32.5t-36 -97.5v-293h-123v529h107l10 -94q39 108 121 108z" />
    <glyph glyph-name="s" unicode="s" horiz-adv-x="415" 
d="M212 544q97 0 166 -63l-47 -69q-58 41 -111 41q-31 0 -48.5 -15.5t-17.5 -41.5q0 -27 19.5 -43.5t77.5 -37.5q72 -26 107 -63.5t35 -99.5q0 -78 -56 -122.5t-142 -44.5q-111 0 -185 74l60 67q58 -50 121 -50q35 0 55.5 17.5t20.5 48.5q0 33 -20 51.5t-81 40.5
q-72 26 -103.5 62.5t-31.5 92.5q0 67 49.5 111t131.5 44z" />
    <glyph glyph-name="t" unicode="t" horiz-adv-x="329" 
d="M292 100l43 -76q-51 -39 -119 -39q-70 0 -107 40.5t-37 111.5v303h-67v89h67v117l123 15v-132h105l-12 -89h-93v-302q0 -54 46 -54q21 0 51 16z" />
    <glyph glyph-name="u" unicode="u" horiz-adv-x="500" 
d="M438 529v-529h-108l-6 69q-50 -84 -136 -84q-60 0 -95 41.5t-35 110.5v392h123v-384q0 -67 48 -67t86 72v379h123z" />
    <glyph glyph-name="v" unicode="v" horiz-adv-x="444" 
d="M442 529l-145 -529h-146l-149 529h127l95 -430l96 430h122z" />
    <glyph glyph-name="w" unicode="w" horiz-adv-x="648" 
d="M636 529l-96 -529h-151l-65 418l-64 -418h-149l-99 529h120l59 -438l73 438h125l70 -438l62 438h115z" />
    <glyph glyph-name="x" unicode="x" horiz-adv-x="440" 
d="M292 283l151 -283h-132l-94 213l-91 -213h-129l150 279l-135 250h130l78 -183l75 183h127z" />
    <glyph glyph-name="y" unicode="y" horiz-adv-x="448" 
d="M446 529l-148 -531q-54 -197 -245 -215l-14 88q66 12 98 40.5t52 88.5h-46l-141 529h125l96 -447l100 447h123z" />
    <glyph glyph-name="z" unicode="z" horiz-adv-x="391" 
d="M370 529v-89l-221 -343h225l-12 -97h-348v89l222 343h-203v97h337z" />
    <glyph glyph-name="braceleft" unicode="{" horiz-adv-x="279" 
d="M254 838v-88q-40 0 -55.5 -14t-15.5 -50v-215q0 -58 -19.5 -83.5t-64.5 -38.5q44 -12 64.5 -37.5t20.5 -82.5v-215q0 -36 15 -50t55 -14v-88q-104 0 -143.5 37t-39.5 119v206q0 41 -12.5 58t-44.5 17v101q32 0 44.5 17.5t12.5 58.5v206q0 82 39.5 119t143.5 37z" />
    <glyph glyph-name="bar" unicode="|" horiz-adv-x="328" 
d="M221 809v-913h-114v913h114z" />
    <glyph glyph-name="braceright" unicode="}" horiz-adv-x="279" 
d="M25 838q104 0 143.5 -37t39.5 -119v-206q0 -41 12.5 -58.5t44.5 -17.5v-101q-32 0 -44.5 -17t-12.5 -58v-206q0 -82 -39.5 -119t-143.5 -37v88q39 0 54.5 14t15.5 50v215q0 57 20 82t65 38q-46 14 -65 39t-19 83v215q0 36 -15.5 50t-54.5 14z" />
    <glyph glyph-name="asciitilde" unicode="~" horiz-adv-x="442" 
d="M293 244q-31 0 -58.5 15t-49 29.5t-38.5 14.5q-14 0 -26 -8.5t-19 -17.5t-17 -26l-64 34q50 109 131 109q38 0 81.5 -29t61.5 -29q32 0 62 47l65 -34q-51 -105 -129 -105z" />
    <glyph glyph-name="uni00A0" unicode="&#xa0;" horiz-adv-x="209" 
 />
    <glyph glyph-name="exclamdown" unicode="&#xa1;" horiz-adv-x="225" 
d="M113 501q33 0 54.5 -23t21.5 -55t-21.5 -55t-54.5 -23q-34 0 -55.5 22.5t-21.5 55.5t21.5 55.5t55.5 22.5zM162 243l17 -449h-131l16 449h98z" />
    <glyph glyph-name="cent" unicode="&#xa2;" horiz-adv-x="415" 
d="M353 118l54 -72q-51 -48 -113 -58v-146h-91v149q-79 18 -122.5 87.5t-43.5 181.5q0 113 44 185.5t123 91.5v151h90v-147q62 -10 113 -58l-53 -71q-45 36 -89 36q-98 0 -98 -186q0 -97 25 -137.5t72 -40.5q41 0 89 34z" />
    <glyph glyph-name="sterling" unicode="&#xa3;" horiz-adv-x="469" 
d="M218 222q0 -49 -12 -76.5t-50 -48.5h274l-13 -97h-391v92q46 17 59 42t13 83v100h-58v70h58v109q0 83 47.5 136t131.5 53q106 0 170 -91l-75 -55q-36 51 -83 51q-71 0 -71 -92v-111h164v-70h-164v-95z" />
    <glyph glyph-name="currency" unicode="&#xa4;" 
d="M471 137l-64 -53l-64 75q-46 -30 -103 -30t-102 31l-65 -76l-60 55l71 81q-29 50 -29 121q0 70 29 120l-73 85l64 54l65 -77q44 30 100 30q57 0 103 -30l66 77l60 -55l-71 -82q30 -52 30 -122q0 -67 -29 -120zM241 216q88 0 88 126t-88 126t-88 -126t88 -126z" />
    <glyph glyph-name="yen" unicode="&#xa5;" 
d="M486 673l-158 -324h90v-72h-115v-81h115v-70h-115v-126h-123v126h-115v70h115v81h-115v72h89l-158 324h126l121 -290l120 290h123z" />
    <glyph glyph-name="brokenbar" unicode="&#xa6;" horiz-adv-x="328" 
d="M221 809v-366h-114v366h114zM221 262v-366h-114v366h114z" />
    <glyph glyph-name="section" unicode="&#xa7;" horiz-adv-x="470" 
d="M352 177q49 -37 49 -100q0 -69 -51 -111.5t-132 -42.5q-95 0 -162 52l43 73q54 -36 114 -36q33 0 52.5 15t19.5 43q0 29 -19 45.5t-85 41.5q-70 26 -101 57.5t-31 89.5q0 77 70 122q-48 41 -48 105q0 68 49 110t129 42q94 0 162 -55l-43 -70q-55 37 -110 37
q-71 0 -71 -58q0 -30 19 -47.5t83 -42.5q68 -26 100 -58.5t32 -85.5q0 -77 -69 -126zM233 238q29 -11 55 -24q26 34 26 69q0 31 -18 49t-70 39q-9 3 -46 19q-24 -32 -24 -67q0 -32 16 -49.5t61 -35.5z" />
    <glyph glyph-name="dieresis" unicode="&#xa8;" horiz-adv-x="386" 
d="M100 782q28 0 46.5 -19.5t18.5 -47.5q0 -29 -18.5 -48t-46.5 -19t-47 19t-19 48q0 28 19 47.5t47 19.5zM294 782q29 0 47.5 -19.5t18.5 -47.5q0 -29 -18.5 -48t-47.5 -19q-28 0 -46.5 19t-18.5 48q0 28 18.5 47.5t46.5 19.5z" />
    <glyph glyph-name="copyright" unicode="&#xa9;" horiz-adv-x="696" 
d="M349 757q122 0 203.5 -89.5t81.5 -234.5q0 -144 -81.5 -233t-203.5 -89t-204 89t-82 233q0 145 82 234.5t204 89.5zM349 691q-93 0 -153 -70t-60 -188t60 -187.5t153 -69.5t153 69.5t60 187.5t-60 188t-153 70zM353 627q60 0 107 -45l-38 -51q-33 24 -63 24
q-67 0 -67 -121q0 -119 68 -119q32 0 67 28l36 -53q-49 -49 -112 -49q-67 0 -107.5 50t-40.5 143q0 92 41.5 142.5t108.5 50.5z" />
    <glyph glyph-name="guillemotleft" unicode="&#xab;" horiz-adv-x="547" 
d="M201 544l75 -49l-116 -209l116 -210l-75 -49l-160 218v81zM431 544l75 -49l-117 -209l117 -210l-75 -49l-160 218v81z" />
    <glyph glyph-name="logicalnot" unicode="&#xac;" horiz-adv-x="451" 
d="M407 373v-244h-103v149h-260v95h363z" />
    <glyph glyph-name="uni00AD" unicode="&#xad;" horiz-adv-x="358" 
d="M45 264v98h268v-98h-268z" />
    <glyph glyph-name="registered" unicode="&#xae;" horiz-adv-x="549" 
d="M275 754q100 0 165.5 -74t65.5 -191q0 -116 -65.5 -189.5t-165.5 -73.5t-166 73.5t-66 189.5t66 190.5t166 74.5zM275 283q75 0 122 55.5t47 150.5t-47 151.5t-122 56.5t-122.5 -56.5t-47.5 -151.5t47 -150.5t123 -55.5zM371 548q0 -53 -51 -75l63 -117h-67l-49 104h-21
v-104h-58v278h70q113 0 113 -86zM246 586v-75h25q40 0 40 38q0 37 -41 37h-24z" />
    <glyph glyph-name="macron" unicode="&#xaf;" horiz-adv-x="315" 
d="M289 663h-255v85h255v-85z" />
    <glyph glyph-name="degree" unicode="&#xb0;" horiz-adv-x="448" 
d="M187 376q-61 0 -105.5 44t-44.5 121t44.5 121t105.5 44q63 0 107 -43.5t44 -121.5t-44 -121.5t-107 -43.5zM187 451q64 0 64 90q0 89 -64 89q-63 0 -63 -89q0 -90 63 -90z" />
    <glyph glyph-name="plusminus" unicode="&#xb1;" horiz-adv-x="451" 
d="M277 580v-151h130v-97h-130v-150h-103v150h-130v97h130v151h103zM48 0v95h354v-95h-354z" />
    <glyph glyph-name="uni00B2" unicode="&#xb2;" horiz-adv-x="344" 
d="M169 748q60 0 95.5 -35t35.5 -87q0 -48 -31 -95t-121 -136h161l-10 -74h-250v69q98 107 127 148.5t29 81.5q0 54 -47 54q-36 0 -70 -40l-53 42q52 72 134 72z" />
    <glyph glyph-name="uni00B3" unicode="&#xb3;" horiz-adv-x="344" 
d="M170 749q61 0 95 -31.5t34 -78.5q0 -76 -84 -96q45 -4 71 -29.5t26 -72.5q0 -56 -39 -93.5t-108 -37.5q-84 0 -133 64l50 46q37 -37 76 -37q27 0 43 17t16 47q0 60 -65 60h-29l11 66h19q56 0 56 54q0 52 -50 52q-38 0 -75 -34l-45 48q56 56 131 56z" />
    <glyph glyph-name="acute" unicode="&#xb4;" horiz-adv-x="293" 
d="M216 813l51 -92l-199 -90l-34 60z" />
    <glyph glyph-name="uni00B5" unicode="&#xb5;" horiz-adv-x="504" 
d="M460 0l-113 -14q-13 36 -21 89q-42 -85 -102 -85q-47 0 -74 47q29 -64 29 -143v-98l-117 -12v745h123v-374q0 -70 49 -70t82 78v366h123v-348q0 -101 21 -181z" />
    <glyph glyph-name="paragraph" unicode="&#xb6;" horiz-adv-x="668" 
d="M288 691h276v-894l-108 -16v820h-85v-804l-107 -16v492q-99 4 -151 61.5t-52 148.5q0 99 59.5 153.5t167.5 54.5z" />
    <glyph glyph-name="periodcentered" unicode="&#xb7;" horiz-adv-x="221" 
d="M110 387q34 0 55.5 -23t21.5 -55t-21.5 -55.5t-55.5 -23.5t-55 23t-21 56q0 32 21.5 55t54.5 23z" />
    <glyph glyph-name="cedilla" unicode="&#xb8;" horiz-adv-x="275" 
d="M162 16v-71q87 -13 87 -90q0 -49 -33.5 -77t-89.5 -28q-54 0 -92 26l30 58q26 -13 54 -13q40 0 40 34q0 40 -78 40l13 121h69z" />
    <glyph glyph-name="uni00B9" unicode="&#xb9;" horiz-adv-x="344" 
d="M252 740v-419h-91v327l-80 -54l-42 60l130 86h83z" />
    <glyph glyph-name="guillemotright" unicode="&#xbb;" horiz-adv-x="545" 
d="M117 544l159 -218v-81l-159 -218l-76 49l117 210l-117 209zM344 544l160 -218v-81l-160 -218l-75 49l117 210l-117 209z" />
    <glyph glyph-name="onequarter" unicode="&#xbc;" horiz-adv-x="826" 
d="M552 754l73 -32l-350 -803l-75 32zM252 272h-91v327l-80 -54l-42 60l130 86h83v-419zM801 162v-72h-42v-90h-87l-1 90h-165v66l106 272l78 -30l-91 -236h73l17 101h70v-101h42z" />
    <glyph glyph-name="onehalf" unicode="&#xbd;" horiz-adv-x="826" 
d="M552 754l73 -32l-350 -803l-75 32zM252 691v-419h-91v327l-80 -54l-42 60l130 86h83zM651 427q60 0 95.5 -35t35.5 -87q0 -48 -31 -95t-121 -136h161l-10 -74h-250v69q98 107 127 148.5t29 81.5q0 54 -47 54q-36 0 -70 -40l-53 42q52 72 134 72z" />
    <glyph glyph-name="threequarters" unicode="&#xbe;" horiz-adv-x="826" 
d="M552 754l73 -32l-350 -803l-75 32zM312 392q0 -56 -39 -93.5t-108 -37.5q-84 0 -133 64l50 46q37 -37 76 -37q27 0 43 17t16 47q0 60 -65 60h-29l11 66h19q56 0 56 54q0 52 -50 52q-38 0 -75 -34l-45 48q56 56 131 56q61 0 95 -31.5t34 -78.5q0 -76 -84 -96
q45 -4 71 -29.5t26 -72.5zM801 162v-72h-42v-90h-87l-1 90h-165v66l106 272l78 -30l-91 -236h73l17 101h70v-101h42z" />
    <glyph glyph-name="questiondown" unicode="&#xbf;" horiz-adv-x="418" 
d="M230 344q-34 0 -55.5 23t-21.5 55t21.5 55.5t55.5 23.5t55 -23t21 -56q0 -32 -21.5 -55t-54.5 -23zM203 -219q-87 0 -135 47t-48 114q0 43 16 75t38.5 51.5t45.5 37.5t39 44t16 60v31h113v-36q0 -46 -14.5 -80t-35.5 -53t-42 -35t-35.5 -38.5t-14.5 -51.5
q0 -33 18.5 -50.5t51.5 -17.5q57 0 107 62l75 -58q-75 -102 -195 -102z" />
    <glyph glyph-name="Agrave" unicode="&#xc0;" horiz-adv-x="516" 
d="M370 815l-31 -62l-201 82l48 94zM388 0l-36 162h-191l-36 -162h-127l183 691h155l182 -691h-130zM182 258h149l-75 336z" />
    <glyph glyph-name="Aacute" unicode="&#xc1;" horiz-adv-x="516" 
d="M374 835l-200 -82l-32 62l183 114zM388 0l-36 162h-191l-36 -162h-127l183 691h155l182 -691h-130zM182 258h149l-75 336z" />
    <glyph glyph-name="Acircumflex" unicode="&#xc2;" horiz-adv-x="516" 
d="M258 842l-113 -82l-45 48l121 122h75l120 -122l-45 -48zM388 0l-36 162h-191l-36 -162h-127l183 691h155l182 -691h-130zM182 258h149l-75 336z" />
    <glyph glyph-name="Atilde" unicode="&#xc3;" horiz-adv-x="516" 
d="M209 818q-25 0 -46 -43l-62 30q37 100 105 100q27 0 58.5 -22t44.5 -22q23 0 44 43l63 -30q-35 -99 -105 -99q-28 0 -59 21.5t-43 21.5zM388 0l-36 162h-191l-36 -162h-127l183 691h155l182 -691h-130zM182 258h149l-75 336z" />
    <glyph glyph-name="Adieresis" unicode="&#xc4;" horiz-adv-x="516" 
d="M165 774q-28 0 -47 19t-19 48q0 28 19 47.5t47 19.5t46.5 -19.5t18.5 -47.5q0 -29 -18.5 -48t-46.5 -19zM359 774q-28 0 -47 19.5t-19 47.5t19 47.5t47 19.5q29 0 47.5 -19.5t18.5 -47.5q0 -29 -18.5 -48t-47.5 -19zM388 0l-36 162h-191l-36 -162h-127l183 691h155
l182 -691h-130zM182 258h149l-75 336z" />
    <glyph glyph-name="Aring" unicode="&#xc5;" horiz-adv-x="516" 
d="M259 741q-53 0 -84 32.5t-31 85.5q0 52 31 85t84 33q52 0 83 -33t31 -85q0 -53 -31 -85.5t-83 -32.5zM259 914q-42 0 -42 -55t42 -55q41 0 41 55t-41 55zM388 0l-36 162h-191l-36 -162h-127l183 691h155l182 -691h-130zM182 258h149l-75 336z" />
    <glyph glyph-name="AE" unicode="&#xc6;" horiz-adv-x="721" 
d="M492 96h198v-96h-304l-26 162h-195l-48 -162h-133l234 691h439l-14 -95h-239l35 -199h210v-94h-193zM193 258h152l-53 337z" />
    <glyph glyph-name="Ccedilla" unicode="&#xc7;" horiz-adv-x="496" 
d="M487 68q-63 -70 -154 -81v-42q87 -13 87 -90q0 -49 -33.5 -77t-89.5 -28q-54 0 -92 26l30 58q26 -13 54 -13q40 0 40 34q0 40 -78 40l10 93q-104 16 -163.5 106.5t-59.5 252.5q0 175 73.5 267t192.5 92q97 0 177 -72l-62 -74q-54 48 -109 48q-139 0 -139 -261
q0 -260 140 -260q54 0 116 53z" />
    <glyph glyph-name="Egrave" unicode="&#xc8;" horiz-adv-x="455" 
d="M172 929l184 -114l-31 -62l-201 82zM421 691l-14 -95h-214v-198h187v-94h-187v-208h229v-96h-357v691h356z" />
    <glyph glyph-name="Eacute" unicode="&#xc9;" horiz-adv-x="455" 
d="M311 929l49 -94l-200 -82l-32 62zM421 691l-14 -95h-214v-198h187v-94h-187v-208h229v-96h-357v691h356z" />
    <glyph glyph-name="Ecircumflex" unicode="&#xca;" horiz-adv-x="455" 
d="M131 760l-45 48l121 122h75l120 -122l-45 -48l-113 82zM421 691l-14 -95h-214v-198h187v-94h-187v-208h229v-96h-357v691h356z" />
    <glyph glyph-name="Edieresis" unicode="&#xcb;" horiz-adv-x="455" 
d="M151 908q28 0 46.5 -19.5t18.5 -47.5q0 -29 -18.5 -48t-46.5 -19t-47 19t-19 48q0 28 19 47.5t47 19.5zM345 908q29 0 47.5 -19.5t18.5 -47.5q0 -29 -18.5 -48t-47.5 -19q-28 0 -47 19.5t-19 47.5t19 47.5t47 19.5zM421 691l-14 -95h-214v-198h187v-94h-187v-208h229v-96
h-357v691h356z" />
    <glyph glyph-name="Igrave" unicode="&#xcc;" horiz-adv-x="258" 
d="M56 929l184 -114l-31 -62l-201 82zM193 691v-691h-128v691h128z" />
    <glyph glyph-name="Iacute" unicode="&#xcd;" horiz-adv-x="258" 
d="M195 929l49 -94l-200 -82l-32 62zM193 691v-691h-128v691h128z" />
    <glyph glyph-name="Icircumflex" unicode="&#xce;" horiz-adv-x="258" 
d="M15 760l-45 48l121 122h75l120 -122l-45 -48l-113 82zM193 691v-691h-128v691h128z" />
    <glyph glyph-name="Idieresis" unicode="&#xcf;" horiz-adv-x="258" 
d="M36 908q28 0 46.5 -19.5t18.5 -47.5q0 -29 -18.5 -48t-46.5 -19t-47 19t-19 48q0 28 19 47.5t47 19.5zM230 908q29 0 47.5 -19.5t18.5 -47.5q0 -29 -18.5 -48t-47.5 -19q-28 0 -47 19.5t-19 47.5t19 47.5t47 19.5zM193 691v-691h-128v691h128z" />
    <glyph glyph-name="Eth" unicode="&#xd0;" horiz-adv-x="582" 
d="M238 691q52 0 93 -7.5t82.5 -29.5t69 -58.5t44.5 -99t17 -147.5q0 -349 -292 -349h-171v311h-64v84h64v296h157zM260 95q47 0 78 19t52.5 77t21.5 158q0 77 -12 128t-35 76t-48 34t-60 9h-49v-201h108v-84h-108v-216h52z" />
    <glyph glyph-name="Ntilde" unicode="&#xd1;" horiz-adv-x="579" 
d="M348 775q-28 0 -59 21.5t-43 21.5q-15 0 -25 -10t-21 -33l-62 30q37 100 105 100q27 0 58.5 -22t44.5 -22q22 0 44 43l63 -30q-35 -99 -105 -99zM514 691v-691h-162l-191 565q17 -151 17 -276v-289h-113v691h161l192 -566q-17 113 -17 235v331h113z" />
    <glyph glyph-name="Ograve" unicode="&#xd2;" horiz-adv-x="604" 
d="M230 929l184 -114l-31 -62l-201 82zM302 706q126 0 195 -90.5t69 -269.5q0 -177 -69.5 -269t-194.5 -92t-194.5 90.5t-69.5 269.5q0 176 70 268.5t194 92.5zM302 608q-66 0 -98.5 -61t-32.5 -202q0 -142 33 -202t98 -60q66 0 98.5 60t32.5 203q0 140 -32.5 201t-98.5 61z
" />
    <glyph glyph-name="Oacute" unicode="&#xd3;" horiz-adv-x="604" 
d="M369 929l49 -94l-200 -82l-32 62zM302 706q126 0 195 -90.5t69 -269.5q0 -177 -69.5 -269t-194.5 -92t-194.5 90.5t-69.5 269.5q0 176 70 268.5t194 92.5zM302 608q-66 0 -98.5 -61t-32.5 -202q0 -142 33 -202t98 -60q66 0 98.5 60t32.5 203q0 140 -32.5 201t-98.5 61z
" />
    <glyph glyph-name="Ocircumflex" unicode="&#xd4;" horiz-adv-x="604" 
d="M188 760l-45 48l121 122h75l120 -122l-45 -48l-113 82zM302 706q126 0 195 -90.5t69 -269.5q0 -177 -69.5 -269t-194.5 -92t-194.5 90.5t-69.5 269.5q0 176 70 268.5t194 92.5zM302 608q-66 0 -98.5 -61t-32.5 -202q0 -142 33 -202t98 -60q66 0 98.5 60t32.5 203
q0 140 -32.5 201t-98.5 61z" />
    <glyph glyph-name="Otilde" unicode="&#xd5;" horiz-adv-x="604" 
d="M355 775q-28 0 -59 21.5t-43 21.5q-25 0 -46 -43l-62 30q37 100 105 100q27 0 58.5 -22t44.5 -22q23 0 44 43l63 -30q-35 -99 -105 -99zM302 706q126 0 195 -90.5t69 -269.5q0 -177 -69.5 -269t-194.5 -92t-194.5 90.5t-69.5 269.5q0 176 70 268.5t194 92.5zM302 608
q-66 0 -98.5 -61t-32.5 -202q0 -142 33 -202t98 -60q66 0 98.5 60t32.5 203q0 140 -32.5 201t-98.5 61z" />
    <glyph glyph-name="Odieresis" unicode="&#xd6;" horiz-adv-x="604" 
d="M209 908q28 0 46.5 -19.5t18.5 -47.5q0 -29 -18.5 -48t-46.5 -19t-47 19t-19 48q0 28 19 47.5t47 19.5zM403 908q29 0 47.5 -19.5t18.5 -47.5q0 -29 -18.5 -48t-47.5 -19q-28 0 -47 19.5t-19 47.5t19 47.5t47 19.5zM302 706q126 0 195 -90.5t69 -269.5q0 -177 -69.5 -269
t-194.5 -92t-194.5 90.5t-69.5 269.5q0 176 70 268.5t194 92.5zM302 608q-66 0 -98.5 -61t-32.5 -202q0 -142 33 -202t98 -60q66 0 98.5 60t32.5 203q0 140 -32.5 201t-98.5 61z" />
    <glyph glyph-name="multiply" unicode="&#xd7;" horiz-adv-x="442" 
d="M323 497l74 -61l-108 -129l108 -130l-74 -60l-102 126l-102 -126l-74 60l108 129l-108 130l74 61l101 -127z" />
    <glyph glyph-name="Oslash" unicode="&#xd8;" horiz-adv-x="604" 
d="M439 669q127 -80 127 -323q0 -177 -69.5 -268.5t-194.5 -91.5q-23 0 -44 3l-30 -119l-98 26l35 126q-127 82 -127 323q0 176 70 268t194 92q24 0 43 -3l32 121l97 -26zM302 609q-69 0 -102.5 -61t-33.5 -203q0 -172 47 -228l120 490q-10 2 -31 2zM437 346q0 169 -46 226
l-119 -488q9 -2 30 -2q70 0 102 59.5t33 204.5z" />
    <glyph glyph-name="Ugrave" unicode="&#xd9;" horiz-adv-x="564" 
d="M210 929l184 -114l-31 -62l-201 82zM509 691v-486q0 -98 -58.5 -158.5t-168.5 -60.5q-111 0 -169 59.5t-58 159.5v486h128v-479q0 -65 24 -96t75 -31q99 0 99 127v479h128z" />
    <glyph glyph-name="Uacute" unicode="&#xda;" horiz-adv-x="564" 
d="M349 929l49 -94l-200 -82l-32 62zM509 691v-486q0 -98 -58.5 -158.5t-168.5 -60.5q-111 0 -169 59.5t-58 159.5v486h128v-479q0 -65 24 -96t75 -31q99 0 99 127v479h128z" />
    <glyph glyph-name="Ucircumflex" unicode="&#xdb;" horiz-adv-x="564" 
d="M168 760l-45 48l121 122h75l120 -122l-45 -48l-113 82zM509 691v-486q0 -98 -58.5 -158.5t-168.5 -60.5q-111 0 -169 59.5t-58 159.5v486h128v-479q0 -65 24 -96t75 -31q99 0 99 127v479h128z" />
    <glyph glyph-name="Udieresis" unicode="&#xdc;" horiz-adv-x="564" 
d="M189 908q28 0 46.5 -19.5t18.5 -47.5q0 -29 -18.5 -48t-46.5 -19t-47 19t-19 48q0 28 19 47.5t47 19.5zM383 908q29 0 47.5 -19.5t18.5 -47.5q0 -29 -18.5 -48t-47.5 -19q-28 0 -47 19.5t-19 47.5t19 47.5t47 19.5zM509 691v-486q0 -98 -58.5 -158.5t-168.5 -60.5
q-111 0 -169 59.5t-58 159.5v486h128v-479q0 -65 24 -96t75 -31q99 0 99 127v479h128z" />
    <glyph glyph-name="Yacute" unicode="&#xdd;" horiz-adv-x="502" 
d="M317 929l49 -94l-200 -82l-32 62zM506 691l-191 -428v-263h-128v262l-191 429h135l122 -325l122 325h131z" />
    <glyph glyph-name="Thorn" unicode="&#xde;" horiz-adv-x="512" 
d="M240 577q123 0 188.5 -56t65.5 -166q0 -118 -65.5 -176t-180.5 -58h-55v-121h-128v691h128v-114h47zM238 216q64 0 95 31.5t31 107.5q0 68 -31.5 98.5t-95.5 30.5h-44v-268h45z" />
    <glyph glyph-name="germandbls" unicode="&#xdf;" horiz-adv-x="523" 
d="M259 754q80 0 126 -41t46 -103q0 -34 -13 -62t-29 -43t-29 -35.5t-13 -40.5q0 -21 16 -40.5t38.5 -38.5t45 -42.5t38.5 -60.5t16 -83q0 -82 -47.5 -130.5t-119.5 -48.5q-56 0 -98 25l36 81q20 -9 44 -9q27 0 44 21t17 62q0 33 -14 60t-34 46.5t-40.5 39t-34.5 46
t-14 57.5q0 29 12 53t26.5 39t26.5 39.5t12 52.5q0 32 -17 49t-44 17q-71 0 -71 -102v-562h-123v557q0 89 52.5 143t144.5 54z" />
    <glyph glyph-name="agrave" unicode="&#xe0;" horiz-adv-x="475" 
d="M358 691l-35 -60l-198 90l50 92zM411 130q0 -27 7.5 -40t24.5 -21l-25 -82q-83 9 -105 75q-48 -77 -136 -77q-68 0 -108.5 45t-40.5 118q0 86 55 131t160 45h47v35q0 51 -18.5 72t-61.5 21q-49 0 -122 -27l-28 81q87 38 171 38q180 0 180 -178v-236zM211 74q51 0 79 66
v111h-35q-104 0 -104 -94q0 -83 60 -83z" />
    <glyph glyph-name="aacute" unicode="&#xe1;" horiz-adv-x="475" 
d="M345 721l-199 -90l-34 60l182 122zM411 130q0 -27 7.5 -40t24.5 -21l-25 -82q-83 9 -105 75q-48 -77 -136 -77q-68 0 -108.5 45t-40.5 118q0 86 55 131t160 45h47v35q0 51 -18.5 72t-61.5 21q-49 0 -122 -27l-28 81q87 38 171 38q180 0 180 -178v-236zM211 74q51 0 79 66
v111h-35q-104 0 -104 -94q0 -83 60 -83z" />
    <glyph glyph-name="acircumflex" unicode="&#xe2;" horiz-adv-x="475" 
d="M233 718l-113 -88l-45 49l120 127h76l120 -127l-45 -49zM411 130q0 -27 7.5 -40t24.5 -21l-25 -82q-83 9 -105 75q-48 -77 -136 -77q-68 0 -108.5 45t-40.5 118q0 86 55 131t160 45h47v35q0 51 -18.5 72t-61.5 21q-49 0 -122 -27l-28 81q87 38 171 38q180 0 180 -178
v-236zM211 74q51 0 79 66v111h-35q-104 0 -104 -94q0 -83 60 -83z" />
    <glyph glyph-name="atilde" unicode="&#xe3;" horiz-adv-x="475" 
d="M184 692q-15 0 -25 -10t-21 -33l-62 30q37 100 105 100q27 0 58.5 -22t44.5 -22q22 0 44 43l63 -30q-35 -99 -105 -99q-28 0 -59 21.5t-43 21.5zM411 130q0 -27 7.5 -40t24.5 -21l-25 -82q-83 9 -105 75q-48 -77 -136 -77q-68 0 -108.5 45t-40.5 118q0 86 55 131t160 45
h47v35q0 51 -18.5 72t-61.5 21q-49 0 -122 -27l-28 81q87 38 171 38q180 0 180 -178v-236zM211 74q51 0 79 66v111h-35q-104 0 -104 -94q0 -83 60 -83z" />
    <glyph glyph-name="adieresis" unicode="&#xe4;" horiz-adv-x="475" 
d="M136 648q-28 0 -47 19t-19 48q0 28 19 47.5t47 19.5t46.5 -19.5t18.5 -47.5q0 -29 -18.5 -48t-46.5 -19zM330 648q-28 0 -47 19.5t-19 47.5t19 47.5t47 19.5q29 0 47.5 -19.5t18.5 -47.5q0 -29 -18.5 -48t-47.5 -19zM411 130q0 -27 7.5 -40t24.5 -21l-25 -82
q-83 9 -105 75q-48 -77 -136 -77q-68 0 -108.5 45t-40.5 118q0 86 55 131t160 45h47v35q0 51 -18.5 72t-61.5 21q-49 0 -122 -27l-28 81q87 38 171 38q180 0 180 -178v-236zM211 74q51 0 79 66v111h-35q-104 0 -104 -94q0 -83 60 -83z" />
    <glyph glyph-name="aring" unicode="&#xe5;" horiz-adv-x="475" 
d="M233 615q-53 0 -84 32.5t-31 85.5q0 52 31 85t84 33q52 0 83 -33t31 -85q0 -53 -31 -85.5t-83 -32.5zM233 788q-42 0 -42 -55t42 -55q41 0 41 55t-41 55zM411 130q0 -27 7.5 -40t24.5 -21l-25 -82q-83 9 -105 75q-48 -77 -136 -77q-68 0 -108.5 45t-40.5 118q0 86 55 131
t160 45h47v35q0 51 -18.5 72t-61.5 21q-49 0 -122 -27l-28 81q87 38 171 38q180 0 180 -178v-236zM211 74q51 0 79 66v111h-35q-104 0 -104 -94q0 -83 60 -83z" />
    <glyph glyph-name="ae" unicode="&#xe6;" horiz-adv-x="741" 
d="M708 277q0 -30 -3 -51h-285q11 -147 109 -147q52 0 110 44l52 -68q-75 -70 -173 -70q-116 0 -176 92q-60 -92 -159 -92q-71 0 -113 45t-42 118q0 84 56.5 129t162.5 45h48v33q0 53 -19 75t-62 22q-49 0 -121 -28l-28 82q87 38 168 38q97 0 138 -73q54 73 143 73
q90 0 142 -69t52 -198zM589 306v7q0 143 -82 143q-40 0 -61.5 -35t-25.5 -115h169zM216 75q54 0 93 78q-11 40 -13 94v2h-36q-105 0 -105 -93q0 -81 61 -81z" />
    <glyph glyph-name="ccedilla" unicode="&#xe7;" horiz-adv-x="415" 
d="M407 46q-56 -53 -127 -60v-41q87 -13 87 -90q0 -49 -33.5 -77t-89.5 -28q-54 0 -92 26l30 58q26 -13 54 -13q40 0 40 34q0 40 -78 40l10 95q-81 17 -126 86.5t-45 183.5q0 132 59 208t161 76q86 0 150 -61l-53 -71q-45 36 -89 36q-98 0 -98 -186q0 -97 25 -137.5
t72 -40.5q41 0 89 34z" />
    <glyph glyph-name="egrave" unicode="&#xe8;" 
d="M372 691l-35 -60l-198 90l50 92zM450 277q0 -23 -2 -51h-286q5 -81 31.5 -114t73.5 -33q58 0 115 44l51 -68q-75 -70 -174 -70q-107 0 -164.5 72.5t-57.5 202.5t55 207t155 77q97 0 150 -68.5t53 -198.5zM331 306v7q0 74 -20 109t-63 35q-40 0 -61 -34t-25 -117h169z" />
    <glyph glyph-name="eacute" unicode="&#xe9;" 
d="M359 721l-199 -90l-34 60l182 122zM450 277q0 -23 -2 -51h-286q5 -81 31.5 -114t73.5 -33q58 0 115 44l51 -68q-75 -70 -174 -70q-107 0 -164.5 72.5t-57.5 202.5t55 207t155 77q97 0 150 -68.5t53 -198.5zM331 306v7q0 74 -20 109t-63 35q-40 0 -61 -34t-25 -117h169z
" />
    <glyph glyph-name="ecircumflex" unicode="&#xea;" 
d="M247 718l-113 -88l-45 49l120 127h76l120 -127l-45 -49zM450 277q0 -23 -2 -51h-286q5 -81 31.5 -114t73.5 -33q58 0 115 44l51 -68q-75 -70 -174 -70q-107 0 -164.5 72.5t-57.5 202.5t55 207t155 77q97 0 150 -68.5t53 -198.5zM331 306v7q0 74 -20 109t-63 35
q-40 0 -61 -34t-25 -117h169z" />
    <glyph glyph-name="edieresis" unicode="&#xeb;" 
d="M150 648q-28 0 -47 19t-19 48q0 28 19 47.5t47 19.5t46.5 -19.5t18.5 -47.5q0 -29 -18.5 -48t-46.5 -19zM344 648q-28 0 -47 19.5t-19 47.5t19 47.5t47 19.5q29 0 47.5 -19.5t18.5 -47.5q0 -29 -18.5 -48t-47.5 -19zM450 277q0 -23 -2 -51h-286q5 -81 31.5 -114t73.5 -33
q58 0 115 44l51 -68q-75 -70 -174 -70q-107 0 -164.5 72.5t-57.5 202.5t55 207t155 77q97 0 150 -68.5t53 -198.5zM331 306v7q0 74 -20 109t-63 35q-40 0 -61 -34t-25 -117h169z" />
    <glyph glyph-name="igrave" unicode="&#xec;" horiz-adv-x="248" 
d="M66 813l183 -122l-35 -60l-198 90zM185 529v-529h-123v529h123z" />
    <glyph glyph-name="iacute" unicode="&#xed;" horiz-adv-x="248" 
d="M185 813l51 -92l-199 -90l-34 60zM185 529v-529h-123v529h123z" />
    <glyph glyph-name="icircumflex" unicode="&#xee;" horiz-adv-x="248" 
d="M11 630l-45 49l120 127h76l120 -127l-45 -49l-113 88zM185 529v-529h-123v529h123z" />
    <glyph glyph-name="idieresis" unicode="&#xef;" horiz-adv-x="248" 
d="M27 782q28 0 46.5 -19.5t18.5 -47.5q0 -29 -18.5 -48t-46.5 -19t-47 19t-19 48q0 28 19 47.5t47 19.5zM221 782q29 0 47.5 -19.5t18.5 -47.5q0 -29 -18.5 -48t-47.5 -19q-28 0 -47 19.5t-19 47.5t19 47.5t47 19.5zM185 529v-529h-123v529h123z" />
    <glyph glyph-name="eth" unicode="&#xf0;" horiz-adv-x="506" 
d="M308 666q84 -68 120 -163.5t36 -230.5q0 -131 -57.5 -208.5t-159.5 -77.5q-93 0 -151.5 65t-58.5 183q0 105 49.5 174t126.5 69q70 0 119 -54q-25 114 -92 174l-56 -65l-77 39l62 71q-45 18 -87 28l23 84q71 -17 129 -43l63 75l68 -52zM248 78q92 0 92 178q0 30 -2 72
q-36 59 -92 59q-85 0 -85 -150q0 -159 87 -159z" />
    <glyph glyph-name="ntilde" unicode="&#xf1;" horiz-adv-x="504" 
d="M207 692q-25 0 -46 -43l-62 30q37 100 105 100q27 0 58.5 -22t44.5 -22q23 0 44 43l63 -30q-35 -99 -105 -99q-28 0 -59 21.5t-43 21.5zM316 544q61 0 95 -42.5t34 -118.5v-383h-123v368q0 45 -11.5 63t-35.5 18q-46 0 -90 -79v-370h-123v529h107l10 -70q55 85 137 85z
" />
    <glyph glyph-name="ograve" unicode="&#xf2;" horiz-adv-x="512" 
d="M198 813l183 -122l-35 -60l-198 90zM256 544q103 0 160.5 -71.5t57.5 -207.5q0 -131 -58 -205.5t-160 -74.5q-104 0 -161.5 72.5t-57.5 207.5q0 133 58 206t161 73zM256 450q-46 0 -68.5 -43.5t-22.5 -141.5q0 -100 22.5 -143t68.5 -43t68 43.5t22 142.5t-22 142t-68 43z
" />
    <glyph glyph-name="oacute" unicode="&#xf3;" horiz-adv-x="512" 
d="M317 813l51 -92l-199 -90l-34 60zM256 544q103 0 160.5 -71.5t57.5 -207.5q0 -131 -58 -205.5t-160 -74.5q-104 0 -161.5 72.5t-57.5 207.5q0 133 58 206t161 73zM256 450q-46 0 -68.5 -43.5t-22.5 -141.5q0 -100 22.5 -143t68.5 -43t68 43.5t22 142.5t-22 142t-68 43z
" />
    <glyph glyph-name="ocircumflex" unicode="&#xf4;" horiz-adv-x="512" 
d="M142 630l-45 49l120 127h76l120 -127l-45 -49l-113 88zM256 544q103 0 160.5 -71.5t57.5 -207.5q0 -131 -58 -205.5t-160 -74.5q-104 0 -161.5 72.5t-57.5 207.5q0 133 58 206t161 73zM256 450q-46 0 -68.5 -43.5t-22.5 -141.5q0 -100 22.5 -143t68.5 -43t68 43.5
t22 142.5t-22 142t-68 43z" />
    <glyph glyph-name="otilde" unicode="&#xf5;" horiz-adv-x="512" 
d="M308 649q-28 0 -59 21.5t-43 21.5q-15 0 -25 -10t-21 -33l-62 30q37 100 105 100q27 0 58.5 -22t44.5 -22q22 0 44 43l63 -30q-35 -99 -105 -99zM256 544q103 0 160.5 -71.5t57.5 -207.5q0 -131 -58 -205.5t-160 -74.5q-104 0 -161.5 72.5t-57.5 207.5q0 133 58 206
t161 73zM256 450q-46 0 -68.5 -43.5t-22.5 -141.5q0 -100 22.5 -143t68.5 -43t68 43.5t22 142.5t-22 142t-68 43z" />
    <glyph glyph-name="odieresis" unicode="&#xf6;" horiz-adv-x="512" 
d="M158 782q28 0 46.5 -19.5t18.5 -47.5q0 -29 -18.5 -48t-46.5 -19t-47 19t-19 48q0 28 19 47.5t47 19.5zM352 782q29 0 47.5 -19.5t18.5 -47.5q0 -29 -18.5 -48t-47.5 -19q-28 0 -47 19.5t-19 47.5t19 47.5t47 19.5zM256 544q103 0 160.5 -71.5t57.5 -207.5
q0 -131 -58 -205.5t-160 -74.5q-104 0 -161.5 72.5t-57.5 207.5q0 133 58 206t161 73zM256 450q-46 0 -68.5 -43.5t-22.5 -141.5q0 -100 22.5 -143t68.5 -43t68 43.5t22 142.5t-22 142t-68 43z" />
    <glyph glyph-name="divide" unicode="&#xf7;" horiz-adv-x="442" 
d="M221 644q34 0 55.5 -23t21.5 -55t-21.5 -55.5t-55.5 -23.5t-55.5 23.5t-21.5 55.5t21.5 55t55.5 23zM44 285v95h354v-95h-354zM221 176q34 0 55.5 -23.5t21.5 -55.5t-21.5 -55t-55.5 -23t-55.5 23t-21.5 55t21.5 55.5t55.5 23.5z" />
    <glyph glyph-name="oslash" unicode="&#xf8;" horiz-adv-x="512" 
d="M376 509q98 -66 98 -244q0 -131 -58 -205.5t-160 -74.5q-12 0 -32 2l-32 -119l-92 26l37 126q-100 68 -100 245q0 133 58 206t161 73q18 0 33 -3l33 120l91 -26zM256 452q-52 0 -77.5 -43.5t-25.5 -143.5q0 -117 30 -157l92 343q-3 0 -9 0.5t-10 0.5zM256 77q52 0 77 44
t25 144q0 113 -29 154l-90 -341q5 -1 17 -1z" />
    <glyph glyph-name="ugrave" unicode="&#xf9;" horiz-adv-x="500" 
d="M191 813l183 -122l-35 -60l-198 90zM438 529v-529h-108l-6 69q-50 -84 -136 -84q-60 0 -95 41.5t-35 110.5v392h123v-384q0 -67 48 -67t86 72v379h123z" />
    <glyph glyph-name="uacute" unicode="&#xfa;" horiz-adv-x="500" 
d="M310 813l51 -92l-199 -90l-34 60zM438 529v-529h-108l-6 69q-50 -84 -136 -84q-60 0 -95 41.5t-35 110.5v392h123v-384q0 -67 48 -67t86 72v379h123z" />
    <glyph glyph-name="ucircumflex" unicode="&#xfb;" horiz-adv-x="500" 
d="M135 630l-45 49l120 127h76l120 -127l-45 -49l-113 88zM438 529v-529h-108l-6 69q-50 -84 -136 -84q-60 0 -95 41.5t-35 110.5v392h123v-384q0 -67 48 -67t86 72v379h123z" />
    <glyph glyph-name="udieresis" unicode="&#xfc;" horiz-adv-x="500" 
d="M151 782q28 0 46.5 -19.5t18.5 -47.5q0 -29 -18.5 -48t-46.5 -19t-47 19t-19 48q0 28 19 47.5t47 19.5zM345 782q29 0 47.5 -19.5t18.5 -47.5q0 -29 -18.5 -48t-47.5 -19q-28 0 -47 19.5t-19 47.5t19 47.5t47 19.5zM438 529v-529h-108l-6 69q-50 -84 -136 -84
q-60 0 -95 41.5t-35 110.5v392h123v-384q0 -67 48 -67t86 72v379h123z" />
    <glyph glyph-name="yacute" unicode="&#xfd;" horiz-adv-x="448" 
d="M285 813l51 -92l-199 -90l-34 60zM446 529l-148 -531q-54 -197 -245 -215l-14 88q66 12 98 40.5t52 88.5h-46l-141 529h125l96 -447l100 447h123z" />
    <glyph glyph-name="thorn" unicode="&#xfe;" horiz-adv-x="517" 
d="M311 544q84 0 126 -72t42 -206q0 -129 -48 -205t-133 -76q-70 0 -113 61v-247l-123 -16v958l123 13v-280q50 70 126 70zM265 79q86 0 86 186q0 102 -19.5 143.5t-58.5 41.5q-49 0 -88 -67v-252q33 -52 80 -52z" />
    <glyph glyph-name="ydieresis" unicode="&#xff;" horiz-adv-x="448" 
d="M126 782q28 0 46.5 -19.5t18.5 -47.5q0 -29 -18.5 -48t-46.5 -19t-47 19t-19 48q0 28 19 47.5t47 19.5zM320 782q29 0 47.5 -19.5t18.5 -47.5q0 -29 -18.5 -48t-47.5 -19q-28 0 -47 19.5t-19 47.5t19 47.5t47 19.5zM446 529l-148 -531q-54 -197 -245 -215l-14 88
q66 12 98 40.5t52 88.5h-46l-141 529h125l96 -447l100 447h123z" />
    <glyph glyph-name="Amacron" unicode="&#x100;" horiz-adv-x="516" 
d="M386 874v-85h-255v85h255zM388 0l-36 162h-191l-36 -162h-127l183 691h155l182 -691h-130zM182 258h149l-75 336z" />
    <glyph glyph-name="amacron" unicode="&#x101;" horiz-adv-x="475" 
d="M360 748v-85h-255v85h255zM411 130q0 -27 7.5 -40t24.5 -21l-25 -82q-83 9 -105 75q-48 -77 -136 -77q-68 0 -108.5 45t-40.5 118q0 86 55 131t160 45h47v35q0 51 -18.5 72t-61.5 21q-49 0 -122 -27l-28 81q87 38 171 38q180 0 180 -178v-236zM211 74q51 0 79 66v111h-35
q-104 0 -104 -94q0 -83 60 -83z" />
    <glyph glyph-name="Abreve" unicode="&#x102;" horiz-adv-x="516" 
d="M258 755q-62 0 -100 39.5t-43 101.5l69 14q19 -67 74 -67q56 0 75 67l69 -14q-5 -62 -43.5 -101.5t-100.5 -39.5zM388 0l-36 162h-191l-36 -162h-127l183 691h155l182 -691h-130zM182 258h149l-75 336z" />
    <glyph glyph-name="abreve" unicode="&#x103;" horiz-adv-x="475" 
d="M232 638q-63 0 -100.5 40t-42.5 112l69 14q17 -79 74 -79q58 0 75 79l69 -14q-5 -72 -42.5 -112t-101.5 -40zM411 130q0 -27 7.5 -40t24.5 -21l-25 -82q-83 9 -105 75q-48 -77 -136 -77q-68 0 -108.5 45t-40.5 118q0 86 55 131t160 45h47v35q0 51 -18.5 72t-61.5 21
q-49 0 -122 -27l-28 81q87 38 171 38q180 0 180 -178v-236zM211 74q51 0 79 66v111h-35q-104 0 -104 -94q0 -83 60 -83z" />
    <glyph glyph-name="Aogonek" unicode="&#x104;" horiz-adv-x="516" 
d="M454 0q-59 -28 -80.5 -54t-21.5 -55q0 -46 47 -46q24 0 52 7l-9 -82q-30 -8 -59 -8q-54 0 -88.5 29.5t-34.5 79.5q0 93 123 150l-31 141h-191l-36 -162h-127l183 691h155l182 -691h-64zM182 258h149l-75 336z" />
    <glyph glyph-name="aogonek" unicode="&#x105;" horiz-adv-x="475" 
d="M417 -13q-59 -28 -80.5 -54t-21.5 -55q0 -46 47 -46q24 0 52 7l-9 -82q-30 -8 -59 -8q-54 0 -88.5 29.5t-34.5 79.5q0 95 127 151q-25 18 -37 53q-48 -77 -136 -77q-68 0 -108.5 45t-40.5 118q0 86 55 131t160 45h47v35q0 51 -18.5 72t-61.5 21q-49 0 -122 -27l-28 81
q87 38 171 38q180 0 180 -178v-236q0 -27 7.5 -40t24.5 -21l-25 -82h-1zM211 74q51 0 79 66v111h-35q-104 0 -104 -94q0 -83 60 -83z" />
    <glyph glyph-name="Cacute" unicode="&#x106;" horiz-adv-x="496" 
d="M374 929l49 -94l-200 -82l-32 62zM304 706q97 0 177 -72l-62 -74q-54 48 -109 48q-139 0 -139 -261q0 -260 140 -260q54 0 116 53l60 -72q-73 -83 -182 -83q-123 0 -195 92t-72 270q0 175 73.5 267t192.5 92z" />
    <glyph glyph-name="cacute" unicode="&#x107;" horiz-adv-x="415" 
d="M316 813l51 -92l-199 -90l-34 60zM257 544q86 0 150 -61l-53 -71q-45 36 -89 36q-98 0 -98 -186q0 -97 25 -137.5t72 -40.5q41 0 89 34l54 -72q-64 -61 -149 -61q-103 0 -162 72.5t-59 202.5q0 132 59 208t161 76z" />
    <glyph glyph-name="Cdotaccent" unicode="&#x10a;" horiz-adv-x="496" 
d="M307 920q33 0 54 -21.5t21 -53.5q0 -33 -21 -54t-54 -21t-54 21.5t-21 53.5t21 53.5t54 21.5zM304 706q97 0 177 -72l-62 -74q-54 48 -109 48q-139 0 -139 -261q0 -260 140 -260q54 0 116 53l60 -72q-73 -83 -182 -83q-123 0 -195 92t-72 270q0 175 73.5 267t192.5 92z
" />
    <glyph glyph-name="cdotaccent" unicode="&#x10b;" horiz-adv-x="415" 
d="M254 794q33 0 54 -21.5t21 -53.5q0 -33 -21 -54t-54 -21t-54 21.5t-21 53.5t21 53.5t54 21.5zM257 544q86 0 150 -61l-53 -71q-45 36 -89 36q-98 0 -98 -186q0 -97 25 -137.5t72 -40.5q41 0 89 34l54 -72q-64 -61 -149 -61q-103 0 -162 72.5t-59 202.5q0 132 59 208
t161 76z" />
    <glyph glyph-name="Ccaron" unicode="&#x10c;" horiz-adv-x="496" 
d="M421 922l45 -48l-120 -122h-76l-120 122l46 48l112 -82zM304 706q97 0 177 -72l-62 -74q-54 48 -109 48q-139 0 -139 -261q0 -260 140 -260q54 0 116 53l60 -72q-73 -83 -182 -83q-123 0 -195 92t-72 270q0 175 73.5 267t192.5 92z" />
    <glyph glyph-name="ccaron" unicode="&#x10d;" horiz-adv-x="415" 
d="M368 796l45 -49l-120 -127h-76l-120 127l45 49l113 -89zM257 544q86 0 150 -61l-53 -71q-45 36 -89 36q-98 0 -98 -186q0 -97 25 -137.5t72 -40.5q41 0 89 34l54 -72q-64 -61 -149 -61q-103 0 -162 72.5t-59 202.5q0 132 59 208t161 76z" />
    <glyph glyph-name="Dcaron" unicode="&#x10e;" horiz-adv-x="566" 
d="M371 922l45 -48l-120 -122h-76l-120 122l46 48l112 -82zM222 691q52 0 93 -7.5t82.5 -29.5t69 -58.5t44.5 -99t17 -147.5q0 -349 -292 -349h-171v691h157zM242 596h-49v-501h51q47 0 78 19t52.5 77t21.5 158q0 77 -11.5 128t-34.5 76t-48 34t-60 9z" />
    <glyph glyph-name="dcaron" unicode="&#x10f;" horiz-adv-x="576" 
d="M334 488v266l123 -13v-741h-109l-6 63q-49 -78 -128 -78q-86 0 -131 73.5t-45 205.5q0 126 51 203t133 77q68 0 112 -56zM511 753l75 -47l-26 -165l-48 45zM248 78q49 0 86 64v254q-36 55 -80 55q-88 0 -88 -186q0 -187 82 -187z" />
    <glyph glyph-name="Dcroat" unicode="&#x110;" horiz-adv-x="582" 
d="M238 691q52 0 93 -7.5t82.5 -29.5t69 -58.5t44.5 -99t17 -147.5q0 -349 -292 -349h-171v311h-64v84h64v296h157zM260 95q47 0 78 19t52.5 77t21.5 158q0 77 -12 128t-35 76t-48 34t-60 9h-49v-201h108v-84h-108v-216h52z" />
    <glyph glyph-name="dcroat" unicode="&#x111;" horiz-adv-x="521" 
d="M512 681v-80h-55v-601h-109l-6 63q-49 -78 -128 -78q-86 0 -131 73.5t-45 205.5q0 126 51 203t133 77q68 0 112 -56v113h-123v80h123v73l123 -13v-60h55zM248 78q49 0 86 64v254q-36 55 -80 55q-88 0 -88 -186q0 -187 82 -187z" />
    <glyph glyph-name="Emacron" unicode="&#x112;" horiz-adv-x="455" 
d="M372 789h-255v85h255v-85zM421 691l-14 -95h-214v-198h187v-94h-187v-208h229v-96h-357v691h356z" />
    <glyph glyph-name="emacron" unicode="&#x113;" 
d="M375 748v-85h-255v85h255zM450 277q0 -23 -2 -51h-286q5 -81 31.5 -114t73.5 -33q58 0 115 44l51 -68q-75 -70 -174 -70q-107 0 -164.5 72.5t-57.5 202.5t55 207t155 77q97 0 150 -68.5t53 -198.5zM331 306v7q0 74 -20 109t-63 35q-40 0 -61 -34t-25 -117h169z" />
    <glyph glyph-name="Edotaccent" unicode="&#x116;" horiz-adv-x="455" 
d="M244 920q33 0 54 -21.5t21 -53.5q0 -33 -21 -54t-54 -21t-54 21.5t-21 53.5t21 53.5t54 21.5zM421 691l-14 -95h-214v-198h187v-94h-187v-208h229v-96h-357v691h356z" />
    <glyph glyph-name="edotaccent" unicode="&#x117;" 
d="M247 644q-33 0 -54 21.5t-21 53.5t21 53.5t54 21.5t54 -21.5t21 -53.5q0 -33 -21 -54t-54 -21zM450 277q0 -23 -2 -51h-286q5 -81 31.5 -114t73.5 -33q58 0 115 44l51 -68q-75 -70 -174 -70q-107 0 -164.5 72.5t-57.5 202.5t55 207t155 77q97 0 150 -68.5t53 -198.5z
M331 306v7q0 74 -20 109t-63 35q-40 0 -61 -34t-25 -117h169z" />
    <glyph glyph-name="Eogonek" unicode="&#x118;" horiz-adv-x="455" 
d="M193 96h229v-96h-34q-59 -28 -80.5 -54t-21.5 -55q0 -46 47 -46q24 0 52 7l-9 -82q-30 -8 -59 -8q-54 0 -88.5 29.5t-34.5 79.5q0 78 84 129h-213v691h356l-14 -95h-214v-198h187v-94h-187v-208z" />
    <glyph glyph-name="eogonek" unicode="&#x119;" 
d="M450 277q0 -23 -2 -51h-286q5 -81 31.5 -114t73.5 -33q58 0 115 44l51 -68q-39 -36 -84 -54q-89 -45 -89 -101q0 -47 47 -47q24 0 52 7l-9 -82q-29 -8 -59 -8q-54 0 -87.5 30t-33.5 78q0 68 68 108q-97 7 -149 79t-52 195q0 130 55 207t155 77q97 0 150 -68.5t53 -198.5z
M331 306v7q0 74 -20 109t-63 35q-40 0 -61 -34t-25 -117h169z" />
    <glyph glyph-name="Ecaron" unicode="&#x11a;" horiz-adv-x="455" 
d="M357 922l45 -48l-120 -122h-76l-120 122l46 48l112 -82zM421 691l-14 -95h-214v-198h187v-94h-187v-208h229v-96h-357v691h356z" />
    <glyph glyph-name="ecaron" unicode="&#x11b;" 
d="M285 620h-76l-120 127l45 49l113 -89l113 89l45 -49zM450 277q0 -23 -2 -51h-286q5 -81 31.5 -114t73.5 -33q58 0 115 44l51 -68q-75 -70 -174 -70q-107 0 -164.5 72.5t-57.5 202.5t55 207t155 77q97 0 150 -68.5t53 -198.5zM331 306v7q0 74 -20 109t-63 35
q-40 0 -61 -34t-25 -117h169z" />
    <glyph glyph-name="Gbreve" unicode="&#x11e;" horiz-adv-x="560" 
d="M307 755q-62 0 -100 39.5t-43 101.5l69 14q19 -67 74 -67q56 0 75 67l69 -14q-5 -62 -43.5 -101.5t-100.5 -39.5zM317 706q110 0 194 -81l-65 -67q-60 51 -124 51q-69 0 -110 -62.5t-41 -200.5q0 -142 32.5 -202.5t100.5 -60.5q48 0 89 27v185h-85l-13 95h219v-338
q-95 -66 -209 -66q-132 0 -199.5 91t-67.5 269q0 170 79.5 265t199.5 95z" />
    <glyph glyph-name="gbreve" unicode="&#x11f;" horiz-adv-x="465" 
d="M233 638q-63 0 -100.5 40t-42.5 112l69 14q17 -79 74 -79q58 0 75 79l69 -14q-5 -72 -42.5 -112t-101.5 -40zM435 598l32 -96q-42 -18 -131 -18q86 -42 86 -136q0 -80 -51 -129t-138 -49q-27 0 -54 8q-19 -16 -19 -41q0 -39 55 -39h61q82 0 130 -41.5t48 -106.5
q0 -77 -60 -122t-172 -45q-119 0 -166 41.5t-47 123.5h109q0 -43 22 -61t83 -18q108 0 108 73q0 66 -81 66h-48q-75 0 -110 27.5t-35 73.5q0 55 55 95q-82 49 -82 150q0 87 54.5 138t144.5 51q48 0 88.5 8t62.5 18t55 29zM228 460q-77 0 -77 -104q0 -51 20 -78.5t56 -27.5
q76 0 76 107q0 103 -75 103z" />
    <glyph glyph-name="Gdotaccent" unicode="&#x120;" horiz-adv-x="560" 
d="M307 920q33 0 54 -21.5t21 -53.5q0 -33 -21 -54t-54 -21t-54 21.5t-21 53.5t21 53.5t54 21.5zM317 706q110 0 194 -81l-65 -67q-60 51 -124 51q-69 0 -110 -62.5t-41 -200.5q0 -142 32.5 -202.5t100.5 -60.5q48 0 89 27v185h-85l-13 95h219v-338q-95 -66 -209 -66
q-132 0 -199.5 91t-67.5 269q0 170 79.5 265t199.5 95z" />
    <glyph glyph-name="gdotaccent" unicode="&#x121;" horiz-adv-x="465" 
d="M233 794q33 0 54 -21.5t21 -53.5q0 -33 -21 -54t-54 -21t-54 21.5t-21 53.5t21 53.5t54 21.5zM435 598l32 -96q-42 -18 -131 -18q86 -42 86 -136q0 -80 -51 -129t-138 -49q-27 0 -54 8q-19 -16 -19 -41q0 -39 55 -39h61q82 0 130 -41.5t48 -106.5q0 -77 -60 -122
t-172 -45q-119 0 -166 41.5t-47 123.5h109q0 -43 22 -61t83 -18q108 0 108 73q0 66 -81 66h-48q-75 0 -110 27.5t-35 73.5q0 55 55 95q-82 49 -82 150q0 87 54.5 138t144.5 51q48 0 88.5 8t62.5 18t55 29zM228 460q-77 0 -77 -104q0 -51 20 -78.5t56 -27.5q76 0 76 107
q0 103 -75 103z" />
    <glyph glyph-name="Gcommaaccent" unicode="&#x122;" horiz-adv-x="560" 
d="M317 706q110 0 194 -81l-65 -67q-60 51 -124 51q-69 0 -110 -62.5t-41 -200.5q0 -142 32.5 -202.5t100.5 -60.5q48 0 89 27v185h-85l-13 95h219v-338q-95 -66 -209 -66q-132 0 -199.5 91t-67.5 269q0 170 79.5 265t199.5 95zM304 -73q28 0 45.5 -18.5t17.5 -47.5
q0 -27 -22 -79l-39 -91h-63l27 115q-31 21 -31 55q0 28 18.5 47t46.5 19z" />
    <glyph glyph-name="gcommaaccent" unicode="&#x123;" horiz-adv-x="465" 
d="M227 581q-28 0 -45.5 18.5t-17.5 47.5q0 27 22 79l39 91h63l-27 -115q31 -21 31 -55q0 -28 -18.5 -47t-46.5 -19zM435 598l32 -96q-42 -18 -131 -18q86 -42 86 -136q0 -80 -51 -129t-138 -49q-27 0 -54 8q-19 -16 -19 -41q0 -39 55 -39h61q82 0 130 -41.5t48 -106.5
q0 -77 -60 -122t-172 -45q-119 0 -166 41.5t-47 123.5h109q0 -43 22 -61t83 -18q108 0 108 73q0 66 -81 66h-48q-75 0 -110 27.5t-35 73.5q0 55 55 95q-82 49 -82 150q0 87 54.5 138t144.5 51q48 0 88.5 8t62.5 18t55 29zM228 460q-77 0 -77 -104q0 -51 20 -78.5t56 -27.5
q76 0 76 107q0 103 -75 103z" />
    <glyph glyph-name="Hbar" unicode="&#x126;" horiz-adv-x="589" 
d="M570 583v-79h-50v-504h-127v310h-195v-310h-128v504h-51v79h51v108h128v-108h195v108h127v-108h50zM393 412v92h-195v-92h195z" />
    <glyph glyph-name="hbar" unicode="&#x127;" horiz-adv-x="509" 
d="M321 544q60 0 94.5 -42.5t34.5 -118.5v-383h-123v368q0 81 -48 81q-45 0 -89 -79v-370h-123v601h-58v80h58v59l123 13v-72h115v-80h-115v-136q53 79 131 79z" />
    <glyph glyph-name="Imacron" unicode="&#x12a;" horiz-adv-x="258" 
d="M256 789h-255v85h255v-85zM193 691v-691h-128v691h128z" />
    <glyph glyph-name="imacron" unicode="&#x12b;" horiz-adv-x="248" 
d="M251 663h-255v85h255v-85zM185 529v-529h-123v529h123z" />
    <glyph glyph-name="Iogonek" unicode="&#x12e;" horiz-adv-x="258" 
d="M65 691h128v-691h-25q-59 -28 -80.5 -54t-21.5 -55q0 -46 47 -46q24 0 52 7l-9 -82q-30 -8 -59 -8q-54 0 -88.5 29.5t-34.5 79.5q0 82 91 133v687z" />
    <glyph glyph-name="iogonek" unicode="&#x12f;" horiz-adv-x="248" 
d="M123 644q-33 0 -54 21.5t-21 53.5t21 53.5t54 21.5t54 -21.5t21 -53.5q0 -33 -21 -54t-54 -21zM62 3v526h123v-529h-17q-59 -28 -80.5 -54t-21.5 -55q0 -46 47 -46q24 0 52 7l-9 -82q-30 -8 -59 -8q-54 0 -88.5 29.5t-34.5 79.5q0 79 88 132z" />
    <glyph glyph-name="Idotaccent" unicode="&#x130;" horiz-adv-x="258" 
d="M128 920q33 0 54 -21.5t21 -53.5q0 -33 -21 -54t-54 -21t-54 21.5t-21 53.5t21 53.5t54 21.5zM193 691v-691h-128v691h128z" />
    <glyph glyph-name="Kcommaaccent" unicode="&#x136;" horiz-adv-x="540" 
d="M193 691v-691h-128v691h128zM530 691l-200 -313l216 -378h-143l-206 369l202 322h131zM281 -73q28 0 45.5 -18.5t17.5 -47.5q0 -27 -22 -79l-39 -91h-63l27 115q-31 21 -31 55q0 28 18.5 47t46.5 19z" />
    <glyph glyph-name="kcommaaccent" unicode="&#x137;" horiz-adv-x="471" 
d="M185 754v-754h-123v741zM463 529l-149 -233l162 -296h-134l-152 289l151 240h122zM238 -73q28 0 45.5 -18.5t17.5 -47.5q0 -27 -22 -79l-39 -91h-63l27 115q-31 21 -31 55q0 28 18.5 47t46.5 19z" />
    <glyph glyph-name="Lacute" unicode="&#x139;" horiz-adv-x="437" 
d="M196 929l49 -94l-200 -82l-32 62zM193 691v-586h234l-13 -105h-349v691h128z" />
    <glyph glyph-name="lacute" unicode="&#x13a;" horiz-adv-x="260" 
d="M185 978l49 -94l-200 -82l-32 62zM177 -15q-55 0 -87.5 33.5t-32.5 91.5v631l123 13v-639q0 -31 26 -31q8 0 23 5l25 -85q-36 -19 -77 -19z" />
    <glyph glyph-name="Lcommaaccent" unicode="&#x13b;" horiz-adv-x="437" 
d="M193 691v-586h234l-13 -105h-349v691h128zM241 -73q28 0 45.5 -18.5t17.5 -47.5q0 -27 -22 -79l-39 -91h-63l27 115q-31 21 -31 55q0 28 18.5 47t46.5 19z" />
    <glyph glyph-name="lcommaaccent" unicode="&#x13c;" horiz-adv-x="260" 
d="M177 -15q-55 0 -87.5 33.5t-32.5 91.5v631l123 13v-639q0 -31 26 -31q8 0 23 5l25 -85q-36 -19 -77 -19zM160 -73q28 0 45.5 -18.5t17.5 -47.5q0 -27 -22 -79l-39 -91h-63l27 115q-31 21 -31 55q0 28 18.5 47t46.5 19z" />
    <glyph glyph-name="Lcaron" unicode="&#x13d;" horiz-adv-x="437" 
d="M251 704l75 -47l-26 -165l-48 45zM193 691v-586h234l-13 -105h-349v691h128z" />
    <glyph glyph-name="lcaron" unicode="&#x13e;" horiz-adv-x="298" 
d="M177 -15q-55 0 -87.5 33.5t-32.5 91.5v631l123 13v-639q0 -31 26 -31q8 0 23 5l25 -85q-36 -19 -77 -19zM235 753l75 -47l-26 -165l-48 45z" />
    <glyph glyph-name="Ldot" unicode="&#x13f;" horiz-adv-x="437" 
d="M193 691v-586h234l-13 -105h-349v691h128zM343 468q33 0 54 -21.5t21 -53.5q0 -33 -21 -54t-54 -21t-54 21.5t-21 53.5t21 53.5t54 21.5z" />
    <glyph glyph-name="ldot" unicode="&#x140;" horiz-adv-x="356" 
d="M177 -15q-55 0 -87.5 33.5t-32.5 91.5v631l123 13v-639q0 -31 26 -31q8 0 23 5l25 -85q-36 -19 -77 -19zM296 452q33 0 54 -21.5t21 -53.5q0 -33 -21 -54t-54 -21t-54 21.5t-21 53.5t21 53.5t54 21.5z" />
    <glyph glyph-name="Lslash" unicode="&#x141;" horiz-adv-x="467" 
d="M223 105h234l-13 -105h-349v241l-43 -30l-42 73l82 58l3 2v347h128v-258l113 78l43 -72l-156 -109v-225z" />
    <glyph glyph-name="lslash" unicode="&#x142;" horiz-adv-x="301" 
d="M228 84q10 0 23 5l25 -85q-36 -19 -77 -19q-55 0 -87 33.5t-32 91.5v175l-38 -26l-42 69l80 56v357l123 13v-288l61 40l41 -69l-102 -69v-253q0 -31 25 -31z" />
    <glyph glyph-name="Nacute" unicode="&#x143;" horiz-adv-x="579" 
d="M361 929l49 -94l-200 -82l-32 62zM514 691v-691h-162l-191 565q17 -151 17 -276v-289h-113v691h161l192 -566q-17 113 -17 235v331h113z" />
    <glyph glyph-name="nacute" unicode="&#x144;" horiz-adv-x="504" 
d="M368 721l-199 -90l-34 60l182 122zM316 544q61 0 95 -42.5t34 -118.5v-383h-123v368q0 45 -11.5 63t-35.5 18q-46 0 -90 -79v-370h-123v529h107l10 -70q55 85 137 85z" />
    <glyph glyph-name="Ncommaaccent" unicode="&#x145;" horiz-adv-x="579" 
d="M514 691v-691h-162l-191 565q17 -151 17 -276v-289h-113v691h161l192 -566q-17 113 -17 235v331h113zM291 -73q28 0 45.5 -18.5t17.5 -47.5q0 -27 -22 -79l-39 -91h-63l27 115q-31 21 -31 55q0 28 18.5 47t46.5 19z" />
    <glyph glyph-name="ncommaaccent" unicode="&#x146;" horiz-adv-x="504" 
d="M316 544q61 0 95 -42.5t34 -118.5v-383h-123v368q0 45 -11.5 63t-35.5 18q-46 0 -90 -79v-370h-123v529h107l10 -70q55 85 137 85zM253 -73q28 0 45.5 -18.5t17.5 -47.5q0 -27 -22 -79l-39 -91h-63l27 115q-31 21 -31 55q0 28 18.5 47t46.5 19z" />
    <glyph glyph-name="Ncaron" unicode="&#x147;" horiz-adv-x="579" 
d="M407 922l45 -48l-120 -122h-76l-120 122l46 48l112 -82zM514 691v-691h-162l-191 565q17 -151 17 -276v-289h-113v691h161l192 -566q-17 113 -17 235v331h113z" />
    <glyph glyph-name="ncaron" unicode="&#x148;" horiz-adv-x="504" 
d="M294 620h-76l-120 127l45 49l113 -89l113 89l45 -49zM316 544q61 0 95 -42.5t34 -118.5v-383h-123v368q0 45 -11.5 63t-35.5 18q-46 0 -90 -79v-370h-123v529h107l10 -70q55 85 137 85z" />
    <glyph glyph-name="napostrophe" unicode="&#x149;" horiz-adv-x="613" 
d="M94 756q26 0 42.5 -17.5t16.5 -43.5q0 -18 -22 -75l-33 -85h-58l22 109q-27 19 -27 51q0 26 16.5 43.5t42.5 17.5zM425 544q61 0 95.5 -42.5t34.5 -118.5v-383h-123v368q0 81 -48 81q-46 0 -89 -79v-370h-123v529h106l10 -70q55 85 137 85z" />
    <glyph glyph-name="Eng" unicode="&#x14a;" horiz-adv-x="579" 
d="M514 691v-691v-45q0 -84 -43.5 -128t-119.5 -44q-66 0 -116 40l42 78q34 -22 61 -22q48 0 48 68v53h-34l-191 565q17 -151 17 -276v-289h-113v691h161l192 -566q-17 113 -17 235v331h113z" />
    <glyph glyph-name="eng" unicode="&#x14b;" horiz-adv-x="504" 
d="M445 1h1v-46q0 -83 -43.5 -127.5t-117.5 -44.5q-66 0 -116 40l44 72q33 -19 58 -19q52 0 52 67v57h-1v368q0 45 -11.5 63t-35.5 18q-46 0 -90 -79v-370h-123v529h107l10 -70q55 85 137 85q61 0 95 -42.5t34 -118.5v-382z" />
    <glyph glyph-name="Omacron" unicode="&#x14c;" horiz-adv-x="604" 
d="M429 789h-255v85h255v-85zM302 706q126 0 195 -90.5t69 -269.5q0 -177 -69.5 -269t-194.5 -92t-194.5 90.5t-69.5 269.5q0 176 70 268.5t194 92.5zM302 608q-66 0 -98.5 -61t-32.5 -202q0 -142 33 -202t98 -60q66 0 98.5 60t32.5 203q0 140 -32.5 201t-98.5 61z" />
    <glyph glyph-name="omacron" unicode="&#x14d;" horiz-adv-x="512" 
d="M383 663h-255v85h255v-85zM256 544q103 0 160.5 -71.5t57.5 -207.5q0 -131 -58 -205.5t-160 -74.5q-104 0 -161.5 72.5t-57.5 207.5q0 133 58 206t161 73zM256 450q-46 0 -68.5 -43.5t-22.5 -141.5q0 -100 22.5 -143t68.5 -43t68 43.5t22 142.5t-22 142t-68 43z" />
    <glyph glyph-name="Ohungarumlaut" unicode="&#x150;" horiz-adv-x="604" 
d="M267 969l86 -43l-94 -165l-64 27zM413 969l85 -45l-102 -168l-63 29zM302 706q126 0 195 -90.5t69 -269.5q0 -177 -69.5 -269t-194.5 -92t-194.5 90.5t-69.5 269.5q0 176 70 268.5t194 92.5zM302 608q-66 0 -98.5 -61t-32.5 -202q0 -142 33 -202t98 -60q66 0 98.5 60
t32.5 203q0 140 -32.5 201t-98.5 61z" />
    <glyph glyph-name="ohungarumlaut" unicode="&#x151;" horiz-adv-x="512" 
d="M218 843l86 -43l-94 -165l-64 27zM364 843l85 -45l-102 -168l-63 29zM256 544q103 0 160.5 -71.5t57.5 -207.5q0 -131 -58 -205.5t-160 -74.5q-104 0 -161.5 72.5t-57.5 207.5q0 133 58 206t161 73zM256 450q-46 0 -68.5 -43.5t-22.5 -141.5q0 -100 22.5 -143t68.5 -43
t68 43.5t22 142.5t-22 142t-68 43z" />
    <glyph glyph-name="OE" unicode="&#x152;" horiz-adv-x="783" 
d="M747 96v-96h-380q-36 -15 -79 -15q-114 0 -182 93.5t-68 266.5q0 172 68 266.5t182 94.5q43 0 79 -15h379l-14 -95h-253q58 -74 67 -197h159v-95h-158q-9 -130 -71 -208h271zM293 83q60 0 91.5 61.5t31.5 201.5q0 262 -123 262q-122 0 -122 -263q0 -262 122 -262z" />
    <glyph glyph-name="oe" unicode="&#x153;" horiz-adv-x="787" 
d="M757 277q0 -23 -2 -51h-286q11 -147 107 -147q58 0 114 44l52 -67q-76 -71 -174 -71q-104 0 -162 90q-58 -90 -155 -90q-101 0 -158.5 73t-57.5 207q0 129 58 204t160 75q95 0 155 -87q57 87 151 87q92 0 145 -69.5t53 -197.5zM638 306v7q0 143 -81 143q-80 0 -88 -150
h169zM253 79q46 0 68 44.5t22 141.5q0 185 -89 185q-46 0 -68.5 -43.5t-22.5 -141.5q0 -99 22 -142.5t68 -43.5z" />
    <glyph glyph-name="Racute" unicode="&#x154;" horiz-adv-x="533" 
d="M381 835l-200 -82l-32 62l183 114zM389 0l-130 279h-66v-279h-128v691h173q254 0 254 -203q0 -68 -28.5 -112t-90.5 -71l155 -305h-139zM193 371h51q60 0 88 28t28 89q0 57 -29 83.5t-94 26.5h-44v-227z" />
    <glyph glyph-name="racute" unicode="&#x155;" horiz-adv-x="345" 
d="M317 721l-199 -90l-34 60l182 122zM300 543q21 0 44 -7l-21 -119q-20 6 -39 6q-40 0 -63 -32.5t-36 -97.5v-293h-123v529h107l10 -94q39 108 121 108z" />
    <glyph glyph-name="Rcommaaccent" unicode="&#x156;" horiz-adv-x="533" 
d="M373 305l155 -305h-139l-130 279h-66v-279h-128v691h173q254 0 254 -203q0 -68 -28.5 -112t-90.5 -71zM193 371h51q60 0 88 28t28 89q0 57 -29 83.5t-94 26.5h-44v-227zM271 -73q28 0 45.5 -18.5t17.5 -47.5q0 -27 -22 -79l-39 -91h-63l27 115q-31 21 -31 55
q0 28 18.5 47t46.5 19z" />
    <glyph glyph-name="rcommaaccent" unicode="&#x157;" horiz-adv-x="345" 
d="M300 543q21 0 44 -7l-21 -119q-20 6 -39 6q-40 0 -63 -32.5t-36 -97.5v-293h-123v529h107l10 -94q39 108 121 108zM125 -73q28 0 45.5 -18.5t17.5 -47.5q0 -27 -22 -79l-39 -91h-63l27 115q-31 21 -31 55q0 28 18.5 47t46.5 19z" />
    <glyph glyph-name="Rcaron" unicode="&#x158;" horiz-adv-x="533" 
d="M303 752h-76l-120 122l46 48l112 -82l113 82l45 -48zM389 0l-130 279h-66v-279h-128v691h173q254 0 254 -203q0 -68 -28.5 -112t-90.5 -71l155 -305h-139zM193 371h51q60 0 88 28t28 89q0 57 -29 83.5t-94 26.5h-44v-227z" />
    <glyph glyph-name="rcaron" unicode="&#x159;" horiz-adv-x="345" 
d="M242 620h-76l-120 127l45 49l113 -89l113 89l45 -49zM179 435q39 108 121 108q21 0 44 -7l-21 -119q-20 6 -39 6q-40 0 -63 -32.5t-36 -97.5v-293h-123v529h107z" />
    <glyph glyph-name="Sacute" unicode="&#x15a;" horiz-adv-x="486" 
d="M315 929l49 -94l-200 -82l-32 62zM244 706q118 0 200 -85l-61 -69q-62 56 -129 56q-41 0 -65 -22.5t-24 -61.5q0 -38 24.5 -62t95.5 -50q89 -35 132 -81.5t43 -133.5q0 -92 -62.5 -152t-167.5 -60q-130 0 -221 94l65 70q74 -66 149 -66q49 0 77 28.5t28 77.5
q0 44 -24.5 70.5t-89.5 50.5q-95 36 -137.5 83.5t-42.5 121.5q0 84 59.5 137.5t150.5 53.5z" />
    <glyph glyph-name="sacute" unicode="&#x15b;" horiz-adv-x="415" 
d="M274 813l51 -92l-199 -90l-34 60zM212 544q97 0 166 -63l-47 -69q-58 41 -111 41q-31 0 -48.5 -15.5t-17.5 -41.5q0 -27 19.5 -43.5t77.5 -37.5q72 -26 107 -63.5t35 -99.5q0 -78 -56 -122.5t-142 -44.5q-111 0 -185 74l60 67q58 -50 121 -50q35 0 55.5 17.5t20.5 48.5
q0 33 -20 51.5t-81 40.5q-72 26 -103.5 62.5t-31.5 92.5q0 67 49.5 111t131.5 44z" />
    <glyph glyph-name="Scedilla" unicode="&#x15e;" horiz-adv-x="486" 
d="M460 197q0 -82 -50.5 -139.5t-137.5 -69.5v-43q87 -13 87 -90q0 -49 -33.5 -77t-89.5 -28q-54 0 -92 26l30 58q26 -13 54 -13q40 0 40 34q0 40 -78 40l10 92q-110 8 -191 92l65 70q74 -66 149 -66q49 0 77 28.5t28 77.5q0 44 -24.5 70.5t-89.5 50.5q-95 36 -137.5 83.5
t-42.5 121.5q0 84 59.5 137.5t150.5 53.5q118 0 200 -85l-61 -69q-62 56 -129 56q-41 0 -65 -22.5t-24 -61.5q0 -38 24.5 -62t95.5 -50q89 -35 132 -81.5t43 -133.5z" />
    <glyph glyph-name="scedilla" unicode="&#x15f;" horiz-adv-x="415" 
d="M393 152q0 -67 -42 -109.5t-110 -53.5v-44q87 -13 87 -90q0 -49 -33.5 -77t-89.5 -28q-54 0 -92 26l30 58q26 -13 54 -13q40 0 40 34q0 40 -78 40l10 92q-94 7 -159 72l60 67q58 -50 121 -50q35 0 55.5 17.5t20.5 48.5q0 33 -20 51.5t-81 40.5q-72 26 -103.5 62.5
t-31.5 92.5q0 67 49.5 111t131.5 44q97 0 166 -63l-47 -69q-58 41 -111 41q-31 0 -48.5 -15.5t-17.5 -41.5q0 -27 19.5 -43.5t77.5 -37.5q72 -26 107 -63.5t35 -99.5z" />
    <glyph glyph-name="Scaron" unicode="&#x160;" horiz-adv-x="486" 
d="M361 922l45 -48l-120 -122h-76l-120 122l46 48l112 -82zM244 706q118 0 200 -85l-61 -69q-62 56 -129 56q-41 0 -65 -22.5t-24 -61.5q0 -38 24.5 -62t95.5 -50q89 -35 132 -81.5t43 -133.5q0 -92 -62.5 -152t-167.5 -60q-130 0 -221 94l65 70q74 -66 149 -66
q49 0 77 28.5t28 77.5q0 44 -24.5 70.5t-89.5 50.5q-95 36 -137.5 83.5t-42.5 121.5q0 84 59.5 137.5t150.5 53.5z" />
    <glyph glyph-name="scaron" unicode="&#x161;" horiz-adv-x="415" 
d="M326 796l45 -49l-120 -127h-76l-120 127l45 49l113 -89zM212 544q97 0 166 -63l-47 -69q-58 41 -111 41q-31 0 -48.5 -15.5t-17.5 -41.5q0 -27 19.5 -43.5t77.5 -37.5q72 -26 107 -63.5t35 -99.5q0 -78 -56 -122.5t-142 -44.5q-111 0 -185 74l60 67q58 -50 121 -50
q35 0 55.5 17.5t20.5 48.5q0 33 -20 51.5t-81 40.5q-72 26 -103.5 62.5t-31.5 92.5q0 67 49.5 111t131.5 44z" />
    <glyph glyph-name="uni0162" unicode="&#x162;" horiz-adv-x="460" 
d="M444 591h-151v-575h1v-68q43 -5 65.5 -30t22.5 -62q0 -50 -33.5 -78t-90.5 -28q-56 0 -91 26l29 62q29 -17 52 -17q44 0 44 36q0 38 -79 38l11 105h-58v591h-157v100h448z" />
    <glyph glyph-name="uni0163" unicode="&#x163;" horiz-adv-x="329" 
d="M236 -55q87 -13 87 -90q0 -49 -33.5 -77t-89.5 -28q-54 0 -92 26l30 58q26 -13 54 -13q40 0 40 34q0 40 -78 40l10 97q-92 29 -92 145v303h-67v89h67v117l123 15v-132h105l-12 -89h-93v-302q0 -54 46 -54q21 0 51 16l43 -76q-41 -31 -99 -38v-41z" />
    <glyph glyph-name="Tcaron" unicode="&#x164;" horiz-adv-x="460" 
d="M343 922l45 -48l-120 -122h-76l-120 122l46 48l112 -82zM457 691l-13 -100h-151v-591h-127v591h-157v100h448z" />
    <glyph glyph-name="tcaron" unicode="&#x165;" horiz-adv-x="329" 
d="M284 564l-48 45l-1 167l75 -47zM292 100l43 -76q-51 -39 -119 -39q-70 0 -107 40.5t-37 111.5v303h-67v89h67v117l123 15v-132h105l-12 -89h-93v-302q0 -54 46 -54q21 0 51 16z" />
    <glyph glyph-name="Tbar" unicode="&#x166;" horiz-adv-x="460" 
d="M444 589h-151v-201h101v-80h-101v-309h-127v309h-101v80h101v201h-157v101h448z" />
    <glyph glyph-name="tbar" unicode="&#x167;" horiz-adv-x="329" 
d="M292 100l43 -76q-51 -39 -119 -39q-70 0 -107 40.5t-37 111.5v136h-61v86h61v81h-67v89h67v117l123 15v-132h105l-12 -89h-93v-81h89v-86h-89v-135q0 -54 46 -54q21 0 51 16z" />
    <glyph glyph-name="Umacron" unicode="&#x16a;" horiz-adv-x="564" 
d="M409 789h-255v85h255v-85zM509 691v-486q0 -98 -58.5 -158.5t-168.5 -60.5q-111 0 -169 59.5t-58 159.5v486h128v-479q0 -65 24 -96t75 -31q99 0 99 127v479h128z" />
    <glyph glyph-name="umacron" unicode="&#x16b;" horiz-adv-x="500" 
d="M376 663h-255v85h255v-85zM438 529v-529h-108l-6 69q-50 -84 -136 -84q-60 0 -95 41.5t-35 110.5v392h123v-384q0 -67 48 -67t86 72v379h123z" />
    <glyph glyph-name="Uring" unicode="&#x16e;" horiz-adv-x="564" 
d="M283 977q52 0 83 -33t31 -85q0 -53 -31 -85.5t-83 -32.5q-53 0 -84 32.5t-31 85.5q0 52 31 85t84 33zM283 914q-42 0 -42 -55t42 -55q41 0 41 55t-41 55zM509 691v-486q0 -98 -58.5 -158.5t-168.5 -60.5q-111 0 -169 59.5t-58 159.5v486h128v-479q0 -65 24 -96t75 -31
q99 0 99 127v479h128z" />
    <glyph glyph-name="uring" unicode="&#x16f;" horiz-adv-x="500" 
d="M249 851q52 0 83 -33t31 -85q0 -53 -31 -85.5t-83 -32.5q-53 0 -84 32.5t-31 85.5q0 52 31 85t84 33zM249 788q-42 0 -42 -55t42 -55q41 0 41 55t-41 55zM438 529v-529h-108l-6 69q-50 -84 -136 -84q-60 0 -95 41.5t-35 110.5v392h123v-384q0 -67 48 -67t86 72v379h123z
" />
    <glyph glyph-name="Uhungarumlaut" unicode="&#x170;" horiz-adv-x="564" 
d="M246 969l86 -43l-94 -165l-64 27zM392 969l85 -45l-102 -168l-63 29zM509 691v-486q0 -98 -58.5 -158.5t-168.5 -60.5q-111 0 -169 59.5t-58 159.5v486h128v-479q0 -65 24 -96t75 -31q99 0 99 127v479h128z" />
    <glyph glyph-name="uhungarumlaut" unicode="&#x171;" horiz-adv-x="500" 
d="M211 843l86 -43l-94 -165l-64 27zM357 843l85 -45l-102 -168l-63 29zM438 529v-529h-108l-6 69q-50 -84 -136 -84q-60 0 -95 41.5t-35 110.5v392h123v-384q0 -67 48 -67t86 72v379h123z" />
    <glyph glyph-name="Uogonek" unicode="&#x172;" horiz-adv-x="564" 
d="M381 691h128v-486q0 -75 -36 -130t-104 -77q-98 -47 -98 -106q0 -47 47 -47q24 0 52 7l-9 -82q-29 -8 -59 -8q-54 0 -87.5 30t-33.5 78q0 75 82 116q-101 5 -154.5 64.5t-53.5 154.5v486h128v-479q0 -65 24 -96t75 -31q99 0 99 127v479z" />
    <glyph glyph-name="uogonek" unicode="&#x173;" horiz-adv-x="500" 
d="M315 529h123v-529h-1q-59 -28 -80.5 -54t-21.5 -55q0 -46 47 -46q24 0 52 7l-9 -82q-30 -8 -59 -8q-54 0 -88.5 29.5t-34.5 79.5q0 80 87 131l-6 67q-50 -84 -136 -84q-60 0 -95 41.5t-35 110.5v392h123v-384q0 -67 48 -67t86 72v379z" />
    <glyph glyph-name="Wcircumflex" unicode="&#x174;" horiz-adv-x="732" 
d="M253 760l-45 48l121 122h75l120 -122l-45 -48l-113 82zM717 691l-104 -691h-166l-82 556l-85 -556h-163l-102 691h123l71 -589l90 589h135l88 -589l77 589h118z" />
    <glyph glyph-name="wcircumflex" unicode="&#x175;" horiz-adv-x="648" 
d="M212 630l-45 49l120 127h76l120 -127l-45 -49l-113 88zM636 529l-96 -529h-151l-65 418l-64 -418h-149l-99 529h120l59 -438l73 438h125l70 -438l62 438h115z" />
    <glyph glyph-name="Ycircumflex" unicode="&#x176;" horiz-adv-x="502" 
d="M137 760l-45 48l121 122h75l120 -122l-45 -48l-113 82zM506 691l-191 -428v-263h-128v262l-191 429h135l122 -325l122 325h131z" />
    <glyph glyph-name="ycircumflex" unicode="&#x177;" horiz-adv-x="448" 
d="M110 630l-45 49l120 127h76l120 -127l-45 -49l-113 88zM446 529l-148 -531q-54 -197 -245 -215l-14 88q66 12 98 40.5t52 88.5h-46l-141 529h125l96 -447l100 447h123z" />
    <glyph glyph-name="Ydieresis" unicode="&#x178;" horiz-adv-x="502" 
d="M158 908q28 0 46.5 -19.5t18.5 -47.5q0 -29 -18.5 -48t-46.5 -19t-47 19t-19 48q0 28 19 47.5t47 19.5zM352 908q29 0 47.5 -19.5t18.5 -47.5q0 -29 -18.5 -48t-47.5 -19q-28 0 -47 19.5t-19 47.5t19 47.5t47 19.5zM506 691l-191 -428v-263h-128v262l-191 429h135
l122 -325l122 325h131z" />
    <glyph glyph-name="Zacute" unicode="&#x179;" horiz-adv-x="460" 
d="M303 929l49 -94l-200 -82l-32 62zM434 691v-99l-278 -488h281l-13 -104h-407v98l279 491h-251v102h389z" />
    <glyph glyph-name="zacute" unicode="&#x17a;" horiz-adv-x="391" 
d="M260 813l51 -92l-199 -90l-34 60zM370 529v-89l-221 -343h225l-12 -97h-348v89l222 343h-203v97h337z" />
    <glyph glyph-name="Zdotaccent" unicode="&#x17b;" horiz-adv-x="460" 
d="M236 920q33 0 54 -21.5t21 -53.5q0 -33 -21 -54t-54 -21t-54 21.5t-21 53.5t21 53.5t54 21.5zM434 691v-99l-278 -488h281l-13 -104h-407v98l279 491h-251v102h389z" />
    <glyph glyph-name="zdotaccent" unicode="&#x17c;" horiz-adv-x="391" 
d="M198 794q33 0 54 -21.5t21 -53.5q0 -33 -21 -54t-54 -21t-54 21.5t-21 53.5t21 53.5t54 21.5zM370 529v-89l-221 -343h225l-12 -97h-348v89l222 343h-203v97h337z" />
    <glyph glyph-name="Zcaron" unicode="&#x17d;" horiz-adv-x="460" 
d="M349 922l45 -48l-120 -122h-76l-120 122l46 48l112 -82zM434 691v-99l-278 -488h281l-13 -104h-407v98l279 491h-251v102h389z" />
    <glyph glyph-name="zcaron" unicode="&#x17e;" horiz-adv-x="391" 
d="M312 796l45 -49l-120 -127h-76l-120 127l45 49l113 -89zM370 529v-89l-221 -343h225l-12 -97h-348v89l222 343h-203v97h337z" />
    <glyph glyph-name="florin" unicode="&#x192;" horiz-adv-x="317" 
d="M264 660q-61 0 -61 -63v-68h110l-14 -89h-96v-357v-38q0 -111 -42.5 -166t-131.5 -95l-40 89q49 27 70 59.5t21 105.5v402h-69v89h69v65q0 73 43.5 116.5t125.5 43.5q69 0 127 -30l-34 -81q-40 17 -78 17z" />
    <glyph glyph-name="Scommaaccent" unicode="&#x218;" horiz-adv-x="486" 
d="M244 706q118 0 200 -85l-61 -69q-62 56 -129 56q-41 0 -65 -22.5t-24 -61.5q0 -38 24.5 -62t95.5 -50q89 -35 132 -81.5t43 -133.5q0 -92 -62.5 -152t-167.5 -60q-130 0 -221 94l65 70q74 -66 149 -66q49 0 77 28.5t28 77.5q0 44 -24.5 70.5t-89.5 50.5
q-95 36 -137.5 83.5t-42.5 121.5q0 84 59.5 137.5t150.5 53.5zM240 -73q28 0 45.5 -18.5t17.5 -47.5q0 -27 -22 -79l-39 -91h-63l27 115q-31 21 -31 55q0 28 18.5 47t46.5 19z" />
    <glyph glyph-name="scommaaccent" unicode="&#x219;" horiz-adv-x="415" 
d="M212 544q97 0 166 -63l-47 -69q-58 41 -111 41q-31 0 -48.5 -15.5t-17.5 -41.5q0 -27 19.5 -43.5t77.5 -37.5q72 -26 107 -63.5t35 -99.5q0 -78 -56 -122.5t-142 -44.5q-111 0 -185 74l60 67q58 -50 121 -50q35 0 55.5 17.5t20.5 48.5q0 33 -20 51.5t-81 40.5
q-72 26 -103.5 62.5t-31.5 92.5q0 67 49.5 111t131.5 44zM209 -73q28 0 45.5 -18.5t17.5 -47.5q0 -27 -22 -79l-39 -91h-63l27 115q-31 21 -31 55q0 28 18.5 47t46.5 19z" />
    <glyph glyph-name="uni021A" unicode="&#x21a;" horiz-adv-x="460" 
d="M457 691l-13 -100h-151v-591h-127v591h-157v100h448zM231 -73q28 0 45.5 -18.5t17.5 -47.5q0 -27 -22 -79l-39 -91h-63l27 115q-31 21 -31 55q0 28 18.5 47t46.5 19z" />
    <glyph glyph-name="uni021B" unicode="&#x21b;" horiz-adv-x="329" 
d="M335 24q-51 -39 -119 -39q-70 0 -107 40.5t-37 111.5v303h-67v89h67v117l123 15v-132h105l-12 -89h-93v-302q0 -54 46 -54q21 0 51 16zM203 -73q28 0 45.5 -18.5t17.5 -47.5q0 -27 -22 -79l-39 -91h-63l27 115q-31 21 -31 55q0 28 18.5 47t46.5 19z" />
    <glyph glyph-name="circumflex" unicode="&#x2c6;" horiz-adv-x="376" 
d="M79 630l-45 49l120 127h76l120 -127l-45 -49l-113 88z" />
    <glyph glyph-name="caron" unicode="&#x2c7;" horiz-adv-x="376" 
d="M305 796l45 -49l-120 -127h-76l-120 127l45 49l113 -89z" />
    <glyph glyph-name="uni02D4" unicode="&#x2d4;" horiz-adv-x="362" 
d="M318 257v-73h-274v73h97v153h79v-153h98z" />
    <glyph glyph-name="uni02D6" unicode="&#x2d6;" horiz-adv-x="414" 
d="M253 477v-135h117v-88h-117v-134h-92v134h-117v88h117v135h92z" />
    <glyph glyph-name="uni02D7" unicode="&#x2d7;" horiz-adv-x="406" 
d="M44 256v86h319v-86h-319z" />
    <glyph glyph-name="breve" unicode="&#x2d8;" horiz-adv-x="347" 
d="M177 638q-63 0 -100.5 40t-42.5 112l69 14q17 -79 74 -79q58 0 75 79l69 -14q-5 -72 -43 -112t-101 -40z" />
    <glyph glyph-name="dotaccent" unicode="&#x2d9;" horiz-adv-x="210" 
d="M110 794q33 0 54 -21.5t21 -53.5q0 -33 -21 -54t-54 -21t-54 21t-21 54q0 32 21 53.5t54 21.5z" />
    <glyph glyph-name="ring" unicode="&#x2da;" horiz-adv-x="289" 
d="M148 851q53 0 84 -33t31 -85q0 -53 -31 -85.5t-84 -32.5q-52 0 -83 32.5t-31 85.5q0 52 31 85t83 33zM148 788q-41 0 -41 -55t41 -55q42 0 42 55t-42 55z" />
    <glyph glyph-name="ogonek" unicode="&#x2db;" horiz-adv-x="254" 
d="M238 41l19 -41q-59 -28 -80.5 -53.5t-21.5 -55.5q0 -46 47 -46q23 0 51 7l-9 -82q-29 -8 -59 -8q-54 0 -88 29.5t-34 79.5q0 59 45 99.5t130 70.5z" />
    <glyph glyph-name="tilde" unicode="&#x2dc;" horiz-adv-x="375" 
d="M243 649q-27 0 -58 21.5t-43 21.5q-15 0 -25 -10t-21 -33l-62 30q37 100 105 100q27 0 58.5 -22t44.5 -22q22 0 44 43l63 -30q-35 -99 -106 -99z" />
    <glyph glyph-name="hungarumlaut" unicode="&#x2dd;" horiz-adv-x="363" 
d="M104 843l85 -43l-94 -165l-63 27zM249 843l85 -45l-101 -168l-63 29z" />
    <glyph glyph-name="uni02DE" unicode="&#x2de;" horiz-adv-x="450" 
d="M258 210q-59 0 -92.5 33.5t-38.5 93.5l-1 7l-100 -64v89l95 60h104v-65q0 -63 47 -63q25 0 56 19l36 -72q-48 -38 -106 -38z" />
    <glyph glyph-name="uni02E0" unicode="&#x2e0;" horiz-adv-x="306" 
d="M277 665l-90 -228q31 -50 31 -86q0 -28 -16.5 -44.5t-47.5 -16.5t-48 16t-17 45q0 38 32 87l-91 227h72l52 -183l52 183h71zM166 354q0 18 -12 45q-12 -29 -12 -45q0 -14 12 -14t12 14z" />
    <glyph glyph-name="uni02E4" unicode="&#x2e4;" horiz-adv-x="281" 
d="M185 400h-70v144l-14 5q-39 14 -57 38t-18 70q0 55 36 88.5t91 33.5t102 -44l-35 -44q-33 27 -65 27q-25 0 -40.5 -16t-15.5 -45q0 -31 14 -46t45 -25l27 -8v-178z" />
    <glyph glyph-name="uni02E5" unicode="&#x2e5;" horiz-adv-x="313" 
d="M199 0v610h-173v81h261v-691h-88z" />
    <glyph glyph-name="uni02E6" unicode="&#x2e6;" horiz-adv-x="313" 
d="M199 691h88v-691h-88v455h-173v82h173v154z" />
    <glyph glyph-name="uni02E7" unicode="&#x2e7;" horiz-adv-x="313" 
d="M199 691h88v-691h-88v305h-173v82h173v304z" />
    <glyph glyph-name="uni02E8" unicode="&#x2e8;" horiz-adv-x="313" 
d="M199 691h88v-691h-88v155h-173v82h173v454z" />
    <glyph glyph-name="uni02E9" unicode="&#x2e9;" horiz-adv-x="313" 
d="M199 691h88v-691h-261v81h173v610z" />
    <glyph glyph-name="uni02EE" unicode="&#x2ee;" horiz-adv-x="375" 
d="M102 753q27 0 44 -18t17 -45q0 -20 -20 -69l-51 -122h-57l32 138q-27 21 -27 52q0 27 17.5 45.5t44.5 18.5zM275 753q28 0 44.5 -18t16.5 -45q0 -22 -19 -69l-51 -122h-57l31 138q-27 22 -27 52q0 27 17.5 45.5t44.5 18.5z" />
    <glyph glyph-name="gravecomb" unicode="&#x300;" horiz-adv-x="0" 
d="M-213 813l183 -122l-35 -60l-198 90z" />
    <glyph glyph-name="acutecomb" unicode="&#x301;" horiz-adv-x="0" 
d="M-81 813l51 -92l-199 -90l-34 60z" />
    <glyph glyph-name="uni0302" unicode="&#x302;" horiz-adv-x="0" 
d="M-301 630l-45 49l120 127h76l120 -127l-45 -49l-113 88z" />
    <glyph glyph-name="tildecomb" unicode="&#x303;" horiz-adv-x="0" 
d="M-135 649q-28 0 -59 21.5t-43 21.5q-25 0 -46 -43l-62 30q37 100 105 100q27 0 58.5 -22t44.5 -22q23 0 44 43l63 -30q-35 -99 -105 -99z" />
    <glyph glyph-name="uni0304" unicode="&#x304;" horiz-adv-x="0" 
d="M-30 663h-255v85h255v-85z" />
    <glyph glyph-name="uni0306" unicode="&#x306;" horiz-adv-x="0" 
d="M-174 638q-63 0 -100.5 40t-42.5 112l69 14q17 -79 74 -79q58 0 75 79l69 -14q-5 -72 -42.5 -112t-101.5 -40z" />
    <glyph glyph-name="uni0307" unicode="&#x307;" horiz-adv-x="0" 
d="M-105 794q33 0 54 -21.5t21 -53.5q0 -33 -21 -54t-54 -21t-54 21.5t-21 53.5t21 53.5t54 21.5z" />
    <glyph glyph-name="uni0308" unicode="&#x308;" horiz-adv-x="0" 
d="M-290 782q28 0 46.5 -19.5t18.5 -47.5q0 -29 -18.5 -48t-46.5 -19t-47 19t-19 48q0 28 19 47.5t47 19.5zM-96 782q29 0 47.5 -19.5t18.5 -47.5q0 -29 -18.5 -48t-47.5 -19q-28 0 -47 19.5t-19 47.5t19 47.5t47 19.5z" />
    <glyph glyph-name="uni030A" unicode="&#x30a;" horiz-adv-x="0" 
d="M-144 851q52 0 83 -33t31 -85q0 -53 -31 -85.5t-83 -32.5q-53 0 -84 32.5t-31 85.5q0 52 31 85t84 33zM-144 788q-42 0 -42 -55t42 -55q41 0 41 55t-41 55z" />
    <glyph glyph-name="uni030B" unicode="&#x30b;" horiz-adv-x="0" 
d="M-261 843l86 -43l-94 -165l-64 27zM-115 843l85 -45l-102 -168l-63 29z" />
    <glyph glyph-name="uni030C" unicode="&#x30c;" horiz-adv-x="0" 
d="M-75 796l45 -49l-120 -127h-76l-120 127l45 49l113 -89z" />
    <glyph glyph-name="uni0312" unicode="&#x312;" horiz-adv-x="0" 
d="M-100 580q-27 0 -45 19t-18 47q0 25 22 80l39 91h63l-27 -115q31 -20 31 -56q0 -28 -18 -47t-47 -19z" />
    <glyph glyph-name="uni0326" unicode="&#x326;" horiz-adv-x="0" 
d="M-93 -73q28 0 45.5 -18.5t17.5 -47.5q0 -27 -22 -79l-39 -91h-63l27 115q-31 21 -31 55q0 28 18.5 47t46.5 19z" />
    <glyph glyph-name="uni0327" unicode="&#x327;" horiz-adv-x="0" 
d="M-117 16v-71q87 -13 87 -90q0 -49 -33.5 -77t-89.5 -28q-54 0 -92 26l30 58q26 -13 54 -13q40 0 40 34q0 40 -78 40l13 121h69z" />
    <glyph glyph-name="uni0328" unicode="&#x328;" horiz-adv-x="0" 
d="M-49 41l19 -41q-59 -28 -80.5 -54t-21.5 -55q0 -46 47 -46q24 0 52 7l-9 -82q-30 -8 -59 -8q-54 0 -88.5 29.5t-34.5 79.5q0 59 45 99.5t130 70.5z" />
    <glyph glyph-name="uni0374" unicode="&#x374;" horiz-adv-x="279" 
d="M48 421l69 270h114l-101 -270h-82z" />
    <glyph glyph-name="uni0375" unicode="&#x375;" horiz-adv-x="279" 
d="M231 136l-69 -270h-114l102 270h81z" />
    <glyph glyph-name="uni037E" unicode="&#x37e;" horiz-adv-x="221" 
d="M110 498q34 0 55.5 -23t21.5 -55t-21.5 -55.5t-55.5 -23.5t-55 23t-21 56q0 32 21.5 55t54.5 23zM109 142q32 0 53 -22t21 -55q0 -26 -25 -89l-56 -147h-71l38 170q-35 24 -35 66q0 33 21 55t54 22z" />
    <glyph glyph-name="anoteleia" unicode="&#x387;" horiz-adv-x="221" 
d="M110 387q34 0 55.5 -23t21.5 -55t-21.5 -55.5t-55.5 -23.5t-55 23t-21 56q0 32 21.5 55t54.5 23z" />
    <glyph glyph-name="uni03F6" unicode="&#x3f6;" horiz-adv-x="422" 
d="M177 544q98 0 153 -71t55 -209q0 -134 -56.5 -206t-160.5 -72q-89 0 -155 58l55 71q50 -36 94 -36q93 0 99 151h-170v80h170q-4 78 -26.5 109.5t-66.5 31.5q-50 0 -96 -38l-53 71q68 60 158 60z" />
    <glyph glyph-name="Wgrave" unicode="&#x1e80;" horiz-adv-x="732" 
d="M295 929l184 -114l-31 -62l-201 82zM717 691l-104 -691h-166l-82 556l-85 -556h-163l-102 691h123l71 -589l90 589h135l88 -589l77 589h118z" />
    <glyph glyph-name="wgrave" unicode="&#x1e81;" horiz-adv-x="648" 
d="M268 813l183 -122l-35 -60l-198 90zM636 529l-96 -529h-151l-65 418l-64 -418h-149l-99 529h120l59 -438l73 438h125l70 -438l62 438h115z" />
    <glyph glyph-name="Wacute" unicode="&#x1e82;" horiz-adv-x="732" 
d="M434 929l49 -94l-200 -82l-32 62zM717 691l-104 -691h-166l-82 556l-85 -556h-163l-102 691h123l71 -589l90 589h135l88 -589l77 589h118z" />
    <glyph glyph-name="wacute" unicode="&#x1e83;" horiz-adv-x="648" 
d="M387 813l51 -92l-199 -90l-34 60zM636 529l-96 -529h-151l-65 418l-64 -418h-149l-99 529h120l59 -438l73 438h125l70 -438l62 438h115z" />
    <glyph glyph-name="Wdieresis" unicode="&#x1e84;" horiz-adv-x="732" 
d="M274 908q28 0 46.5 -19.5t18.5 -47.5q0 -29 -18.5 -48t-46.5 -19t-47 19t-19 48q0 28 19 47.5t47 19.5zM468 908q29 0 47.5 -19.5t18.5 -47.5q0 -29 -18.5 -48t-47.5 -19q-28 0 -47 19.5t-19 47.5t19 47.5t47 19.5zM717 691l-104 -691h-166l-82 556l-85 -556h-163
l-102 691h123l71 -589l90 589h135l88 -589l77 589h118z" />
    <glyph glyph-name="wdieresis" unicode="&#x1e85;" horiz-adv-x="648" 
d="M228 782q28 0 46.5 -19.5t18.5 -47.5q0 -29 -18.5 -48t-46.5 -19t-47 19t-19 48q0 28 19 47.5t47 19.5zM422 782q29 0 47.5 -19.5t18.5 -47.5q0 -29 -18.5 -48t-47.5 -19q-28 0 -47 19.5t-19 47.5t19 47.5t47 19.5zM636 529l-96 -529h-151l-65 418l-64 -418h-149l-99 529
h120l59 -438l73 438h125l70 -438l62 438h115z" />
    <glyph glyph-name="Ygrave" unicode="&#x1ef2;" horiz-adv-x="502" 
d="M178 929l184 -114l-31 -62l-201 82zM506 691l-191 -428v-263h-128v262l-191 429h135l122 -325l122 325h131z" />
    <glyph glyph-name="ygrave" unicode="&#x1ef3;" horiz-adv-x="448" 
d="M166 813l183 -122l-35 -60l-198 90zM446 529l-148 -531q-54 -197 -245 -215l-14 88q66 12 98 40.5t52 88.5h-46l-141 529h125l96 -447l100 447h123z" />
    <glyph glyph-name="uni2007" unicode="&#x2007;" 
 />
    <glyph glyph-name="uni2008" unicode="&#x2008;" horiz-adv-x="235" 
 />
    <glyph glyph-name="uni200B" unicode="&#x200b;" horiz-adv-x="0" 
 />
    <glyph glyph-name="uni200C" unicode="&#x200c;" horiz-adv-x="0" 
d="M8 750v-900h-16v900h16z" />
    <glyph glyph-name="uni200D" unicode="&#x200d;" horiz-adv-x="0" 
d="M54 815l11 -11l-54 -54l57 -57l-11 -11l-49 49v-881h-16v881l-49 -49l-11 11l57 57l-54 54l11 11l54 -54z" />
    <glyph glyph-name="uni200E" unicode="&#x200e;" horiz-adv-x="0" 
d="M73 822l55 -72l-55 -72l-13 9l43 55h-95v-892h-16v908h111l-43 55z" />
    <glyph glyph-name="uni200F" unicode="&#x200f;" horiz-adv-x="0" 
d="M-73 822l13 -9l-43 -55h111v-908h-16v892h-95l43 -55l-13 -9l-55 72z" />
    <glyph glyph-name="figuredash" unicode="&#x2012;" 
d="M16 284v98h450v-98h-450z" />
    <glyph glyph-name="endash" unicode="&#x2013;" horiz-adv-x="457" 
d="M25 264v98h406v-98h-406z" />
    <glyph glyph-name="emdash" unicode="&#x2014;" horiz-adv-x="693" 
d="M25 264v98h643v-98h-643z" />
    <glyph glyph-name="uni2015" unicode="&#x2015;" horiz-adv-x="457" 
d="M25 264v98h406v-98h-406z" />
    <glyph glyph-name="uni2016" unicode="&#x2016;" horiz-adv-x="526" 
d="M419 809v-913h-114v913h114zM221 809v-913h-114v913h114z" />
    <glyph glyph-name="quoteleft" unicode="&#x2018;" horiz-adv-x="216" 
d="M106 478q-30 0 -48.5 20t-18.5 49q0 24 22 78l56 134h64l-36 -152q31 -23 31 -59q0 -30 -19.5 -50t-50.5 -20z" />
    <glyph glyph-name="quoteright" unicode="&#x2019;" horiz-adv-x="216" 
d="M110 759q30 0 48.5 -20t18.5 -50q0 -24 -22 -77l-56 -135h-64l36 153q-30 22 -30 58q0 31 19 51t50 20z" />
    <glyph glyph-name="quotesinglbase" unicode="&#x201a;" horiz-adv-x="216" 
d="M110 123q30 0 48.5 -20t18.5 -50q0 -24 -22 -77l-56 -135h-64l36 153q-30 22 -30 58q0 31 19 51t50 20z" />
    <glyph glyph-name="quotedblleft" unicode="&#x201c;" horiz-adv-x="409" 
d="M107 478q-31 0 -49.5 20t-18.5 50q0 24 22 77l56 135h64l-35 -153q30 -23 30 -58q0 -30 -19.5 -50.5t-49.5 -20.5zM299 478q-31 0 -49 20t-18 49q0 23 21 78l56 134h65l-36 -152q30 -22 30 -59q0 -30 -19.5 -50t-49.5 -20z" />
    <glyph glyph-name="quotedblright" unicode="&#x201d;" horiz-adv-x="409" 
d="M110 759q30 0 48.5 -20t18.5 -50q0 -24 -22 -77l-56 -135h-64l36 153q-30 22 -30 58q0 31 19 51t50 20zM302 759q31 0 49.5 -20t18.5 -50q0 -24 -22 -77l-56 -135h-64l35 153q-30 23 -30 58q0 30 19.5 50.5t49.5 20.5z" />
    <glyph glyph-name="quotedblbase" unicode="&#x201e;" horiz-adv-x="409" 
d="M302 123q31 0 49.5 -20t18.5 -50q0 -24 -22 -77l-56 -135h-64l35 153q-30 23 -30 58q0 30 19.5 50.5t49.5 20.5zM110 123q30 0 48.5 -20t18.5 -50q0 -24 -22 -77l-56 -135h-64l36 153q-30 22 -30 58q0 31 19 51t50 20z" />
    <glyph glyph-name="dagger" unicode="&#x2020;" horiz-adv-x="454" 
d="M285 673v-144h143v-101h-143v-428h-116v428h-143v101h143v144h116z" />
    <glyph glyph-name="daggerdbl" unicode="&#x2021;" horiz-adv-x="454" 
d="M428 428h-143v-174h143v-101h-143v-153h-116v153h-143v101h143v174h-142v101h142v144h116v-144h143v-101z" />
    <glyph glyph-name="bullet" unicode="&#x2022;" horiz-adv-x="318" 
d="M159 465q53 0 87 -35.5t34 -88.5t-34 -87.5t-87 -34.5t-87 35t-34 88t34 88t87 35z" />
    <glyph glyph-name="ellipsis" unicode="&#x2026;" horiz-adv-x="667" 
d="M333 142q34 0 55.5 -23t21.5 -55t-21.5 -55.5t-55.5 -23.5t-55.5 23.5t-21.5 55.5t21.5 55t55.5 23zM556 142q34 0 55.5 -23t21.5 -55t-21.5 -55.5t-55.5 -23.5t-55.5 23.5t-21.5 55.5t21.5 55t55.5 23zM110 142q34 0 55.5 -23t21.5 -55t-21.5 -55.5t-55.5 -23.5t-55 23
t-21 56q0 32 21.5 55t54.5 23z" />
    <glyph glyph-name="perthousand" unicode="&#x2030;" horiz-adv-x="1070" 
d="M534 715l77 -45l-400 -705l-77 45zM184 685q66 0 107.5 -46t41.5 -129q0 -82 -41.5 -128t-107.5 -46q-65 0 -107.5 46t-42.5 128q0 83 42 129t108 46zM184 609q-59 0 -59 -99t59 -99q33 0 45.5 25t12.5 74q0 48 -13 73.5t-45 25.5zM560 334q65 0 107 -46t42 -129
q0 -82 -41.5 -128t-107.5 -46t-108.5 46t-42.5 128q0 83 42.5 129t108.5 46zM887 334q65 0 107 -46t42 -129q0 -82 -42 -128t-107 -46q-66 0 -108.5 46t-42.5 128q0 83 42.5 129t108.5 46zM560 258q-33 0 -46.5 -25t-13.5 -74q0 -98 60 -98q33 0 45.5 24.5t12.5 73.5
t-12.5 74t-45.5 25zM887 258q-33 0 -46.5 -25t-13.5 -74q0 -98 60 -98q33 0 45.5 24.5t12.5 73.5t-12.5 74t-45.5 25z" />
    <glyph glyph-name="guilsinglleft" unicode="&#x2039;" horiz-adv-x="318" 
d="M201 544l75 -49l-116 -209l116 -210l-75 -49l-160 218v81z" />
    <glyph glyph-name="guilsinglright" unicode="&#x203a;" horiz-adv-x="318" 
d="M117 544l159 -218v-81l-159 -218l-76 49l117 210l-117 209z" />
    <glyph glyph-name="uni203F" unicode="&#x203f;" horiz-adv-x="584" 
d="M584 -89q-136 -129 -292 -129t-292 129l46 57q109 -80 246 -80q133 0 245 80z" />
    <glyph glyph-name="fraction" unicode="&#x2044;" horiz-adv-x="138" 
d="M208 754l73 -32l-350 -803l-75 32z" />
    <glyph glyph-name="uni204A" unicode="&#x204a;" horiz-adv-x="467" 
d="M415 529v-90l-217 -652l-110 34l204 610h-257v98h380z" />
    <glyph glyph-name="uni2070" unicode="&#x2070;" horiz-adv-x="344" 
d="M172 749q145 0 145 -219q0 -220 -145 -220q-146 0 -146 220q0 219 146 219zM172 677q-27 0 -38.5 -30t-11.5 -117t11.5 -117.5t38.5 -30.5t39 30.5t12 117.5q0 86 -12 116.5t-39 30.5z" />
    <glyph glyph-name="uni2074" unicode="&#x2074;" horiz-adv-x="344" 
d="M319 483v-72h-42v-90h-87l-1 90h-165v66l106 272l78 -30l-91 -236h73l17 101h70v-101h42z" />
    <glyph glyph-name="uni2075" unicode="&#x2075;" horiz-adv-x="344" 
d="M294 740l-11 -67h-140v-92q28 15 60 15q47 0 78 -37t31 -100q0 -66 -41 -107.5t-109 -41.5q-78 0 -130 64l51 48q35 -38 73 -38q28 0 44 19.5t16 55.5q0 71 -49 71q-23 0 -47 -15h-63v225h237z" />
    <glyph glyph-name="uni2076" unicode="&#x2076;" horiz-adv-x="345" 
d="M209 602q47 0 76.5 -36t29.5 -102q0 -69 -37 -111.5t-102 -42.5q-147 0 -147 202q0 113 45 175t124 62q49 0 87 -28l-33 -56q-25 15 -52 15q-66 0 -73 -118q36 40 82 40zM176 380q46 0 46 83q0 74 -41 74q-31 0 -54 -34q1 -70 11.5 -96.5t37.5 -26.5z" />
    <glyph glyph-name="uni2077" unicode="&#x2077;" horiz-adv-x="344" 
d="M296 740v-65l-138 -364l-82 28l130 331h-159v70h249z" />
    <glyph glyph-name="uni2078" unicode="&#x2078;" horiz-adv-x="344" 
d="M240 546q81 -39 81 -112q0 -53 -40.5 -88.5t-110.5 -35.5q-67 0 -107 35.5t-40 86.5q0 72 77 105q-61 34 -61 99q0 49 37.5 81t96.5 32t96 -29.5t37 -79.5q0 -58 -66 -94zM173 685q-46 0 -46 -50q0 -24 10.5 -36.5t35.5 -23.5l11 -5q33 24 33 66q0 49 -44 49zM173 379
q27 0 41.5 15.5t14.5 40.5q0 26 -12.5 40.5t-45.5 27.5l-19 8q-36 -24 -36 -74q0 -58 57 -58z" />
    <glyph glyph-name="uni2079" unicode="&#x2079;" horiz-adv-x="344" 
d="M171 749q71 0 108 -43.5t37 -119.5q0 -125 -57 -189.5t-184 -93.5l-20 65q77 23 115 54t47 87q-34 -41 -80 -41t-77.5 36.5t-31.5 99.5q0 66 40.5 105.5t102.5 39.5zM166 532q31 0 53 37q1 64 -9.5 88t-37.5 24q-50 0 -50 -74q0 -75 44 -75z" />
    <glyph glyph-name="uni207A" unicode="&#x207a;" horiz-adv-x="344" 
d="M212 643v-86h80v-76h-80v-85h-80v85h-79v76h79v86h80z" />
    <glyph glyph-name="uni207B" unicode="&#x207b;" horiz-adv-x="344" 
d="M53 481v76h238v-76h-238z" />
    <glyph glyph-name="uni207C" unicode="&#x207c;" horiz-adv-x="344" 
d="M53 545v74h238v-74h-238zM53 418v74h238v-74h-238z" />
    <glyph glyph-name="uni207D" unicode="&#x207d;" horiz-adv-x="341" 
d="M194 796l56 -36q-36 -69 -53 -134.5t-17 -154.5t17 -154.5t53 -134.5l-56 -36q-34 56 -52.5 93t-34.5 99.5t-16 132.5t16 132.5t34.5 99.5t52.5 93z" />
    <glyph glyph-name="uni207E" unicode="&#x207e;" horiz-adv-x="341" 
d="M147 796q34 -56 52.5 -93t34.5 -99.5t16 -132.5t-16 -132.5t-34.5 -99.5t-52.5 -93l-56 36q36 69 53 134.5t17 154.5t-17 154.5t-53 134.5z" />
    <glyph glyph-name="uni2080" unicode="&#x2080;" horiz-adv-x="344" 
d="M172 225q145 0 145 -219q0 -220 -145 -220q-146 0 -146 220q0 219 146 219zM172 153q-27 0 -38.5 -30t-11.5 -117t11.5 -117.5t38.5 -30.5t39 30.5t12 117.5q0 86 -12 116.5t-39 30.5z" />
    <glyph glyph-name="uni2081" unicode="&#x2081;" horiz-adv-x="344" 
d="M252 216v-419h-91v327l-80 -54l-42 60l130 86h83z" />
    <glyph glyph-name="uni2082" unicode="&#x2082;" horiz-adv-x="344" 
d="M169 224q60 0 95.5 -35t35.5 -87q0 -48 -31 -95t-121 -136h161l-10 -74h-250v69q98 107 127 148.5t29 81.5q0 54 -47 54q-36 0 -70 -40l-53 42q52 72 134 72z" />
    <glyph glyph-name="uni2083" unicode="&#x2083;" horiz-adv-x="344" 
d="M170 225q61 0 95 -31.5t34 -78.5q0 -76 -84 -96q45 -4 71 -29.5t26 -72.5q0 -56 -39 -93.5t-108 -37.5q-84 0 -133 64l50 46q37 -37 76 -37q27 0 43 17t16 47q0 60 -65 60h-29l11 66h19q56 0 56 54q0 52 -50 52q-38 0 -75 -34l-45 48q56 56 131 56z" />
    <glyph glyph-name="uni2084" unicode="&#x2084;" horiz-adv-x="344" 
d="M319 -41v-72h-42v-90h-87l-1 90h-165v66l106 272l78 -30l-91 -236h73l17 101h70v-101h42z" />
    <glyph glyph-name="uni2085" unicode="&#x2085;" horiz-adv-x="344" 
d="M294 216l-11 -67h-140v-92q29 15 60 15q47 0 78 -37t31 -100q0 -66 -41 -107.5t-109 -41.5q-78 0 -130 64l51 48q35 -38 73 -38q28 0 44 19.5t16 55.5q0 71 -49 71q-23 0 -47 -15h-63v225h237z" />
    <glyph glyph-name="uni2086" unicode="&#x2086;" horiz-adv-x="345" 
d="M209 78q47 0 76.5 -36t29.5 -102q0 -69 -37 -111.5t-102 -42.5q-147 0 -147 202q0 113 45 175t124 62q49 0 87 -28l-33 -56q-25 15 -52 15q-66 0 -73 -118q36 40 82 40zM176 -144q46 0 46 83q0 74 -41 74q-31 0 -54 -34q1 -70 11.5 -96.5t37.5 -26.5z" />
    <glyph glyph-name="uni2087" unicode="&#x2087;" horiz-adv-x="344" 
d="M296 216v-65l-138 -364l-82 28l130 331h-159v70h249z" />
    <glyph glyph-name="uni2088" unicode="&#x2088;" horiz-adv-x="344" 
d="M240 22q81 -39 81 -112q0 -53 -40.5 -88.5t-110.5 -35.5q-67 0 -107 35.5t-40 86.5q0 72 77 105q-61 34 -61 99q0 49 37.5 81t96.5 32t96 -29.5t37 -79.5q0 -58 -66 -94zM173 161q-46 0 -46 -50q0 -24 10.5 -36.5t35.5 -23.5l11 -5q33 24 33 66q0 49 -44 49zM173 -145
q27 0 41.5 15.5t14.5 40.5q0 26 -12.5 40.5t-45.5 27.5l-19 8q-36 -24 -36 -74q0 -58 57 -58z" />
    <glyph glyph-name="uni2089" unicode="&#x2089;" horiz-adv-x="344" 
d="M171 225q71 0 108 -43.5t37 -119.5q0 -125 -57 -189.5t-184 -93.5l-20 65q77 23 115 54t47 87q-34 -41 -80 -41t-77.5 36.5t-31.5 99.5q0 66 40.5 105.5t102.5 39.5zM166 8q31 0 53 37q1 64 -9.5 88t-37.5 24q-50 0 -50 -74q0 -75 44 -75z" />
    <glyph glyph-name="uni208A" unicode="&#x208a;" horiz-adv-x="344" 
d="M212 121v-86h80v-76h-80v-85h-80v85h-79v76h79v86h80z" />
    <glyph glyph-name="uni208B" unicode="&#x208b;" horiz-adv-x="344" 
d="M53 -41v76h238v-76h-238z" />
    <glyph glyph-name="uni208C" unicode="&#x208c;" horiz-adv-x="344" 
d="M53 23v74h238v-74h-238zM53 -104v74h238v-74h-238z" />
    <glyph glyph-name="uni208D" unicode="&#x208d;" horiz-adv-x="341" 
d="M194 312l56 -36q-36 -69 -53 -134.5t-17 -154.5t17 -154.5t53 -134.5l-56 -36q-34 56 -52.5 93t-34.5 99.5t-16 132.5t16 132.5t34.5 99.5t52.5 93z" />
    <glyph glyph-name="uni208E" unicode="&#x208e;" horiz-adv-x="341" 
d="M147 312q34 -56 52.5 -93t34.5 -99.5t16 -132.5t-16 -132.5t-34.5 -99.5t-52.5 -93l-56 36q36 69 53 134.5t17 154.5t-17 154.5t-53 134.5z" />
    <glyph glyph-name="Euro" unicode="&#x20ac;" horiz-adv-x="507" 
d="M210 226q10 -79 42.5 -113t89.5 -34t124 40v-96q-71 -38 -139 -38q-98 0 -160 60.5t-82 180.5h-73l17 71h53v81h-70l17 72h57q24 114 90 174.5t157 60.5q90 0 162 -57l-44 -77q-55 40 -113 40q-101 0 -126 -141h212l-17 -72h-200v-81h186l-16 -71h-167z" />
    <glyph glyph-name="uni20AF" unicode="&#x20af;" horiz-adv-x="1087" 
d="M273 674q54 0 96.5 -8t84.5 -30t70 -58t45.5 -96t17.5 -141q0 -341 -301 -341h-190v92q46 16 59 41t13 84v310h118v-305q0 -50 -13 -77t-53 -50h74q38 0 66 11t50 37.5t33.5 76t11.5 121.5q0 73 -11.5 122t-35.5 73.5t-51 34t-66 9.5h-118h-24q-42 0 -42 -47
q0 -29 15 -69l-80 -38q-37 60 -37 113q0 61 41 98.5t110 37.5h18v-1h99zM833 544q211 0 211 -278q0 -120 -49.5 -200.5t-132.5 -80.5q-70 0 -111 58v-247l-123 -14v500q0 262 205 262zM830 78q87 0 87 187q0 105 -20.5 146.5t-62.5 41.5q-45 0 -64 -42t-19 -140v-136
q31 -57 79 -57z" />
    <glyph glyph-name="uni20B9" unicode="&#x20b9;" horiz-adv-x="464" 
d="M442 673v-71h-130q49 -25 66 -87h64v-72h-57q-6 -126 -117 -172l153 -271h-134l-133 250h-110v80h103q53 0 80.5 26t31.5 87h-215v72h211q-19 79 -113 79h-98v79h398z" />
    <glyph glyph-name="uni20BA" unicode="&#x20ba;" horiz-adv-x="494" 
d="M406 214l85 -30q-50 -184 -249 -184h-142v192l-47 -25l-27 64l74 39v68l-46 -24l-28 64l74 39v256h121v-193l126 65l27 -64l-153 -79v-69l125 65l27 -63l-152 -80v-157h37q56 0 91 27t57 89z" />
    <glyph glyph-name="uni20BD" unicode="&#x20bd;" horiz-adv-x="503" 
d="M212 248v-67h142v-71h-142v-110h-122v110h-60v71h60v67h-60v82h60v343h146q121 0 185 -53.5t64 -158.5q0 -109 -64 -161t-180 -52h-29zM238 583h-26v-253h28q62 0 91.5 28.5t29.5 101.5q0 67 -29.5 95t-93.5 28z" />
    <glyph glyph-name="uni2113" unicode="&#x2113;" horiz-adv-x="391" 
d="M242 84q8 0 23 5l26 -86q-36 -18 -79 -18q-56 0 -87 32.5t-31 95.5v108l-49 -38l-32 44l81 67v279q0 92 42.5 136.5t113.5 44.5q62 0 95 -35t33 -98q0 -150 -161 -300v-206q0 -31 25 -31zM257 685q-40 0 -40 -72v-198q76 97 76 208q-1 62 -36 62z" />
    <glyph glyph-name="uni2116" unicode="&#x2116;" horiz-adv-x="975" 
d="M514 691v-691h-162l-191 565q17 -151 17 -276v-289h-113v691h161l192 -566q-17 113 -17 235v331h113zM756 691q85 0 132.5 -54t47.5 -158q0 -100 -47.5 -155.5t-131.5 -55.5q-85 0 -132.5 54t-47.5 158q0 100 47.5 155.5t131.5 55.5zM757 608q-35 0 -51 -28.5t-16 -99.5
q0 -72 16 -100.5t50 -28.5t50 28.5t16 99.5q0 73 -15.5 101t-49.5 28zM579 0v95h354v-95h-354z" />
    <glyph glyph-name="trademark" unicode="&#x2122;" horiz-adv-x="774" 
d="M328 691l-13 -76h-96v-318h-92v318h-101v76h302zM713 691l13 -394h-88l-5 186q-1 62 5 131h-2l-65 -276h-72l-72 275h-1q6 -61 4 -130l-4 -186h-84l13 394h119l61 -262l55 262h123z" />
    <glyph glyph-name="uni2126" unicode="&#x2126;" horiz-adv-x="594" 
d="M297 706q124 0 194 -90.5t70 -250.5q0 -102 -28.5 -164.5t-91.5 -102.5h102v-98h-211v95q55 24 75.5 86.5t20.5 183.5q0 129 -32.5 186t-98.5 57q-65 0 -98 -57t-33 -186q0 -124 20.5 -184t74.5 -86v-95h-210v98h100q-61 36 -89.5 99.5t-28.5 167.5q0 157 71 249t193 92z
" />
    <glyph glyph-name="estimated" unicode="&#x212e;" horiz-adv-x="946" 
d="M472 716q165 0 284 -107t119 -270h-656l-1 -218q30 -45 104 -71t151 -26q75 0 147.5 25.5t112.5 72.5h58q-117 -138 -319 -138q-172 0 -286.5 103t-114.5 260q0 156 117 262.5t284 106.5zM473 676q-173 0 -255 -101l1 -196h508v196q-93 101 -254 101z" />
    <glyph glyph-name="uni2153" unicode="&#x2153;" horiz-adv-x="826" 
d="M552 754l73 -32l-350 -803l-75 32zM252 691v-419h-91v327l-80 -54l-42 60l130 86h83zM652 428q61 0 95 -31.5t34 -78.5q0 -76 -84 -96q45 -4 71 -29.5t26 -72.5q0 -56 -39 -93.5t-108 -37.5q-84 0 -133 64l50 46q37 -37 76 -37q27 0 43 17t16 47q0 60 -65 60h-29l11 66
h19q56 0 56 54q0 52 -50 52q-38 0 -75 -34l-45 48q56 56 131 56z" />
    <glyph glyph-name="uni2154" unicode="&#x2154;" horiz-adv-x="826" 
d="M552 754l73 -32l-350 -803l-75 32zM169 701q60 0 95.5 -35t35.5 -87q0 -48 -31 -95t-121 -136h161l-10 -74h-250v69q98 107 127 148.5t29 81.5q0 54 -47 54q-36 0 -70 -40l-53 42q52 72 134 72zM652 428q61 0 95 -31.5t34 -78.5q0 -76 -84 -96q45 -4 71 -29.5t26 -72.5
q0 -56 -39 -93.5t-108 -37.5q-84 0 -133 64l50 46q37 -37 76 -37q27 0 43 17t16 47q0 60 -65 60h-29l11 66h19q56 0 56 54q0 52 -50 52q-38 0 -75 -34l-45 48q56 56 131 56z" />
    <glyph glyph-name="uni2155" unicode="&#x2155;" horiz-adv-x="826" 
d="M552 754l73 -32l-350 -803l-75 32zM252 691v-419h-91v327l-80 -54l-42 60l130 86h83zM776 419l-11 -67h-140v-92q29 15 60 15q47 0 78 -37t31 -100q0 -66 -41 -107.5t-109 -41.5q-78 0 -130 64l51 48q35 -38 73 -38q28 0 44 19.5t16 55.5q0 71 -49 71q-23 0 -47 -15h-63
v225h237z" />
    <glyph glyph-name="uni2156" unicode="&#x2156;" horiz-adv-x="826" 
d="M552 754l73 -32l-350 -803l-75 32zM169 701q60 0 95.5 -35t35.5 -87q0 -48 -31 -95t-121 -136h161l-10 -74h-250v69q98 107 127 148.5t29 81.5q0 54 -47 54q-36 0 -70 -40l-53 42q52 72 134 72zM776 419l-11 -67h-140v-92q29 15 60 15q47 0 78 -37t31 -100
q0 -66 -41 -107.5t-109 -41.5q-78 0 -130 64l51 48q35 -38 73 -38q28 0 44 19.5t16 55.5q0 71 -49 71q-23 0 -47 -15h-63v225h237z" />
    <glyph glyph-name="uni2157" unicode="&#x2157;" horiz-adv-x="826" 
d="M552 754l73 -32l-350 -803l-75 32zM170 700q61 0 95 -31.5t34 -78.5q0 -76 -84 -96q45 -4 71 -29.5t26 -72.5q0 -56 -39 -93.5t-108 -37.5q-84 0 -133 64l50 46q37 -37 76 -37q27 0 43 17t16 47q0 60 -65 60h-29l11 66h19q56 0 56 54q0 52 -50 52q-38 0 -75 -34l-45 48
q56 56 131 56zM776 419l-11 -67h-140v-92q29 15 60 15q47 0 78 -37t31 -100q0 -66 -41 -107.5t-109 -41.5q-78 0 -130 64l51 48q35 -38 73 -38q28 0 44 19.5t16 55.5q0 71 -49 71q-23 0 -47 -15h-63v225h237z" />
    <glyph glyph-name="uni2158" unicode="&#x2158;" horiz-adv-x="826" 
d="M552 754l73 -32l-350 -803l-75 32zM277 272h-87l-1 90h-165v66l106 272l78 -30l-91 -236h73l17 101h70v-101h42v-72h-42v-90zM685 275q47 0 78 -37t31 -100q0 -66 -41 -107.5t-109 -41.5q-78 0 -130 64l51 48q35 -38 73 -38q28 0 44 19.5t16 55.5q0 71 -49 71
q-23 0 -47 -15h-63v225h237l-11 -67h-140v-92q29 15 60 15z" />
    <glyph glyph-name="uni2159" unicode="&#x2159;" horiz-adv-x="827" 
d="M552 754l73 -32l-350 -803l-75 32zM252 272h-91v327l-80 -54l-42 60l130 86h83v-419zM691 281q47 0 76.5 -36t29.5 -102q0 -69 -37 -111.5t-102 -42.5q-147 0 -147 202q0 113 45 175t124 62q49 0 87 -28l-33 -56q-26 15 -52 15q-66 0 -73 -118q36 40 82 40zM658 59
q46 0 46 83q0 74 -41 74q-31 0 -54 -34q1 -70 11.5 -96.5t37.5 -26.5z" />
    <glyph glyph-name="uni215A" unicode="&#x215a;" horiz-adv-x="827" 
d="M552 754l73 -32l-350 -803l-75 32zM312 410q0 -66 -41 -107.5t-109 -41.5q-78 0 -130 64l51 48q35 -38 73 -38q28 0 44 19.5t16 55.5q0 71 -49 71q-23 0 -47 -15h-63v225h237l-11 -67h-140v-92q28 15 60 15q47 0 78 -37t31 -100zM691 281q47 0 76.5 -36t29.5 -102
q0 -69 -37 -111.5t-102 -42.5q-147 0 -147 202q0 113 45 175t124 62q49 0 87 -28l-33 -56q-26 15 -52 15q-66 0 -73 -118q36 40 82 40zM658 59q46 0 46 83q0 74 -41 74q-31 0 -54 -34q1 -70 11.5 -96.5t37.5 -26.5z" />
    <glyph glyph-name="oneeighth" unicode="&#x215b;" horiz-adv-x="826" 
d="M552 754l73 -32l-350 -803l-75 32zM252 272h-91v327l-80 -54l-42 60l130 86h83v-419zM722 225q81 -39 81 -112q0 -53 -40.5 -88.5t-110.5 -35.5q-67 0 -107 35.5t-40 86.5q0 72 77 105q-61 34 -61 99q0 49 37.5 81t96.5 32t96 -29.5t37 -79.5q0 -58 -66 -94zM655 364
q-46 0 -46 -50q0 -24 10.5 -36.5t35.5 -23.5l11 -5q33 24 33 66q0 49 -44 49zM655 58q27 0 41.5 15.5t14.5 40.5q0 26 -12.5 40.5t-45.5 27.5l-19 8q-36 -24 -36 -74q0 -58 57 -58z" />
    <glyph glyph-name="threeeighths" unicode="&#x215c;" horiz-adv-x="826" 
d="M552 754l73 -32l-350 -803l-75 32zM312 392q0 -56 -39 -93.5t-108 -37.5q-84 0 -133 64l50 46q37 -37 76 -37q27 0 43 17t16 47q0 60 -65 60h-29l11 66h19q56 0 56 54q0 52 -50 52q-38 0 -75 -34l-45 48q56 56 131 56q61 0 95 -31.5t34 -78.5q0 -76 -84 -96
q45 -4 71 -29.5t26 -72.5zM722 225q81 -39 81 -112q0 -53 -40.5 -88.5t-110.5 -35.5q-67 0 -107 35.5t-40 86.5q0 72 77 105q-61 34 -61 99q0 49 37.5 81t96.5 32t96 -29.5t37 -79.5q0 -58 -66 -94zM655 364q-46 0 -46 -50q0 -24 10.5 -36.5t35.5 -23.5l11 -5q33 24 33 66
q0 49 -44 49zM655 58q27 0 41.5 15.5t14.5 40.5q0 26 -12.5 40.5t-45.5 27.5l-19 8q-36 -24 -36 -74q0 -58 57 -58z" />
    <glyph glyph-name="fiveeighths" unicode="&#x215d;" horiz-adv-x="826" 
d="M552 754l73 -32l-350 -803l-75 32zM312 410q0 -66 -41 -107.5t-109 -41.5q-78 0 -130 64l51 48q35 -38 73 -38q28 0 44 19.5t16 55.5q0 71 -49 71q-23 0 -47 -15h-63v225h237l-11 -67h-140v-92q28 15 60 15q47 0 78 -37t31 -100zM722 225q81 -39 81 -112
q0 -53 -40.5 -88.5t-110.5 -35.5q-67 0 -107 35.5t-40 86.5q0 72 77 105q-61 34 -61 99q0 49 37.5 81t96.5 32t96 -29.5t37 -79.5q0 -58 -66 -94zM655 364q-46 0 -46 -50q0 -24 10.5 -36.5t35.5 -23.5l11 -5q33 24 33 66q0 49 -44 49zM655 58q27 0 41.5 15.5t14.5 40.5
q0 26 -12.5 40.5t-45.5 27.5l-19 8q-36 -24 -36 -74q0 -58 57 -58z" />
    <glyph glyph-name="seveneighths" unicode="&#x215e;" horiz-adv-x="772" 
d="M497 754l74 -32l-350 -803l-75 32zM158 262l-82 28l130 331h-159v70h249v-65zM668 225q80 -39 80 -112q0 -53 -40 -88.5t-110 -35.5q-67 0 -107 35.5t-40 86.5q0 72 77 105q-62 35 -62 99q0 49 37.5 81t96.5 32q60 0 97 -29.5t37 -79.5q0 -58 -66 -94zM600 364
q-45 0 -45 -50q0 -24 10.5 -36.5t35.5 -23.5l11 -5q33 24 33 66q0 49 -45 49zM600 58q28 0 42.5 15.5t14.5 40.5q0 26 -12.5 40.5t-45.5 27.5l-19 8q-37 -25 -37 -74q0 -58 57 -58z" />
    <glyph glyph-name="uni215F" unicode="&#x215f;" 
d="M552 754l73 -32l-350 -803l-75 32zM252 691v-419h-91v327l-80 -54l-42 60l130 86h83z" />
    <glyph glyph-name="arrowleft" unicode="&#x2190;" horiz-adv-x="900" 
d="M383 651l86 -74l-112 -123q-44 -48 -85 -72h521v-106h-521q40 -24 85 -72l112 -123l-86 -74l-289 322z" />
    <glyph glyph-name="arrowup" unicode="&#x2191;" horiz-adv-x="900" 
d="M390 0v518q-24 -47 -69 -86l-126 -116l-72 78l327 295l327 -295l-72 -78l-126 116q-45 39 -69 86v-518h-120z" />
    <glyph glyph-name="arrowright" unicode="&#x2192;" horiz-adv-x="900" 
d="M517 651l289 -322l-289 -322l-86 74l112 123q45 48 85 72h-521v106h521q-41 24 -85 72l-112 123z" />
    <glyph glyph-name="arrowdown" unicode="&#x2193;" horiz-adv-x="900" 
d="M510 645v-518q24 47 69 86l126 116l72 -77l-327 -295l-327 295l72 77l126 -116q45 -39 69 -86v518h120z" />
    <glyph glyph-name="uni21E6" unicode="&#x21e6;" horiz-adv-x="960" 
d="M920 239q0 -23 -14 -36.5t-36 -13.5h-532v-176l-298 300l298 300v-176h532q22 0 36 -13.5t14 -36.5v-148zM876 393h-583v111l-189 -191l189 -191v111h583v160z" />
    <glyph glyph-name="uni21E7" unicode="&#x21e7;" horiz-adv-x="720" 
d="M279 -12q-23 0 -36.5 14t-13.5 36v496h-169l300 298l300 -298h-169v-496q0 -22 -13.5 -36t-36.5 -14h-162zM444 32v547h107l-191 189l-191 -189h107v-547h168z" />
    <glyph glyph-name="uni21E8" unicode="&#x21e8;" horiz-adv-x="960" 
d="M40 239v148q0 23 14 36.5t36 13.5h532v176l298 -300l-298 -300v176h-532q-22 0 -36 13.5t-14 36.5zM84 393v-160h583v-111l189 191l-189 191v-111h-583z" />
    <glyph glyph-name="uni21E9" unicode="&#x21e9;" horiz-adv-x="720" 
d="M441 750q23 0 36.5 -14t13.5 -36v-496h169l-300 -298l-300 298h169v496q0 22 13.5 36t36.5 14h162zM276 706v-547h-107l191 -189l191 189h-107v547h-168z" />
    <glyph glyph-name="uni21EA" unicode="&#x21ea;" horiz-adv-x="720" 
d="M229 255v279h-169l300 298l300 -298h-169v-279h-262zM444 297v282h107l-191 189l-191 -189h107v-282h168zM491 155v-117q0 -22 -13.5 -36t-36.5 -14h-162q-23 0 -36.5 14t-13.5 36v117h262zM276 113v-81h168v81h-168z" />
    <glyph glyph-name="partialdiff" unicode="&#x2202;" horiz-adv-x="463" 
d="M102 706q174 -47 251 -150.5t77 -293.5q0 -126 -54.5 -201.5t-153.5 -75.5q-88 0 -145 61t-57 169q0 97 49 159t118 62q71 0 118 -72q-14 104 -69 163.5t-162 93.5zM223 76q44 0 64.5 43t20.5 144q-36 80 -90 80q-74 0 -74 -128q0 -139 79 -139z" />
    <glyph glyph-name="emptyset" unicode="&#x2205;" horiz-adv-x="900" 
d="M690 628q59 -51 92.5 -124t33.5 -155q0 -153 -106 -259t-259 -106q-105 0 -195 55l-37 -51h-91l70 95q-114 107 -114 266q0 153 107 260t260 107q95 0 179 -46l31 42h91zM164 349q0 -118 81 -202l339 460q-63 33 -133 33q-120 0 -203.5 -85t-83.5 -206zM451 60
q120 0 202.5 84t82.5 205q0 130 -92 216l-342 -464q68 -41 149 -41z" />
    <glyph glyph-name="uni2206" unicode="&#x2206;" horiz-adv-x="524" 
d="M340 691l186 -691h-528l187 691h155zM260 592l-112 -494h225z" />
    <glyph glyph-name="product" unicode="&#x220f;" horiz-adv-x="520" 
d="M488 577h-56v-781l-114 -13v794h-114v-781l-114 -13v794h-58v96h456v-96z" />
    <glyph glyph-name="summation" unicode="&#x2211;" horiz-adv-x="444" 
d="M414 673v-97h-252l151 -213v-50l-151 -216h252v-97h-384v94l173 242l-173 243v94h384z" />
    <glyph glyph-name="minus" unicode="&#x2212;" horiz-adv-x="442" 
d="M44 285v95h354v-95h-354z" />
    <glyph glyph-name="uni2215" unicode="&#x2215;" horiz-adv-x="138" 
d="M208 754l73 -32l-350 -803l-75 32z" />
    <glyph glyph-name="uni2219" unicode="&#x2219;" horiz-adv-x="221" 
d="M110 387q34 0 55.5 -23t21.5 -55t-21.5 -55.5t-55.5 -23.5t-55 23t-21 56q0 32 21.5 55t54.5 23z" />
    <glyph glyph-name="radical" unicode="&#x221a;" 
d="M646 865v-97h-161l-181 -768h-142l-145 459l112 29l98 -372l166 749h253z" />
    <glyph glyph-name="infinity" unicode="&#x221e;" horiz-adv-x="771" 
d="M561 533q84 0 129.5 -63t45.5 -154q0 -93 -45.5 -155t-135.5 -62q-107 0 -174 118q-71 -118 -170 -118q-86 0 -131 62.5t-45 155.5q0 91 46 153.5t132 62.5q113 0 176 -121q36 62 76.5 91.5t95.5 29.5zM229 196q36 0 61 30.5t53 92.5q-45 118 -111 118q-37 0 -57.5 -30.5
t-20.5 -89.5t20 -90t55 -31zM541 195q35 0 55.5 31t20.5 90q0 58 -20 89t-55 31q-36 0 -61 -30.5t-54 -95.5q22 -50 48.5 -82.5t65.5 -32.5z" />
    <glyph glyph-name="integral" unicode="&#x222b;" horiz-adv-x="336" 
d="M262 857q65 0 125 -31l-35 -80q-38 17 -72 17q-54 0 -54 -74v-740q0 -82 -44 -124t-114 -42q-65 0 -119 30l34 81q38 -17 68 -17q54 0 54 69v740q0 84 39.5 127.5t117.5 43.5z" />
    <glyph glyph-name="approxequal" unicode="&#x2248;" horiz-adv-x="442" 
d="M293 348q-40 0 -84.5 29t-61.5 29q-14 0 -26 -8.5t-18.5 -17t-17.5 -25.5l-64 34q51 108 131 108q38 0 81.5 -29t61.5 -29q32 0 62 47l65 -34q-51 -104 -129 -104zM293 149q-31 0 -58.5 14.5t-49 29.5t-38.5 15q-14 0 -26 -8.5t-19 -17.5t-17 -26l-64 35q51 108 131 108
q38 0 81.5 -29t61.5 -29q32 0 62 47l65 -34q-51 -105 -129 -105z" />
    <glyph glyph-name="notequal" unicode="&#x2260;" horiz-adv-x="442" 
d="M398 384h-108l-55 -106h163v-95h-213l-70 -134l-62 33l53 101h-62v95h111l56 106h-167v95h216l68 130l63 -32l-51 -98h58v-95z" />
    <glyph glyph-name="lessequal" unicode="&#x2264;" horiz-adv-x="443" 
d="M369 610l42 -87l-281 -138l281 -136l-42 -89l-338 170v110zM43 0v95h354v-95h-354z" />
    <glyph glyph-name="greaterequal" unicode="&#x2265;" horiz-adv-x="443" 
d="M74 610l337 -170v-110l-337 -170l-43 89l282 136l-282 138zM45 0v95h353v-95h-353z" />
    <glyph glyph-name="dotmath" unicode="&#x22c5;" horiz-adv-x="221" 
d="M110 387q34 0 55.5 -23t21.5 -55t-21.5 -55.5t-55.5 -23.5t-55 23t-21 56q0 32 21.5 55t54.5 23z" />
    <glyph glyph-name="uni2326" unicode="&#x2326;" horiz-adv-x="1447" 
d="M150 -12q-22 0 -36 14t-14 36v625q0 23 14 36.5t36 13.5h830l380 -361l-380 -364h-830zM349 201l67 -67l154 154l154 -154l67 67l-154 154l154 153l-67 69l-154 -155l-154 155l-67 -69l154 -153z" />
    <glyph glyph-name="uni2327" unicode="&#x2327;" horiz-adv-x="1240" 
d="M150 -12q-22 0 -36 14t-14 36v625q0 23 14 36.5t36 13.5h940q22 0 36 -13.5t14 -36.5v-625q0 -22 -14 -36t-36 -14h-940zM399 201l67 -67l154 154l154 -154l67 67l-154 154l154 153l-67 69l-154 -155l-154 155l-67 -69l154 -153z" />
    <glyph glyph-name="uni2328" unicode="&#x2328;" horiz-adv-x="1460" 
d="M170 -12q-22 0 -36 14t-14 36v625q0 23 14 36.5t36 13.5h1120q22 0 36 -13.5t14 -36.5v-625q0 -22 -14 -36t-36 -14h-1120zM205 658q-8 0 -14 -6t-6 -14v-74q0 -8 6 -14t14 -6h74q8 0 14 6t6 14v74q0 8 -6 14t-14 6h-74zM385 658q-8 0 -14 -6t-6 -14v-74q0 -8 6 -14
t14 -6h74q8 0 14 6t6 14v74q0 8 -6 14t-14 6h-74zM565 658q-8 0 -14 -6t-6 -14v-74q0 -8 6 -14t14 -6h74q8 0 14 6t6 14v74q0 8 -6 14t-14 6h-74zM745 658q-8 0 -14 -6t-6 -14v-74q0 -8 6 -14t14 -6h74q8 0 14 6t6 14v74q0 8 -6 14t-14 6h-74zM925 658q-8 0 -14 -6t-6 -14
v-74q0 -8 6 -14t14 -6h74q8 0 14 6t6 14v74q0 8 -6 14t-14 6h-74zM1105 658q-8 0 -14 -6t-6 -14v-74q0 -8 6 -14t14 -6h134q8 0 14 6t6 14v74q0 8 -6 14t-14 6h-134zM245 493q-8 0 -14 -6t-6 -14v-74q0 -8 6 -14t14 -6h74q8 0 14 6t6 14v74q0 8 -6 14t-14 6h-74zM425 493
q-8 0 -14 -6t-6 -14v-74q0 -8 6 -14t14 -6h74q8 0 14 6t6 14v74q0 8 -6 14t-14 6h-74zM605 493q-8 0 -14 -6t-6 -14v-74q0 -8 6 -14t14 -6h74q8 0 14 6t6 14v74q0 8 -6 14t-14 6h-74zM785 493q-8 0 -14 -6t-6 -14v-74q0 -8 6 -14t14 -6h74q8 0 14 6t6 14v74q0 8 -6 14t-14 6
h-74zM965 493q-8 0 -14 -6t-6 -14v-74q0 -8 6 -14t14 -6h74q8 0 14 6t6 14v74q0 8 -6 14t-14 6h-74zM1165 229q0 -8 6 -14t14 -6h54q8 0 14 6t6 14v244q0 8 -6 14t-14 6h-94q-8 0 -14 -6t-6 -14v-74q0 -8 6 -14t14 -6t14 -6t6 -14v-130zM285 323q-8 0 -14 -6t-6 -14v-74
q0 -8 6 -14t14 -6h74q8 0 14 6t6 14v74q0 8 -6 14t-14 6h-74zM465 323q-8 0 -14 -6t-6 -14v-74q0 -8 6 -14t14 -6h74q8 0 14 6t6 14v74q0 8 -6 14t-14 6h-74zM645 323q-8 0 -14 -6t-6 -14v-74q0 -8 6 -14t14 -6h74q8 0 14 6t6 14v74q0 8 -6 14t-14 6h-74zM825 323
q-8 0 -14 -6t-6 -14v-74q0 -8 6 -14t14 -6h74q8 0 14 6t6 14v74q0 8 -6 14t-14 6h-74zM1005 323q-8 0 -14 -6t-6 -14v-74q0 -8 6 -14t14 -6h74q8 0 14 6t6 14v74q0 8 -6 14t-14 6h-74zM425 158q-8 0 -14 -6t-6 -14v-74q0 -8 6 -14t14 -6h614q8 0 14 6t6 14v74q0 8 -6 14
t-14 6h-614z" />
    <glyph glyph-name="uni232B" unicode="&#x232b;" horiz-adv-x="1460" 
d="M480 -12l-380 364l380 361h830q22 0 36 -13.5t14 -36.5v-625q0 -22 -14 -36t-36 -14h-830zM669 201l67 -67l154 154l154 -154l67 67l-154 154l154 153l-67 69l-154 -155l-154 155l-67 -69l154 -153z" />
    <glyph glyph-name="uni23CE" unicode="&#x23ce;" horiz-adv-x="1000" 
d="M631 700q0 22 13.5 36t36.5 14h159q22 0 36 -14t14 -36v-461q0 -23 -14 -36.5t-36 -13.5h-512v-174l-298 298l298 299v-174h303v262zM844 706h-168v-313h-393v111l-189 -191l189 -191v111h561v473z" />
    <glyph glyph-name="uni25AF" unicode="&#x25af;" horiz-adv-x="507" 
d="M425 689v-689h-342v689h342zM338 597h-169v-505h169v505z" />
    <glyph glyph-name="lozenge" unicode="&#x25ca;" horiz-adv-x="487" 
d="M312 672l151 -334l-151 -338h-137l-151 337l151 335h137zM243 585l-101 -247l101 -250l102 249z" />
    <glyph glyph-name="uni2999" unicode="&#x2999;" horiz-adv-x="247" 
d="M123 1119q-30 0 -51.5 21t-21.5 52q0 30 21.5 51.5t51.5 21.5q31 0 52 -21.5t21 -51.5q0 -31 -21 -52t-52 -21zM123 829q-30 0 -51.5 21t-21.5 52q0 30 21.5 51.5t51.5 21.5q31 0 52 -21.5t21 -51.5q0 -31 -21 -52t-52 -21zM123 533q-30 0 -51.5 21t-21.5 52
q0 30 21.5 51.5t51.5 21.5q31 0 52 -21.5t21 -51.5q0 -31 -21 -52t-52 -21zM123 237q-30 0 -51.5 21t-21.5 52q0 30 21.5 51.5t51.5 21.5q31 0 52 -21.5t21 -51.5q0 -31 -21 -52t-52 -21zM123 -59q-30 0 -51.5 21t-21.5 52q0 30 21.5 51.5t51.5 21.5q31 0 52 -21.5t21 -51.5
q0 -31 -21 -52t-52 -21zM123 -355q-30 0 -51.5 21t-21.5 52q0 30 21.5 51.5t51.5 21.5q31 0 52 -21.5t21 -51.5q0 -31 -21 -52t-52 -21z" />
    <glyph glyph-name="uniA789" unicode="&#xa789;" horiz-adv-x="206" 
d="M103 448q30 0 49.5 -20.5t19.5 -49.5t-19.5 -50t-49.5 -21q-31 0 -50 21t-19 50t19 49.5t50 20.5zM103 128q30 0 49.5 -21t19.5 -50t-19.5 -49.5t-49.5 -20.5t-49.5 20.5t-19.5 49.5t19.5 50t49.5 21z" />
    <glyph glyph-name="uniA78A" unicode="&#xa78a;" horiz-adv-x="406" 
d="M44 346v85h319v-85h-319zM44 165v85h319v-85h-319z" />
    <glyph glyph-name="uniFEFF" unicode="&#xfeff;" horiz-adv-x="0" 
 />
    <glyph glyph-name="Cacute.loclPLK" horiz-adv-x="496" 
d="M334 944l91 -55l-120 -151l-56 34zM304 706q97 0 177 -72l-62 -74q-54 48 -109 48q-139 0 -139 -261q0 -260 140 -260q54 0 116 53l60 -72q-73 -83 -182 -83q-123 0 -195 92t-72 270q0 175 73.5 267t192.5 92z" />
    <glyph glyph-name="Nacute.loclPLK" horiz-adv-x="579" 
d="M321 944l91 -55l-120 -151l-56 34zM514 691v-691h-162l-191 565q17 -151 17 -276v-289h-113v691h161l192 -566q-17 113 -17 235v331h113z" />
    <glyph glyph-name="Oacute.loclPLK" horiz-adv-x="604" 
d="M329 944l91 -55l-120 -151l-56 34zM302 706q126 0 195 -90.5t69 -269.5q0 -177 -69.5 -269t-194.5 -92t-194.5 90.5t-69.5 269.5q0 176 70 268.5t194 92.5zM302 608q-66 0 -98.5 -61t-32.5 -202q0 -142 33 -202t98 -60q66 0 98.5 60t32.5 203q0 140 -32.5 201t-98.5 61z
" />
    <glyph glyph-name="Sacute.loclPLK" horiz-adv-x="486" 
d="M275 944l91 -55l-120 -151l-56 34zM244 706q118 0 200 -85l-61 -69q-62 56 -129 56q-41 0 -65 -22.5t-24 -61.5q0 -38 24.5 -62t95.5 -50q89 -35 132 -81.5t43 -133.5q0 -92 -62.5 -152t-167.5 -60q-130 0 -221 94l65 70q74 -66 149 -66q49 0 77 28.5t28 77.5
q0 44 -24.5 70.5t-89.5 50.5q-95 36 -137.5 83.5t-42.5 121.5q0 84 59.5 137.5t150.5 53.5z" />
    <glyph glyph-name="Zacute.loclPLK" horiz-adv-x="460" 
d="M263 944l91 -55l-120 -151l-56 34zM434 691v-99l-278 -488h281l-13 -104h-407v98l279 491h-251v102h389z" />
    <glyph glyph-name="cacute.loclPLK" horiz-adv-x="415" 
d="M280 792l92 -56l-120 -157l-56 34zM257 544q86 0 150 -61l-53 -71q-45 36 -89 36q-98 0 -98 -186q0 -97 25 -137.5t72 -40.5q41 0 89 34l54 -72q-64 -61 -149 -61q-103 0 -162 72.5t-59 202.5q0 132 59 208t161 76z" />
    <glyph glyph-name="i.loclTRK" horiz-adv-x="248" 
d="M123 794q33 0 54 -21.5t21 -53.5q0 -33 -21 -54t-54 -21t-54 21.5t-21 53.5t21 53.5t54 21.5zM185 529v-529h-123v529h123z" />
    <glyph glyph-name="nacute.loclPLK" horiz-adv-x="504" 
d="M374 736l-120 -157l-56 34l84 179zM316 544q61 0 95 -42.5t34 -118.5v-383h-123v368q0 45 -11.5 63t-35.5 18q-46 0 -90 -79v-370h-123v529h107l10 -70q55 85 137 85z" />
    <glyph glyph-name="oacute.loclPLK" horiz-adv-x="512" 
d="M281 792l92 -56l-120 -157l-56 34zM256 544q103 0 160.5 -71.5t57.5 -207.5q0 -131 -58 -205.5t-160 -74.5q-104 0 -161.5 72.5t-57.5 207.5q0 133 58 206t161 73zM256 450q-46 0 -68.5 -43.5t-22.5 -141.5q0 -100 22.5 -143t68.5 -43t68 43.5t22 142.5t-22 142t-68 43z
" />
    <glyph glyph-name="sacute.loclPLK" horiz-adv-x="415" 
d="M239 792l92 -56l-120 -157l-56 34zM212 544q97 0 166 -63l-47 -69q-58 41 -111 41q-31 0 -48.5 -15.5t-17.5 -41.5q0 -27 19.5 -43.5t77.5 -37.5q72 -26 107 -63.5t35 -99.5q0 -78 -56 -122.5t-142 -44.5q-111 0 -185 74l60 67q58 -50 121 -50q35 0 55.5 17.5t20.5 48.5
q0 33 -20 51.5t-81 40.5q-72 26 -103.5 62.5t-31.5 92.5q0 67 49.5 111t131.5 44z" />
    <glyph glyph-name="zacute.loclPLK" horiz-adv-x="391" 
d="M225 792l92 -56l-120 -157l-56 34zM370 529v-89l-221 -343h225l-12 -97h-348v89l222 343h-203v97h337z" />
    <glyph glyph-name="f_i" horiz-adv-x="512" 
d="M257 754q80 0 147 -38l-35 -79q-50 23 -99 23q-39 0 -55 -16t-16 -52v-63h253v-529h-123v440h-130v-440h-123v440h-71v89h71v66q0 70 45 114.5t136 44.5z" />
    <glyph glyph-name="f_l" horiz-adv-x="542" 
d="M511 89l25 -85q-38 -19 -79 -19q-55 0 -86.5 33.5t-31.5 91.5v541q-42 11 -73 11q-37 0 -51 -15.5t-14 -50.5v-67h91l-14 -89h-77v-440h-123v440h-71v89h71v68q0 69 43.5 113t126.5 44q51 0 102 -18l112 12v-633q0 -31 25 -31q9 0 24 5z" />
    <glyph glyph-name="a.sc" horiz-adv-x="455" 
d="M333 0l-29 127h-155l-28 -127h-123l156 566h148l155 -566h-124zM169 217h115l-58 259z" />
    <glyph glyph-name="aacute.sc" horiz-adv-x="455" 
d="M345 751l-199 -90l-34 60l182 122zM333 0l-29 127h-155l-28 -127h-123l156 566h148l155 -566h-124zM169 217h115l-58 259z" />
    <glyph glyph-name="abreve.sc" horiz-adv-x="455" 
d="M231 668q-63 0 -100.5 40t-42.5 112l69 14q17 -79 74 -79q58 0 75 79l69 -14q-5 -72 -42.5 -112t-101.5 -40zM333 0l-29 127h-155l-28 -127h-123l156 566h148l155 -566h-124zM169 217h115l-58 259z" />
    <glyph glyph-name="acircumflex.sc" horiz-adv-x="455" 
d="M232 748l-113 -88l-45 49l120 127h76l120 -127l-45 -49zM333 0l-29 127h-155l-28 -127h-123l156 566h148l155 -566h-124zM169 217h115l-58 259z" />
    <glyph glyph-name="adieresis.sc" horiz-adv-x="455" 
d="M135 678q-28 0 -47 19t-19 48q0 28 19 47.5t47 19.5t46.5 -19.5t18.5 -47.5q0 -29 -18.5 -48t-46.5 -19zM329 678q-28 0 -47 19.5t-19 47.5t19 47.5t47 19.5q29 0 47.5 -19.5t18.5 -47.5q0 -29 -18.5 -48t-47.5 -19zM333 0l-29 127h-155l-28 -127h-123l156 566h148
l155 -566h-124zM169 217h115l-58 259z" />
    <glyph glyph-name="agrave.sc" horiz-adv-x="455" 
d="M353 721l-35 -60l-198 90l50 92zM333 0l-29 127h-155l-28 -127h-123l156 566h148l155 -566h-124zM169 217h115l-58 259z" />
    <glyph glyph-name="amacron.sc" horiz-adv-x="455" 
d="M359 778v-85h-255v85h255zM333 0l-29 127h-155l-28 -127h-123l156 566h148l155 -566h-124zM169 217h115l-58 259z" />
    <glyph glyph-name="aogonek.sc" horiz-adv-x="455" 
d="M435 0q-59 -28 -80.5 -54t-21.5 -55q0 -46 47 -46q24 0 52 7l-9 -82q-30 -8 -59 -8q-54 0 -88.5 29.5t-34.5 79.5q0 80 91 133l-28 123h-155l-28 -127h-123l156 566h148l155 -566h-22zM169 217h115l-58 259z" />
    <glyph glyph-name="aring.sc" horiz-adv-x="455" 
d="M233 645q-53 0 -84 32.5t-31 85.5q0 52 31 85t84 33q52 0 83 -33t31 -85q0 -53 -31 -85.5t-83 -32.5zM233 818q-42 0 -42 -55t42 -55q41 0 41 55t-41 55zM333 0l-29 127h-155l-28 -127h-123l156 566h148l155 -566h-124zM169 217h115l-58 259z" />
    <glyph glyph-name="atilde.sc" horiz-adv-x="455" 
d="M183 722q-25 0 -46 -43l-62 30q37 100 105 100q27 0 58.5 -22t44.5 -22q23 0 44 43l63 -30q-35 -99 -105 -99q-28 0 -59 21.5t-43 21.5zM333 0l-29 127h-155l-28 -127h-123l156 566h148l155 -566h-124zM169 217h115l-58 259z" />
    <glyph glyph-name="ae.sc" horiz-adv-x="637" 
d="M429 89h177v-89h-275l-19 126h-162l-39 -126h-127l205 566h388l-12 -89h-201l24 -145h183v-88h-168zM178 216h120l-40 259z" />
    <glyph glyph-name="b.sc" horiz-adv-x="483" 
d="M331 300q58 -11 92 -41.5t34 -92.5q0 -166 -224 -166h-168v566h147q223 0 223 -146q0 -93 -104 -120zM227 478h-39v-140h45q81 0 81 72q0 37 -21.5 52.5t-65.5 15.5zM237 90q46 0 71 18t25 64q0 83 -88 83h-57v-165h49z" />
    <glyph glyph-name="c.sc" horiz-adv-x="445" 
d="M270 578q91 0 159 -62l-57 -69q-46 39 -94 39q-113 0 -113 -201q0 -203 113 -203q48 0 101 46l57 -70q-69 -71 -167 -71q-104 0 -167.5 76t-63.5 222q0 141 64.5 217t167.5 76z" />
    <glyph glyph-name="cacute.sc" horiz-adv-x="445" 
d="M342 843l51 -92l-199 -90l-34 60zM270 578q91 0 159 -62l-57 -69q-46 39 -94 39q-113 0 -113 -201q0 -203 113 -203q48 0 101 46l57 -70q-69 -71 -167 -71q-104 0 -167.5 76t-63.5 222q0 141 64.5 217t167.5 76z" />
    <glyph glyph-name="cacute.sc.loclPLK" horiz-adv-x="445" 
d="M304 836l92 -56l-120 -157l-56 34zM270 578q91 0 159 -62l-57 -69q-46 39 -94 39q-113 0 -113 -201q0 -203 113 -203q48 0 101 46l57 -70q-69 -71 -167 -71q-104 0 -167.5 76t-63.5 222q0 141 64.5 217t167.5 76z" />
    <glyph glyph-name="ccaron.sc" horiz-adv-x="445" 
d="M393 826l45 -49l-120 -127h-76l-120 127l45 49l113 -89zM270 578q91 0 159 -62l-57 -69q-46 39 -94 39q-113 0 -113 -201q0 -203 113 -203q48 0 101 46l57 -70q-69 -71 -167 -71q-104 0 -167.5 76t-63.5 222q0 141 64.5 217t167.5 76z" />
    <glyph glyph-name="ccedilla.sc" horiz-adv-x="445" 
d="M436 58q-55 -57 -131 -69v-44q87 -13 87 -90q0 -49 -33.5 -77t-89.5 -28q-54 0 -92 26l30 58q26 -13 54 -13q40 0 40 34q0 40 -78 40l10 94q-89 13 -142 88t-53 208q0 141 64.5 217t167.5 76q91 0 159 -62l-57 -69q-46 39 -94 39q-113 0 -113 -201q0 -203 113 -203
q48 0 101 46z" />
    <glyph glyph-name="cdotaccent.sc" horiz-adv-x="445" 
d="M281 824q33 0 54 -21.5t21 -53.5q0 -33 -21 -54t-54 -21t-54 21.5t-21 53.5t21 53.5t54 21.5zM270 578q91 0 159 -62l-57 -69q-46 39 -94 39q-113 0 -113 -201q0 -203 113 -203q48 0 101 46l57 -70q-69 -71 -167 -71q-104 0 -167.5 76t-63.5 222q0 141 64.5 217t167.5 76
z" />
    <glyph glyph-name="d.sc" horiz-adv-x="515" 
d="M207 566q59 0 103 -11.5t84 -40t61.5 -86t21.5 -141.5q0 -287 -261 -287h-151v566h142zM222 477h-34v-388h36q29 0 50.5 8t39.5 28.5t27.5 61t9.5 100.5t-9.5 99t-28.5 58t-39.5 26t-51.5 7z" />
    <glyph glyph-name="eth.sc" horiz-adv-x="523" 
d="M215 566q59 0 103 -11.5t84 -40t61.5 -86t21.5 -141.5q0 -287 -261 -287h-151v252h-47v79h47v235h142zM232 89q29 0 50 8t39.5 28.5t27.5 61t9 100.5q0 114 -32.5 152t-95.5 38h-35v-146h79v-79h-79v-163h37z" />
    <glyph glyph-name="dcaron.sc" horiz-adv-x="515" 
d="M354 826l45 -49l-120 -127h-76l-120 127l45 49l113 -89zM207 566q59 0 103 -11.5t84 -40t61.5 -86t21.5 -141.5q0 -287 -261 -287h-151v566h142zM222 477h-34v-388h36q29 0 50.5 8t39.5 28.5t27.5 61t9.5 100.5t-9.5 99t-28.5 58t-39.5 26t-51.5 7z" />
    <glyph glyph-name="dcroat.sc" horiz-adv-x="523" 
d="M215 566q59 0 103 -11.5t84 -40t61.5 -86t21.5 -141.5q0 -287 -261 -287h-151v252h-47v79h47v235h142zM232 89q29 0 50 8t39.5 28.5t27.5 61t9 100.5q0 114 -32.5 152t-95.5 38h-35v-146h79v-79h-79v-163h37z" />
    <glyph glyph-name="e.sc" horiz-adv-x="413" 
d="M380 566l-13 -89h-182v-144h160v-88h-160v-156h194v-89h-316v566h317z" />
    <glyph glyph-name="eacute.sc" horiz-adv-x="413" 
d="M288 843l51 -92l-199 -90l-34 60zM380 566l-13 -89h-182v-144h160v-88h-160v-156h194v-89h-316v566h317z" />
    <glyph glyph-name="ecaron.sc" horiz-adv-x="413" 
d="M339 826l45 -49l-120 -127h-76l-120 127l45 49l113 -89zM380 566l-13 -89h-182v-144h160v-88h-160v-156h194v-89h-316v566h317z" />
    <glyph glyph-name="ecircumflex.sc" horiz-adv-x="413" 
d="M113 660l-45 49l120 127h76l120 -127l-45 -49l-113 88zM380 566l-13 -89h-182v-144h160v-88h-160v-156h194v-89h-316v566h317z" />
    <glyph glyph-name="edieresis.sc" horiz-adv-x="413" 
d="M129 812q28 0 46.5 -19.5t18.5 -47.5q0 -29 -18.5 -48t-46.5 -19t-47 19t-19 48q0 28 19 47.5t47 19.5zM323 812q29 0 47.5 -19.5t18.5 -47.5q0 -29 -18.5 -48t-47.5 -19q-28 0 -47 19.5t-19 47.5t19 47.5t47 19.5zM380 566l-13 -89h-182v-144h160v-88h-160v-156h194v-89
h-316v566h317z" />
    <glyph glyph-name="edotaccent.sc" horiz-adv-x="413" 
d="M227 824q33 0 54 -21.5t21 -53.5q0 -33 -21 -54t-54 -21t-54 21.5t-21 53.5t21 53.5t54 21.5zM380 566l-13 -89h-182v-144h160v-88h-160v-156h194v-89h-316v566h317z" />
    <glyph glyph-name="egrave.sc" horiz-adv-x="413" 
d="M165 843l183 -122l-35 -60l-198 90zM380 566l-13 -89h-182v-144h160v-88h-160v-156h194v-89h-316v566h317z" />
    <glyph glyph-name="emacron.sc" horiz-adv-x="413" 
d="M354 693h-255v85h255v-85zM380 566l-13 -89h-182v-144h160v-88h-160v-156h194v-89h-316v566h317z" />
    <glyph glyph-name="eogonek.sc" horiz-adv-x="413" 
d="M185 245v-156h194v-89h-30q-102 -49 -102 -108q0 -47 47 -47q24 0 52 7l-9 -82q-29 -8 -59 -8q-54 0 -87.5 30t-33.5 78q0 90 115 130h-209v566h317l-13 -89h-182v-144h160v-88h-160z" />
    <glyph glyph-name="f.sc" horiz-adv-x="386" 
d="M375 566l-14 -89h-173v-157h149v-90h-149v-230h-123v566h310z" />
    <glyph glyph-name="f_i.sc" horiz-adv-x="639" 
d="M375 566l-14 -89h-173v-157h149v-90h-149v-230h-123v566h310zM574 566v-566h-123v566h123z" />
    <glyph glyph-name="f_l.sc" horiz-adv-x="785" 
d="M375 566l-14 -89h-173v-157h149v-90h-149v-230h-123v566h310zM574 566v-468h201l-13 -98h-311v566h123z" />
    <glyph glyph-name="fi.sc" horiz-adv-x="639" 
d="M375 566l-14 -89h-173v-157h149v-90h-149v-230h-123v566h310zM574 566v-566h-123v566h123z" />
    <glyph glyph-name="fl.sc" horiz-adv-x="785" 
d="M375 566l-14 -89h-173v-157h149v-90h-149v-230h-123v566h310zM574 566v-468h201l-13 -98h-311v566h123z" />
    <glyph glyph-name="g.sc" horiz-adv-x="506" 
d="M284 578q102 0 173 -68l-62 -66q-52 44 -105 44q-125 0 -125 -204q0 -116 25.5 -161t81.5 -45q40 0 71 18v140h-68l-12 88h196v-279q-82 -58 -187 -58q-234 0 -234 297q0 140 69.5 217t176.5 77z" />
    <glyph glyph-name="gbreve.sc" horiz-adv-x="506" 
d="M281 668q-63 0 -100.5 40t-42.5 112l69 14q17 -79 74 -79q58 0 75 79l69 -14q-5 -72 -42.5 -112t-101.5 -40zM284 578q102 0 173 -68l-62 -66q-52 44 -105 44q-125 0 -125 -204q0 -116 25.5 -161t81.5 -45q40 0 71 18v140h-68l-12 88h196v-279q-82 -58 -187 -58
q-234 0 -234 297q0 140 69.5 217t176.5 77z" />
    <glyph glyph-name="gcommaaccent.sc" horiz-adv-x="506" 
d="M284 578q102 0 173 -68l-62 -66q-52 44 -105 44q-125 0 -125 -204q0 -116 25.5 -161t81.5 -45q40 0 71 18v140h-68l-12 88h196v-279q-82 -58 -187 -58q-234 0 -234 297q0 140 69.5 217t176.5 77zM276 -73q28 0 45.5 -18.5t17.5 -47.5q0 -27 -22 -79l-39 -91h-63l27 115
q-31 21 -31 55q0 28 18.5 47t46.5 19z" />
    <glyph glyph-name="gdotaccent.sc" horiz-adv-x="506" 
d="M282 824q33 0 54 -21.5t21 -53.5q0 -33 -21 -54t-54 -21t-54 21.5t-21 53.5t21 53.5t54 21.5zM284 578q102 0 173 -68l-62 -66q-52 44 -105 44q-125 0 -125 -204q0 -116 25.5 -161t81.5 -45q40 0 71 18v140h-68l-12 88h196v-279q-82 -58 -187 -58q-234 0 -234 297
q0 140 69.5 217t176.5 77z" />
    <glyph glyph-name="h.sc" horiz-adv-x="530" 
d="M465 566v-566h-123v247h-154v-247h-123v566h123v-222h154v222h123z" />
    <glyph glyph-name="hbar.sc" horiz-adv-x="535" 
d="M513 494v-74h-45v-420h-123v247h-154v-247h-123v420h-46v74h46v72h123v-72h154v72h123v-72h45zM345 344v76h-154v-76h154z" />
    <glyph glyph-name="i.sc" horiz-adv-x="253" 
d="M188 566v-566h-123v566h123z" />
    <glyph glyph-name="iacute.sc" horiz-adv-x="253" 
d="M192 843l51 -92l-199 -90l-34 60zM188 566v-566h-123v566h123z" />
    <glyph glyph-name="icircumflex.sc" horiz-adv-x="253" 
d="M17 660l-45 49l120 127h76l120 -127l-45 -49l-113 88zM188 566v-566h-123v566h123z" />
    <glyph glyph-name="idieresis.sc" horiz-adv-x="253" 
d="M33 812q28 0 46.5 -19.5t18.5 -47.5q0 -29 -18.5 -48t-46.5 -19t-47 19t-19 48q0 28 19 47.5t47 19.5zM227 812q29 0 47.5 -19.5t18.5 -47.5q0 -29 -18.5 -48t-47.5 -19q-28 0 -47 19.5t-19 47.5t19 47.5t47 19.5zM188 566v-566h-123v566h123z" />
    <glyph glyph-name="i.sc.loclTRK" horiz-adv-x="253" 
d="M131 824q33 0 54 -21.5t21 -53.5q0 -33 -21 -54t-54 -21t-54 21.5t-21 53.5t21 53.5t54 21.5zM188 566v-566h-123v566h123z" />
    <glyph glyph-name="igrave.sc" horiz-adv-x="253" 
d="M69 843l183 -122l-35 -60l-198 90zM188 566v-566h-123v566h123z" />
    <glyph glyph-name="imacron.sc" horiz-adv-x="253" 
d="M258 693h-255v85h255v-85zM188 566v-566h-123v566h123z" />
    <glyph glyph-name="iogonek.sc" horiz-adv-x="253" 
d="M97 -109q0 -46 47 -46q24 0 52 7l-9 -82q-30 -8 -59 -8q-54 0 -88.5 29.5t-34.5 79.5q0 78 84 129h-24v566h123v-542l11 -24q-59 -28 -80.5 -54t-21.5 -55z" />
    <glyph glyph-name="j.sc" horiz-adv-x="253" 
d="M191 566v-484q0 -94 -43.5 -140.5t-122.5 -74.5l-32 84q47 22 61.5 50t14.5 84v481h122z" />
    <glyph glyph-name="k.sc" horiz-adv-x="491" 
d="M188 566v-566h-123v566h123zM484 566l-167 -254l180 -312h-136l-170 303l169 263h124z" />
    <glyph glyph-name="kcommaaccent.sc" horiz-adv-x="491" 
d="M188 566v-566h-123v566h123zM484 566l-167 -254l180 -312h-136l-170 303l169 263h124zM265 -73q28 0 45.5 -18.5t17.5 -47.5q0 -27 -22 -79l-39 -91h-63l27 115q-31 21 -31 55q0 28 18.5 47t46.5 19z" />
    <glyph glyph-name="l.sc" horiz-adv-x="399" 
d="M188 566v-468h201l-13 -98h-311v566h123z" />
    <glyph glyph-name="lacute.sc" horiz-adv-x="399" 
d="M192 843l51 -92l-199 -90l-34 60zM188 566v-468h201l-13 -98h-311v566h123z" />
    <glyph glyph-name="lcaron.sc" horiz-adv-x="399" 
d="M251 579l75 -47l-26 -165l-48 45zM188 566v-468h201l-13 -98h-311v566h123z" />
    <glyph glyph-name="lcommaaccent.sc" horiz-adv-x="399" 
d="M188 566v-468h201l-13 -98h-311v566h123zM226 -73q28 0 45.5 -18.5t17.5 -47.5q0 -27 -22 -79l-39 -91h-63l27 115q-31 21 -31 55q0 28 18.5 47t46.5 19z" />
    <glyph glyph-name="ldot.sc" horiz-adv-x="407" 
d="M188 566v-468h201l-13 -98h-311v566h123zM328 393q31 0 50.5 -20t19.5 -50t-19.5 -50t-50.5 -20t-50.5 20t-19.5 50t19.5 50t50.5 20z" />
    <glyph glyph-name="lslash.sc" horiz-adv-x="419" 
d="M208 98h202l-13 -98h-312v185l-34 -23l-41 62l75 54v288h123v-203l99 69l42 -63l-141 -98v-173z" />
    <glyph glyph-name="m.sc" horiz-adv-x="624" 
d="M539 566l40 -566h-116l-8 229q-6 166 -6 243l-83 -411h-114l-84 410q2 -144 -2 -244l-9 -227h-116l40 566h154l77 -396l74 396h153z" />
    <glyph glyph-name="n.sc" horiz-adv-x="527" 
d="M462 566v-566h-153l-153 454q16 -133 16 -234v-220h-107v566h153l153 -454q-15 123 -15 209v245h106z" />
    <glyph glyph-name="nacute.sc" horiz-adv-x="527" 
d="M333 843l51 -92l-199 -90l-34 60zM462 566v-566h-153l-153 454q16 -133 16 -234v-220h-107v566h153l153 -454q-15 123 -15 209v245h106z" />
    <glyph glyph-name="nacute.sc.loclPLK" horiz-adv-x="527" 
d="M295 836l92 -56l-120 -157l-56 34zM462 566v-566h-153l-153 454q16 -133 16 -234v-220h-107v566h153l153 -454q-15 123 -15 209v245h106z" />
    <glyph glyph-name="napostrophe.sc" horiz-adv-x="527" 
d="M462 566v-566h-153l-153 454q16 -133 16 -234v-220h-107v566h153l153 -454q-15 123 -15 209v245h106z" />
    <glyph glyph-name="ncaron.sc" horiz-adv-x="527" 
d="M384 826l45 -49l-120 -127h-76l-120 127l45 49l113 -89zM462 566v-566h-153l-153 454q16 -133 16 -234v-220h-107v566h153l153 -454q-15 123 -15 209v245h106z" />
    <glyph glyph-name="ncommaaccent.sc" horiz-adv-x="527" 
d="M462 566v-566h-153l-153 454q16 -133 16 -234v-220h-107v566h153l153 -454q-15 123 -15 209v245h106zM269 -73q28 0 45.5 -18.5t17.5 -47.5q0 -27 -22 -79l-39 -91h-63l27 115q-31 21 -31 55q0 28 18.5 47t46.5 19z" />
    <glyph glyph-name="eng.sc" horiz-adv-x="527" 
d="M462 1h1v-46q0 -83 -43.5 -127.5t-117.5 -44.5q-66 0 -116 40l44 72q33 -19 58 -19q52 0 52 67v57h-31l-153 454q16 -133 16 -234v-220h-107v566h153l153 -454q-15 123 -15 209v245h106v-565z" />
    <glyph glyph-name="ntilde.sc" horiz-adv-x="527" 
d="M324 679q-28 0 -59 21.5t-43 21.5q-15 0 -25 -10t-21 -33l-62 30q37 100 105 100q27 0 58.5 -22t44.5 -22q22 0 44 43l63 -30q-35 -99 -105 -99zM462 566v-566h-153l-153 454q16 -133 16 -234v-220h-107v566h153l153 -454q-15 123 -15 209v245h106z" />
    <glyph glyph-name="o.sc" horiz-adv-x="540" 
d="M270 578q112 0 172 -73.5t60 -220.5q0 -146 -60.5 -221.5t-171.5 -75.5t-171.5 74.5t-60.5 222.5q0 144 61 219t171 75zM270 487q-53 0 -79 -45.5t-26 -157.5q0 -114 26 -160.5t79 -46.5q54 0 79.5 46t25.5 161q0 112 -26 157.5t-79 45.5z" />
    <glyph glyph-name="oacute.sc" horiz-adv-x="540" 
d="M336 843l51 -92l-199 -90l-34 60zM270 578q112 0 172 -73.5t60 -220.5q0 -146 -60.5 -221.5t-171.5 -75.5t-171.5 74.5t-60.5 222.5q0 144 61 219t171 75zM270 487q-53 0 -79 -45.5t-26 -157.5q0 -114 26 -160.5t79 -46.5q54 0 79.5 46t25.5 161q0 112 -26 157.5
t-79 45.5z" />
    <glyph glyph-name="oacute.sc.loclPLK" horiz-adv-x="540" 
d="M298 836l92 -56l-120 -157l-56 34zM270 578q112 0 172 -73.5t60 -220.5q0 -146 -60.5 -221.5t-171.5 -75.5t-171.5 74.5t-60.5 222.5q0 144 61 219t171 75zM270 487q-53 0 -79 -45.5t-26 -157.5q0 -114 26 -160.5t79 -46.5q54 0 79.5 46t25.5 161q0 112 -26 157.5
t-79 45.5z" />
    <glyph glyph-name="ocircumflex.sc" horiz-adv-x="540" 
d="M161 660l-45 49l120 127h76l120 -127l-45 -49l-113 88zM270 578q112 0 172 -73.5t60 -220.5q0 -146 -60.5 -221.5t-171.5 -75.5t-171.5 74.5t-60.5 222.5q0 144 61 219t171 75zM270 487q-53 0 -79 -45.5t-26 -157.5q0 -114 26 -160.5t79 -46.5q54 0 79.5 46t25.5 161
q0 112 -26 157.5t-79 45.5z" />
    <glyph glyph-name="odieresis.sc" horiz-adv-x="540" 
d="M177 812q28 0 46.5 -19.5t18.5 -47.5q0 -29 -18.5 -48t-46.5 -19t-47 19t-19 48q0 28 19 47.5t47 19.5zM371 812q29 0 47.5 -19.5t18.5 -47.5q0 -29 -18.5 -48t-47.5 -19q-28 0 -47 19.5t-19 47.5t19 47.5t47 19.5zM270 578q112 0 172 -73.5t60 -220.5
q0 -146 -60.5 -221.5t-171.5 -75.5t-171.5 74.5t-60.5 222.5q0 144 61 219t171 75zM270 487q-53 0 -79 -45.5t-26 -157.5q0 -114 26 -160.5t79 -46.5q54 0 79.5 46t25.5 161q0 112 -26 157.5t-79 45.5z" />
    <glyph glyph-name="ograve.sc" horiz-adv-x="540" 
d="M213 843l183 -122l-35 -60l-198 90zM270 578q112 0 172 -73.5t60 -220.5q0 -146 -60.5 -221.5t-171.5 -75.5t-171.5 74.5t-60.5 222.5q0 144 61 219t171 75zM270 487q-53 0 -79 -45.5t-26 -157.5q0 -114 26 -160.5t79 -46.5q54 0 79.5 46t25.5 161q0 112 -26 157.5
t-79 45.5z" />
    <glyph glyph-name="ohungarumlaut.sc" horiz-adv-x="540" 
d="M235 873l86 -43l-94 -165l-64 27zM381 873l85 -45l-102 -168l-63 29zM270 578q112 0 172 -73.5t60 -220.5q0 -146 -60.5 -221.5t-171.5 -75.5t-171.5 74.5t-60.5 222.5q0 144 61 219t171 75zM270 487q-53 0 -79 -45.5t-26 -157.5q0 -114 26 -160.5t79 -46.5q54 0 79.5 46
t25.5 161q0 112 -26 157.5t-79 45.5z" />
    <glyph glyph-name="omacron.sc" horiz-adv-x="540" 
d="M402 693h-255v85h255v-85zM270 578q112 0 172 -73.5t60 -220.5q0 -146 -60.5 -221.5t-171.5 -75.5t-171.5 74.5t-60.5 222.5q0 144 61 219t171 75zM270 487q-53 0 -79 -45.5t-26 -157.5q0 -114 26 -160.5t79 -46.5q54 0 79.5 46t25.5 161q0 112 -26 157.5t-79 45.5z" />
    <glyph glyph-name="oslash.sc" horiz-adv-x="540" 
d="M391 549q111 -66 111 -265q0 -145 -60.5 -221t-171.5 -76q-23 0 -34 2l-25 -98l-91 22l30 104q-112 67 -112 267q0 145 60.5 219.5t171.5 74.5q24 0 35 -2l26 101l90 -22zM270 487q-59 0 -86 -44.5t-27 -158.5q0 -139 37 -179l98 381q-7 1 -22 1zM270 77q60 0 86.5 45.5
t26.5 161.5q0 137 -37 177l-98 -383q7 -1 22 -1z" />
    <glyph glyph-name="otilde.sc" horiz-adv-x="540" 
d="M327 679q-28 0 -59 21.5t-43 21.5q-25 0 -46 -43l-62 30q37 100 105 100q27 0 58.5 -22t44.5 -22q23 0 44 43l63 -30q-35 -99 -105 -99zM270 578q112 0 172 -73.5t60 -220.5q0 -146 -60.5 -221.5t-171.5 -75.5t-171.5 74.5t-60.5 222.5q0 144 61 219t171 75zM270 487
q-53 0 -79 -45.5t-26 -157.5q0 -114 26 -160.5t79 -46.5q54 0 79.5 46t25.5 161q0 112 -26 157.5t-79 45.5z" />
    <glyph glyph-name="oe.sc" horiz-adv-x="693" 
d="M486 245q-8 -93 -54 -156h227v-89h-330q-30 -13 -69 -13q-104 0 -163 75t-59 222q0 146 59.5 221.5t164.5 75.5q39 0 71 -13h327l-12 -90h-212q41 -59 50 -145h139v-88h-139zM262 78q50 0 74 46.5t24 159.5t-24.5 159.5t-73.5 46.5q-48 0 -72.5 -46t-24.5 -160t24.5 -160
t72.5 -46z" />
    <glyph glyph-name="p.sc" horiz-adv-x="465" 
d="M224 566q109 0 166.5 -46t57.5 -137q0 -95 -57 -142.5t-156 -47.5h-47v-193h-123v566h159zM227 283q48 0 72.5 22t24.5 78q0 94 -98 94h-38v-194h39z" />
    <glyph glyph-name="thorn.sc" horiz-adv-x="465" 
d="M224 477q108 0 166 -46t58 -137q0 -95 -56.5 -142.5t-156.5 -47.5h-47v-104h-123v566h123v-89h36zM227 193q48 0 72.5 22.5t24.5 78.5q0 94 -98 94h-38v-195h39z" />
    <glyph glyph-name="q.sc" horiz-adv-x="540" 
d="M377 35q92 0 161 -55l-75 -93q-43 50 -88.5 76t-111.5 26q-106 0 -165.5 74.5t-59.5 220.5q0 142 61 218t171 76q111 0 171.5 -74t60.5 -220q0 -102 -33 -159t-92 -90zM165 284q0 -114 25.5 -160t79.5 -46q55 0 80 45.5t25 160.5q0 112 -25.5 157.5t-79.5 45.5
q-53 0 -79 -46t-26 -157z" />
    <glyph glyph-name="r.sc" horiz-adv-x="486" 
d="M347 0l-108 222h-51v-222h-123v566h162q220 0 220 -168q0 -57 -23 -93t-74 -60l130 -245h-133zM188 479v-173h51q85 0 85 89q0 43 -23 63.5t-73 20.5h-40z" />
    <glyph glyph-name="racute.sc" horiz-adv-x="486" 
d="M364 751l-199 -90l-34 60l182 122zM347 0l-108 222h-51v-222h-123v566h162q220 0 220 -168q0 -57 -23 -93t-74 -60l130 -245h-133zM188 479v-173h51q85 0 85 89q0 43 -23 63.5t-73 20.5h-40z" />
    <glyph glyph-name="rcaron.sc" horiz-adv-x="486" 
d="M289 650h-76l-120 127l45 49l113 -89l113 89l45 -49zM347 0l-108 222h-51v-222h-123v566h162q220 0 220 -168q0 -57 -23 -93t-74 -60l130 -245h-133zM188 479v-173h51q85 0 85 89q0 43 -23 63.5t-73 20.5h-40z" />
    <glyph glyph-name="rcommaaccent.sc" horiz-adv-x="486" 
d="M350 245l130 -245h-133l-108 222h-51v-222h-123v566h162q220 0 220 -168q0 -57 -23 -93t-74 -60zM188 479v-173h51q85 0 85 89q0 43 -23 63.5t-73 20.5h-40zM259 -73q28 0 45.5 -18.5t17.5 -47.5q0 -27 -22 -79l-39 -91h-63l27 115q-31 21 -31 55q0 28 18.5 47t46.5 19z
" />
    <glyph glyph-name="s.sc" horiz-adv-x="440" 
d="M228 578q110 0 177 -72l-56 -66q-53 47 -113 47q-34 0 -53.5 -16t-19.5 -46q0 -29 19.5 -46t78.5 -38q78 -27 115.5 -66.5t37.5 -109.5q0 -80 -55 -129t-150 -49q-129 0 -200 80l61 67q61 -55 133 -55q39 0 61.5 20t22.5 56q0 34 -19 53t-73 38q-88 30 -123 69t-35 101
q0 74 54.5 118t136.5 44z" />
    <glyph glyph-name="sacute.sc" horiz-adv-x="440" 
d="M296 843l51 -92l-199 -90l-34 60zM228 578q110 0 177 -72l-56 -66q-53 47 -113 47q-34 0 -53.5 -16t-19.5 -46q0 -29 19.5 -46t78.5 -38q78 -27 115.5 -66.5t37.5 -109.5q0 -80 -55 -129t-150 -49q-129 0 -200 80l61 67q61 -55 133 -55q39 0 61.5 20t22.5 56q0 34 -19 53
t-73 38q-88 30 -123 69t-35 101q0 74 54.5 118t136.5 44z" />
    <glyph glyph-name="sacute.sc.loclPLK" horiz-adv-x="440" 
d="M258 836l92 -56l-120 -157l-56 34zM228 578q110 0 177 -72l-56 -66q-53 47 -113 47q-34 0 -53.5 -16t-19.5 -46q0 -29 19.5 -46t78.5 -38q78 -27 115.5 -66.5t37.5 -109.5q0 -80 -55 -129t-150 -49q-129 0 -200 80l61 67q61 -55 133 -55q39 0 61.5 20t22.5 56
q0 34 -19 53t-73 38q-88 30 -123 69t-35 101q0 74 54.5 118t136.5 44z" />
    <glyph glyph-name="scaron.sc" horiz-adv-x="440" 
d="M347 826l45 -49l-120 -127h-76l-120 127l45 49l113 -89zM228 578q110 0 177 -72l-56 -66q-53 47 -113 47q-34 0 -53.5 -16t-19.5 -46q0 -29 19.5 -46t78.5 -38q78 -27 115.5 -66.5t37.5 -109.5q0 -80 -55 -129t-150 -49q-129 0 -200 80l61 67q61 -55 133 -55
q39 0 61.5 20t22.5 56q0 34 -19 53t-73 38q-88 30 -123 69t-35 101q0 74 54.5 118t136.5 44z" />
    <glyph glyph-name="scedilla.sc" horiz-adv-x="440" 
d="M414 165q0 -69 -42 -116t-117 -59v-45q87 -13 87 -90q0 -49 -33.5 -77t-89.5 -28q-54 0 -92 26l30 58q26 -13 54 -13q40 0 40 34q0 40 -78 40l10 93q-109 7 -174 79l61 67q61 -55 133 -55q39 0 61.5 20t22.5 56q0 34 -19 53t-73 38q-88 30 -123 69t-35 101q0 74 54.5 118
t136.5 44q110 0 177 -72l-56 -66q-53 47 -113 47q-34 0 -53.5 -16t-19.5 -46q0 -29 19.5 -46t78.5 -38q78 -27 115.5 -66.5t37.5 -109.5z" />
    <glyph glyph-name="scommaaccent.sc" horiz-adv-x="440" 
d="M228 578q110 0 177 -72l-56 -66q-53 47 -113 47q-34 0 -53.5 -16t-19.5 -46q0 -29 19.5 -46t78.5 -38q78 -27 115.5 -66.5t37.5 -109.5q0 -80 -55 -129t-150 -49q-129 0 -200 80l61 67q61 -55 133 -55q39 0 61.5 20t22.5 56q0 34 -19 53t-73 38q-88 30 -123 69t-35 101
q0 74 54.5 118t136.5 44zM222 -73q28 0 45.5 -18.5t17.5 -47.5q0 -27 -22 -79l-39 -91h-63l27 115q-31 21 -31 55q0 28 18.5 47t46.5 19z" />
    <glyph glyph-name="germandbls.sc" horiz-adv-x="520" 
d="M249 579q95 0 207 -56v-72l-112 -130q75 -15 112.5 -53t37.5 -107q0 -82 -51.5 -127.5t-129.5 -45.5q-54 0 -92 18l30 85q22 -9 46 -9q32 0 51.5 19.5t19.5 59.5q0 88 -125 96v73l113 137q-57 20 -98 20q-74 0 -74 -84v-403h-122v397q0 86 49 134t138 48z" />
    <glyph glyph-name="t.sc" horiz-adv-x="406" 
d="M403 566l-12 -95h-126v-471h-123v471h-133v95h394z" />
    <glyph glyph-name="tbar.sc" horiz-adv-x="406" 
d="M391 471h-126v-124h83v-75h-83v-272h-123v272h-83v75h83v124h-133v95h394z" />
    <glyph glyph-name="tcaron.sc" horiz-adv-x="406" 
d="M320 826l45 -49l-120 -127h-76l-120 127l45 49l113 -89zM403 566l-12 -95h-126v-471h-123v471h-133v95h394z" />
    <glyph glyph-name="uni0163.sc" horiz-adv-x="406" 
d="M391 471h-126v-455v-68q43 -5 65.5 -30t22.5 -62q0 -50 -33.5 -78t-90.5 -28q-56 0 -91 26l29 62q29 -17 52 -17q44 0 44 36q0 38 -79 38l11 105h-53v471h-133v95h394z" />
    <glyph glyph-name="uni021B.sc" horiz-adv-x="406" 
d="M403 566l-12 -95h-126v-471h-123v471h-133v95h394zM209 -73q28 0 45.5 -18.5t17.5 -47.5q0 -27 -22 -79l-39 -91h-63l27 115q-31 21 -31 55q0 28 18.5 47t46.5 19z" />
    <glyph glyph-name="u.sc" horiz-adv-x="513" 
d="M458 566v-399q0 -78 -52 -129t-150 -51t-149.5 50t-51.5 130v399h123v-393q0 -94 78 -94q79 0 79 94v393h123z" />
    <glyph glyph-name="uacute.sc" horiz-adv-x="513" 
d="M323 843l51 -92l-199 -90l-34 60zM458 566v-399q0 -78 -52 -129t-150 -51t-149.5 50t-51.5 130v399h123v-393q0 -94 78 -94q79 0 79 94v393h123z" />
    <glyph glyph-name="ucircumflex.sc" horiz-adv-x="513" 
d="M148 660l-45 49l120 127h76l120 -127l-45 -49l-113 88zM458 566v-399q0 -78 -52 -129t-150 -51t-149.5 50t-51.5 130v399h123v-393q0 -94 78 -94q79 0 79 94v393h123z" />
    <glyph glyph-name="udieresis.sc" horiz-adv-x="513" 
d="M163 812q28 0 46.5 -19.5t18.5 -47.5q0 -29 -18.5 -48t-46.5 -19t-47 19t-19 48q0 28 19 47.5t47 19.5zM357 812q29 0 47.5 -19.5t18.5 -47.5q0 -29 -18.5 -48t-47.5 -19q-28 0 -47 19.5t-19 47.5t19 47.5t47 19.5zM458 566v-399q0 -78 -52 -129t-150 -51t-149.5 50
t-51.5 130v399h123v-393q0 -94 78 -94q79 0 79 94v393h123z" />
    <glyph glyph-name="ugrave.sc" horiz-adv-x="513" 
d="M199 843l183 -122l-35 -60l-198 90zM458 566v-399q0 -78 -52 -129t-150 -51t-149.5 50t-51.5 130v399h123v-393q0 -94 78 -94q79 0 79 94v393h123z" />
    <glyph glyph-name="uhungarumlaut.sc" horiz-adv-x="513" 
d="M222 873l86 -43l-94 -165l-64 27zM368 873l85 -45l-102 -168l-63 29zM458 566v-399q0 -78 -52 -129t-150 -51t-149.5 50t-51.5 130v399h123v-393q0 -94 78 -94q79 0 79 94v393h123z" />
    <glyph glyph-name="umacron.sc" horiz-adv-x="513" 
d="M388 693h-255v85h255v-85zM458 566v-399q0 -78 -52 -129t-150 -51t-149.5 50t-51.5 130v399h123v-393q0 -94 78 -94q79 0 79 94v393h123z" />
    <glyph glyph-name="uogonek.sc" horiz-adv-x="513" 
d="M335 566h123v-399q0 -59 -31 -104t-90 -64q-99 -49 -99 -107q0 -47 47 -47q24 0 52 7l-9 -82q-29 -8 -59 -8q-54 0 -87.5 30t-33.5 78q0 75 86 118q-87 6 -133 55t-46 124v399h123v-393q0 -94 78 -94q79 0 79 94v393z" />
    <glyph glyph-name="uring.sc" horiz-adv-x="513" 
d="M262 881q52 0 83 -33t31 -85q0 -53 -31 -85.5t-83 -32.5q-53 0 -84 32.5t-31 85.5q0 52 31 85t84 33zM262 818q-42 0 -42 -55t42 -55q41 0 41 55t-41 55zM458 566v-399q0 -78 -52 -129t-150 -51t-149.5 50t-51.5 130v399h123v-393q0 -94 78 -94q79 0 79 94v393h123z" />
    <glyph glyph-name="v.sc" horiz-adv-x="441" 
d="M443 566l-144 -566h-153l-148 566h127l99 -467l96 467h123z" />
    <glyph glyph-name="w.sc" horiz-adv-x="647" 
d="M631 566l-86 -566h-157l-66 438l-67 -438h-156l-84 566h120l53 -472l72 472h129l70 -473l57 473h115z" />
    <glyph glyph-name="wacute.sc" horiz-adv-x="647" 
d="M391 843l51 -92l-199 -90l-34 60zM631 566l-86 -566h-157l-66 438l-67 -438h-156l-84 566h120l53 -472l72 472h129l70 -473l57 473h115z" />
    <glyph glyph-name="wcircumflex.sc" horiz-adv-x="647" 
d="M216 660l-45 49l120 127h76l120 -127l-45 -49l-113 88zM631 566l-86 -566h-157l-66 438l-67 -438h-156l-84 566h120l53 -472l72 472h129l70 -473l57 473h115z" />
    <glyph glyph-name="wdieresis.sc" horiz-adv-x="647" 
d="M231 812q28 0 46.5 -19.5t18.5 -47.5q0 -29 -18.5 -48t-46.5 -19t-47 19t-19 48q0 28 19 47.5t47 19.5zM425 812q29 0 47.5 -19.5t18.5 -47.5q0 -29 -18.5 -48t-47.5 -19q-28 0 -47 19.5t-19 47.5t19 47.5t47 19.5zM631 566l-86 -566h-157l-66 438l-67 -438h-156l-84 566
h120l53 -472l72 472h129l70 -473l57 473h115z" />
    <glyph glyph-name="wgrave.sc" horiz-adv-x="647" 
d="M267 843l183 -122l-35 -60l-198 90zM631 566l-86 -566h-157l-66 438l-67 -438h-156l-84 566h120l53 -472l72 472h129l70 -473l57 473h115z" />
    <glyph glyph-name="x.sc" horiz-adv-x="434" 
d="M436 0h-131l-90 219l-89 -219h-128l146 302l-135 264h131l78 -188l79 188h127l-137 -260z" />
    <glyph glyph-name="y.sc" horiz-adv-x="445" 
d="M449 566l-165 -352v-214h-123v213l-165 353h130l99 -259l98 259h126z" />
    <glyph glyph-name="yacute.sc" horiz-adv-x="445" 
d="M291 843l51 -92l-199 -90l-34 60zM449 566l-165 -352v-214h-123v213l-165 353h130l99 -259l98 259h126z" />
    <glyph glyph-name="ycircumflex.sc" horiz-adv-x="445" 
d="M116 660l-45 49l120 127h76l120 -127l-45 -49l-113 88zM449 566l-165 -352v-214h-123v213l-165 353h130l99 -259l98 259h126z" />
    <glyph glyph-name="ydieresis.sc" horiz-adv-x="445" 
d="M131 812q28 0 46.5 -19.5t18.5 -47.5q0 -29 -18.5 -48t-46.5 -19t-47 19t-19 48q0 28 19 47.5t47 19.5zM325 812q29 0 47.5 -19.5t18.5 -47.5q0 -29 -18.5 -48t-47.5 -19q-28 0 -47 19.5t-19 47.5t19 47.5t47 19.5zM449 566l-165 -352v-214h-123v213l-165 353h130
l99 -259l98 259h126z" />
    <glyph glyph-name="ygrave.sc" horiz-adv-x="445" 
d="M167 843l183 -122l-35 -60l-198 90zM449 566l-165 -352v-214h-123v213l-165 353h130l99 -259l98 259h126z" />
    <glyph glyph-name="z.sc" horiz-adv-x="413" 
d="M386 566v-93l-237 -374h241l-12 -99h-361v93l237 378h-214v95h346z" />
    <glyph glyph-name="zacute.sc" horiz-adv-x="413" 
d="M279 843l51 -92l-199 -90l-34 60zM386 566v-93l-237 -374h241l-12 -99h-361v93l237 378h-214v95h346z" />
    <glyph glyph-name="zacute.sc.loclPLK" horiz-adv-x="413" 
d="M241 836l92 -56l-120 -157l-56 34zM386 566v-93l-237 -374h241l-12 -99h-361v93l237 378h-214v95h346z" />
    <glyph glyph-name="zcaron.sc" horiz-adv-x="413" 
d="M330 826l45 -49l-120 -127h-76l-120 127l45 49l113 -89zM386 566v-93l-237 -374h241l-12 -99h-361v93l237 378h-214v95h346z" />
    <glyph glyph-name="zdotaccent.sc" horiz-adv-x="413" 
d="M217 824q33 0 54 -21.5t21 -53.5q0 -33 -21 -54t-54 -21t-54 21.5t-21 53.5t21 53.5t54 21.5zM386 566v-93l-237 -374h241l-12 -99h-361v93l237 378h-214v95h346z" />
    <glyph glyph-name="zero.osf" horiz-adv-x="550" 
d="M275 578q113 0 177 -77t64 -218q0 -140 -65.5 -219t-175.5 -79t-175.5 79t-65.5 219t64.5 217.5t176.5 77.5zM275 486q-121 0 -121 -203q0 -206 121 -206q120 0 120 206q0 203 -120 203z" />
    <glyph glyph-name="one.osf" horiz-adv-x="385" 
d="M316 566v-566h-121v443l-127 -89l-55 80l194 132h109z" />
    <glyph glyph-name="two.osf" horiz-adv-x="440" 
d="M204 578q86 0 138.5 -51.5t52.5 -125.5q0 -72 -46 -134.5t-187 -170.5h243l-13 -96h-370v91q159 133 204.5 190t45.5 115q0 41 -22.5 64.5t-58.5 23.5q-60 0 -112 -72l-72 57q78 109 197 109z" />
    <glyph glyph-name="three.osf" horiz-adv-x="439" 
d="M202 578q86 0 137.5 -49t51.5 -119q0 -121 -127 -156q68 -8 107 -49t39 -117q0 -89 -58 -149t-158 -60q-117 0 -196 96l69 62q31 -33 58 -47.5t61 -14.5q45 0 72 31t27 88q0 60 -27.5 86t-81.5 26h-45l14 87h30q45 0 72 27t27 76q0 42 -23 65.5t-64 23.5q-61 0 -113 -55
l-63 63q82 85 191 85z" />
    <glyph glyph-name="four.osf" horiz-adv-x="457" 
d="M457 127v-92h-67v-144h-113v144h-263v82l167 461l105 -36l-148 -415h140l13 173h99v-173h67z" />
    <glyph glyph-name="five.osf" horiz-adv-x="447" 
d="M395 566l-14 -91h-216v-172q43 25 90 25q74 0 120 -56.5t46 -158.5q0 -105 -61 -169.5t-161 -64.5q-111 0 -189 94l69 63q53 -61 116 -61q49 0 75.5 35t26.5 103q0 69 -23 98t-65 29q-38 0 -75 -23h-85v349h346z" />
    <glyph glyph-name="six.osf" horiz-adv-x="488" 
d="M296 447q72 0 118.5 -57t46.5 -161q0 -112 -56 -178t-150 -66q-216 0 -216 326q0 173 66 273.5t182 100.5q74 0 130 -43l-45 -74q-41 25 -81 25q-55 0 -88.5 -56.5t-38.5 -163.5q51 74 132 74zM256 76q83 0 83 151q0 132 -75 132q-57 0 -99 -75q1 -113 21.5 -160.5
t69.5 -47.5z" />
    <glyph glyph-name="seven.osf" horiz-adv-x="404" 
d="M380 566v-86l-212 -602l-110 35l199 558h-248v95h371z" />
    <glyph glyph-name="eight.osf" horiz-adv-x="494" 
d="M340 361q126 -62 126 -180q0 -88 -59.5 -142t-162.5 -54q-100 0 -158 53.5t-58 139.5q0 116 117 171q-93 57 -93 159q0 82 55 129.5t139 47.5q87 0 142 -45t55 -127q0 -96 -103 -152zM247 599q-77 0 -77 -93q0 -41 18.5 -64.5t62.5 -43.5l14 -6q34 23 47 49.5t13 65.5
q0 92 -78 92zM248 76q96 0 96 105q0 47 -22 73.5t-80 51.5l-22 10q-70 -41 -70 -134q0 -106 98 -106z" />
    <glyph glyph-name="nine.osf" horiz-adv-x="483" 
d="M237 578q103 0 156.5 -68.5t53.5 -191.5q0 -192 -82.5 -291.5t-267.5 -149.5l-26 87q115 35 175 90t72 147q-50 -65 -122 -65q-71 0 -119.5 59.5t-48.5 157.5q0 105 59 165t150 60zM230 225q54 0 92 67q1 109 -18 153t-66 44q-88 0 -88 -134q0 -66 21.5 -98t58.5 -32z
" />
    <glyph glyph-name="zero.tf" 
d="M241 706q208 0 208 -360q0 -361 -208 -361t-208 361q0 360 208 360zM241 612q-30 0 -47 -21.5t-26.5 -80.5t-9.5 -164t9.5 -164.5t26.5 -81t47 -21.5q44 0 63.5 56.5t19.5 210.5t-19.5 210t-63.5 56z" />
    <glyph glyph-name="one.tf" 
d="M339 95h114v-95h-374v95h139v472l-126 -88l-54 79l192 133h109v-596z" />
    <glyph glyph-name="two.tf" 
d="M225 706q93 0 146 -54.5t53 -135.5q0 -88 -53 -172.5t-204 -245.5h270l-13 -98h-389v91q162 185 212.5 263t50.5 156q0 46 -23 72.5t-63 26.5q-34 0 -59.5 -16.5t-54.5 -52.5l-76 57q75 109 203 109z" />
    <glyph glyph-name="three.tf" 
d="M219 706q91 0 145.5 -51t54.5 -126q0 -125 -133 -161q71 -9 111.5 -51.5t40.5 -119.5q0 -90 -61 -151t-165 -61q-121 0 -204 97l70 61q59 -62 127 -62q49 0 78.5 31t29.5 90q0 63 -31 90t-90 27h-49l14 87h34q51 0 80.5 28t29.5 81q0 48 -26 73t-71 25q-64 0 -119 -57
l-63 64q86 86 197 86z" />
    <glyph glyph-name="four.tf" 
d="M456 250v-94h-63v-156h-116v156h-251v85l167 465l105 -37l-148 -419h128l13 182h102v-182h63z" />
    <glyph glyph-name="five.tf" 
d="M416 691l-15 -91h-221v-182q44 27 93 27q75 0 121.5 -57.5t46.5 -163.5q0 -108 -61.5 -173.5t-164.5 -65.5q-112 0 -191 94l69 63q53 -61 118 -61q104 0 104 143q0 73 -23 103t-66 30q-36 0 -77 -24h-86v358h353z" />
    <glyph glyph-name="six.tf" 
d="M287 457q73 0 120 -58.5t47 -164.5q0 -116 -55 -182.5t-149 -66.5q-215 0 -215 336q0 180 65 282.5t180 102.5q73 0 128 -43l-45 -74q-37 25 -79 25q-54 0 -86.5 -58t-36.5 -171q48 72 126 72zM250 77q81 0 81 154q0 75 -19 106t-56 31q-55 0 -95 -73q1 -121 21 -169.5
t68 -48.5z" />
    <glyph glyph-name="seven.tf" 
d="M434 691v-87l-230 -621l-108 37l216 576h-264v95h386z" />
    <glyph glyph-name="eight.tf" 
d="M335 370q62 -30 91 -74.5t29 -109.5q0 -91 -58 -146t-159 -55q-98 0 -155 54.5t-57 143.5q0 119 114 177q-91 54 -91 162q0 86 54 134.5t138 48.5q85 0 138.5 -46t53.5 -132q0 -99 -98 -157zM241 619q-75 0 -75 -99q0 -49 19 -73.5t65 -42.5l12 -4q30 26 42 52.5t12 68.5
q0 98 -75 98zM241 77q93 0 93 107q0 53 -21.5 82t-76.5 51l-27 11q-61 -48 -61 -141q0 -110 93 -110z" />
    <glyph glyph-name="nine.tf" 
d="M235 706q103 0 155.5 -70.5t52.5 -201.5q0 -142 -38.5 -233t-111.5 -141.5t-197 -84.5l-25 88q116 34 175.5 91t70.5 159q-50 -67 -122 -67q-71 0 -119 61t-48 163q0 113 58 174.5t149 61.5zM229 336q55 0 90 69q1 120 -18 165.5t-67 45.5q-84 0 -84 -144q0 -136 79 -136
z" />
    <glyph glyph-name="zero.tosf" 
d="M241 578q108 0 165.5 -75.5t57.5 -219.5q0 -143 -58.5 -220.5t-164.5 -77.5t-164.5 77.5t-58.5 220.5q0 144 57.5 219.5t165.5 75.5zM241 486q-50 0 -77 -44.5t-27 -158.5t27 -160t77 -46t77 46t27 160t-27 158.5t-77 44.5z" />
    <glyph glyph-name="one.tosf" 
d="M342 94h110v-94h-370v94h139v349l-127 -89l-55 80l194 132h109v-472z" />
    <glyph glyph-name="two.tosf" 
d="M226 578q88 0 141 -51t53 -126q0 -73 -47 -135.5t-193 -169.5h251l-13 -96h-377v91q163 133 209.5 189.5t46.5 115.5q0 41 -23 64t-62 23q-62 0 -115 -70l-72 56q78 109 201 109z" />
    <glyph glyph-name="three.tosf" 
d="M219 578q88 0 140 -49.5t52 -118.5q0 -121 -127 -156q69 -9 107.5 -49.5t38.5 -116.5q0 -89 -59 -149t-160 -60q-118 0 -197 96l69 62q31 -33 58 -47.5t62 -14.5q48 0 75 30.5t27 88.5q0 60 -27.5 86t-82.5 26h-49l14 88h35q45 0 72 26.5t27 75.5q-1 42 -24.5 65.5
t-65.5 23.5q-62 0 -114 -55l-63 63q82 85 192 85z" />
    <glyph glyph-name="four.tosf" 
d="M467 127v-92h-67v-144h-114v144h-259v82l167 461l105 -37l-148 -414h137l12 173h100v-173h67z" />
    <glyph glyph-name="five.tosf" 
d="M415 566l-15 -91h-220v-172q43 25 92 25q75 0 121.5 -56.5t46.5 -158.5q0 -105 -61.5 -169.5t-163.5 -64.5q-112 0 -190 94l69 63q53 -61 117 -61q49 0 76 35t27 103q0 69 -23 98t-65 29q-38 0 -77 -23h-85v349h351z" />
    <glyph glyph-name="six.tosf" 
d="M290 447q73 0 119.5 -57.5t46.5 -160.5q0 -112 -55.5 -178t-149.5 -66q-215 0 -215 326q0 173 65.5 273.5t180.5 100.5q74 0 130 -43l-46 -74q-39 26 -80 26q-114 0 -125 -221q49 74 129 74zM251 77q83 0 83 149q0 132 -75 132q-57 0 -98 -73q1 -115 21.5 -161.5
t68.5 -46.5z" />
    <glyph glyph-name="seven.tosf" 
d="M422 566v-86l-215 -602l-110 35l202 558h-264v95h387z" />
    <glyph glyph-name="eight.tosf" 
d="M336 360q120 -59 120 -179q0 -87 -58.5 -141.5t-158.5 -54.5q-98 0 -155 53.5t-57 139.5q0 114 113 172q-90 54 -90 157q0 83 54 130.5t138 47.5t138 -45t54 -128q0 -94 -98 -152zM242 599q-75 0 -75 -94q0 -45 19 -69t63 -41l14 -5q30 26 42 51.5t12 64.5q0 93 -75 93z
M242 77q44 0 68 26.5t24 76.5q0 49 -21 76t-76 50l-27 12q-61 -46 -61 -136q0 -105 93 -105z" />
    <glyph glyph-name="nine.tosf" 
d="M238 578q102 0 155 -69t53 -193q0 -191 -80.5 -289.5t-266.5 -149.5l-26 87q117 35 177 89.5t70 147.5q-50 -65 -122 -65q-70 0 -119 59.5t-49 156.5q0 106 58.5 166t149.5 60zM232 226q54 0 91 66q1 111 -18.5 154t-66.5 43q-86 0 -86 -135q0 -65 21.5 -96.5t58.5 -31.5
z" />
    <glyph glyph-name="zero.zero" horiz-adv-x="517" 
d="M259 685q105 0 159 -88t54 -261q0 -351 -213 -351q-214 0 -214 351q0 349 214 349zM259 592q-49 0 -70.5 -55.5t-21.5 -200.5q0 -98 7 -150l136 389q-18 17 -51 17zM259 78q49 0 70 55t21 203q0 107 -8 156l-137 -394q19 -20 54 -20z" />
    <glyph glyph-name="zero.osf.zero" horiz-adv-x="550" 
d="M275 578q112 0 176.5 -77.5t64.5 -217.5t-65.5 -219t-175.5 -79t-175.5 79t-65.5 219t64.5 217.5t176.5 77.5zM275 487q-126 0 -126 -204q0 -105 27 -154l147 351q-16 7 -48 7zM275 75q125 0 125 208q0 106 -27 155l-149 -354q24 -9 51 -9z" />
    <glyph glyph-name="zero.tf.zero" 
d="M241 706q208 0 208 -360q0 -361 -208 -361t-208 361q0 360 208 360zM241 614q-32 0 -50 -21.5t-28 -81t-10 -165.5q0 -105 7 -158l133 405q-17 21 -52 21zM241 77q47 0 67.5 56.5t20.5 212.5q0 102 -7 155l-132 -404q17 -20 51 -20z" />
    <glyph glyph-name="zero.tosf.zero" 
d="M241 578q108 0 165.5 -75.5t57.5 -219.5q0 -143 -58.5 -220.5t-164.5 -77.5t-164.5 77.5t-58.5 220.5q0 144 57.5 219.5t165.5 75.5zM241 487q-53 0 -80.5 -44.5t-27.5 -159.5q0 -89 15 -136l140 331q-17 9 -47 9zM241 76q52 0 80 45.5t28 161.5q0 101 -20 149l-144 -342
q22 -14 56 -14z" />
    <glyph glyph-name="zero.dnom" horiz-adv-x="344" 
d="M172 428q145 0 145 -219q0 -220 -145 -220q-146 0 -146 220q0 219 146 219zM172 356q-27 0 -38.5 -30t-11.5 -117t11.5 -117.5t38.5 -30.5t39 30.5t12 117.5q0 86 -12 116.5t-39 30.5z" />
    <glyph glyph-name="one.dnom" horiz-adv-x="344" 
d="M252 419v-419h-91v327l-80 -54l-42 60l130 86h83z" />
    <glyph glyph-name="two.dnom" horiz-adv-x="344" 
d="M169 427q60 0 95.5 -35t35.5 -87q0 -48 -31 -95t-121 -136h161l-10 -74h-250v69q98 107 127 148.5t29 81.5q0 54 -47 54q-36 0 -70 -40l-53 42q52 72 134 72z" />
    <glyph glyph-name="three.dnom" horiz-adv-x="344" 
d="M170 428q61 0 95 -31.5t34 -78.5q0 -76 -84 -96q45 -4 71 -29.5t26 -72.5q0 -56 -39 -93.5t-108 -37.5q-84 0 -133 64l50 46q37 -37 76 -37q27 0 43 17t16 47q0 60 -65 60h-29l11 66h19q56 0 56 54q0 52 -50 52q-38 0 -75 -34l-45 48q56 56 131 56z" />
    <glyph glyph-name="four.dnom" horiz-adv-x="344" 
d="M319 162v-72h-42v-90h-87v90h-166v66l106 272l78 -30l-91 -236h74l16 101h70v-101h42z" />
    <glyph glyph-name="five.dnom" horiz-adv-x="344" 
d="M294 419l-11 -67h-140v-92q28 15 60 15q47 0 78 -37t31 -100q0 -66 -41 -107.5t-109 -41.5q-78 0 -130 64l51 48q35 -38 73 -38q28 0 44 19.5t16 55.5q0 71 -49 71q-23 0 -47 -15h-63v225h237z" />
    <glyph glyph-name="six.dnom" horiz-adv-x="345" 
d="M209 281q47 0 76.5 -36t29.5 -102q0 -69 -37 -111.5t-102 -42.5q-147 0 -147 202q0 113 45 175t124 62q49 0 87 -28l-33 -56q-25 15 -52 15q-66 0 -73 -119q37 41 82 41zM176 59q46 0 46 83q0 74 -41 74q-32 0 -54 -34q1 -70 11.5 -96.5t37.5 -26.5z" />
    <glyph glyph-name="seven.dnom" horiz-adv-x="344" 
d="M296 419v-65l-138 -364l-82 28l130 331h-159v70h249z" />
    <glyph glyph-name="eight.dnom" horiz-adv-x="344" 
d="M240 225q81 -39 81 -112q0 -53 -40.5 -88.5t-110.5 -35.5q-67 0 -107 35.5t-40 86.5q0 71 77 105q-61 34 -61 99q0 49 37.5 81t96.5 32t96 -29.5t37 -79.5q0 -59 -66 -94zM173 364q-46 0 -46 -50q0 -24 10.5 -36.5t35.5 -23.5l11 -5q33 24 33 66q0 49 -44 49zM173 58
q27 0 41.5 15.5t14.5 40.5q0 26 -12.5 40.5t-45.5 27.5l-18 8q-37 -24 -37 -74q0 -58 57 -58z" />
    <glyph glyph-name="nine.dnom" horiz-adv-x="344" 
d="M171 428q71 0 108 -43.5t37 -119.5q0 -125 -57 -189.5t-184 -93.5l-20 65q77 22 115.5 53t47.5 88q-36 -41 -81 -41q-46 0 -77.5 36.5t-31.5 99.5q0 66 40.5 105.5t102.5 39.5zM166 211q33 0 54 38q1 64 -10 87.5t-38 23.5q-50 0 -50 -74q0 -75 44 -75z" />
    <glyph glyph-name="zero.numr" horiz-adv-x="344" 
d="M172 701q145 0 145 -219q0 -220 -145 -220q-146 0 -146 220q0 219 146 219zM172 629q-27 0 -38.5 -30t-11.5 -117t11.5 -117.5t38.5 -30.5t39 30.5t12 117.5q0 86 -12 116.5t-39 30.5z" />
    <glyph glyph-name="one.numr" horiz-adv-x="344" 
d="M252 691v-419h-91v327l-80 -54l-42 60l130 86h83z" />
    <glyph glyph-name="two.numr" horiz-adv-x="344" 
d="M169 701q60 0 95.5 -35t35.5 -87q0 -48 -31 -95t-121 -136h161l-10 -74h-250v69q98 107 127 148.5t29 81.5q0 54 -47 54q-36 0 -70 -40l-53 42q52 72 134 72z" />
    <glyph glyph-name="three.numr" horiz-adv-x="344" 
d="M170 700q61 0 95 -31.5t34 -78.5q0 -76 -84 -96q45 -4 71 -29.5t26 -72.5q0 -56 -39 -93.5t-108 -37.5q-84 0 -133 64l50 46q37 -37 76 -37q27 0 43 17t16 47q0 60 -65 60h-29l11 66h19q56 0 56 54q0 52 -50 52q-38 0 -75 -34l-45 48q56 56 131 56z" />
    <glyph glyph-name="four.numr" horiz-adv-x="344" 
d="M319 434v-72h-42v-90h-87l-1 90h-165v66l106 272l78 -30l-91 -236h73l17 101h70v-101h42z" />
    <glyph glyph-name="five.numr" horiz-adv-x="344" 
d="M294 691l-11 -67h-140v-92q28 15 60 15q47 0 78 -37t31 -100q0 -66 -41 -107.5t-109 -41.5q-78 0 -130 64l51 48q35 -38 73 -38q28 0 44 19.5t16 55.5q0 71 -49 71q-23 0 -47 -15h-63v225h237z" />
    <glyph glyph-name="six.numr" horiz-adv-x="345" 
d="M209 553q47 0 76.5 -36t29.5 -102q0 -69 -37 -111.5t-102 -42.5q-147 0 -147 202q0 113 45 175t124 62q49 0 87 -28l-33 -56q-25 15 -52 15q-66 0 -73 -118q36 40 82 40zM176 331q46 0 46 83q0 74 -41 74q-31 0 -54 -34q1 -70 11.5 -96.5t37.5 -26.5z" />
    <glyph glyph-name="seven.numr" horiz-adv-x="344" 
d="M296 691v-65l-138 -364l-82 28l130 331h-159v70h249z" />
    <glyph glyph-name="eight.numr" horiz-adv-x="344" 
d="M240 497q81 -39 81 -112q0 -53 -40.5 -88.5t-110.5 -35.5q-67 0 -107 35.5t-40 86.5q0 72 77 105q-61 34 -61 99q0 49 37.5 81t96.5 32t96 -29.5t37 -79.5q0 -58 -66 -94zM173 636q-46 0 -46 -50q0 -24 10.5 -36.5t35.5 -23.5l11 -5q33 24 33 66q0 49 -44 49zM173 330
q27 0 41.5 15.5t14.5 40.5q0 26 -12.5 40.5t-45.5 27.5l-19 8q-36 -24 -36 -74q0 -58 57 -58z" />
    <glyph glyph-name="nine.numr" horiz-adv-x="344" 
d="M171 700q71 0 108 -43.5t37 -119.5q0 -125 -57 -189.5t-184 -93.5l-20 65q77 23 115 54t47 87q-34 -41 -80 -41t-77.5 36.5t-31.5 99.5q0 66 40.5 105.5t102.5 39.5zM166 483q31 0 53 37q1 64 -9.5 88t-37.5 24q-50 0 -50 -74q0 -75 44 -75z" />
    <glyph glyph-name="exclamdown.case" horiz-adv-x="217" 
d="M109 550q-34 0 -55.5 23t-21.5 55t21.5 55t55.5 23q33 0 54.5 -23t21.5 -55t-21.5 -55t-54.5 -23zM44 0l16 449h98l17 -449h-131z" />
    <glyph glyph-name="questiondown.case" horiz-adv-x="418" 
d="M230 549q-34 0 -55.5 23.5t-21.5 55.5t21.5 55t55.5 23q33 0 54.5 -23t21.5 -55q0 -33 -21 -56t-55 -23zM203 -14q-87 0 -135 47t-48 113q0 42 16 74t38.5 51.5t45.5 37.5t39 44t16 61v35h113v-41q0 -47 -14.5 -80.5t-35.5 -52.5t-42 -35t-35.5 -37.5t-14.5 -50.5
q0 -33 18.5 -50.5t51.5 -17.5q57 0 107 62l75 -58q-75 -102 -195 -102z" />
    <glyph glyph-name="numbersign.osf" horiz-adv-x="471" 
d="M458 444h-60l-27 -205h56v-84h-67l-20 -155h-98l20 155h-103l-20 -155h-98l20 155h-48v84h59l27 205h-55v85h66l19 144h99l-19 -144h102l19 144h99l-19 -144h48v-85zM273 239l27 205h-103l-27 -205h103z" />
    <glyph glyph-name="numbersign.tf" 
d="M464 454h-60l-28 -215h51v-84h-62l-20 -155h-97l20 155h-102l-21 -155h-97l20 155h-50v84h61l29 215h-53v85h64l20 152h97l-20 -152h103l20 152h96l-20 -152h49v-85zM279 239l29 215h-103l-28 -215h102z" />
    <glyph glyph-name="numbersign.tosf" 
d="M464 454h-60l-28 -215h51v-84h-62l-20 -155h-97l20 155h-102l-21 -155h-97l20 155h-50v84h61l29 215h-53v85h64l20 152h97l-20 -152h103l20 152h96l-20 -152h49v-85zM279 239l29 215h-103l-28 -215h102z" />
    <glyph glyph-name="braceleft.case" horiz-adv-x="279" 
d="M254 828v-88q-40 0 -55.5 -14t-15.5 -50v-215q0 -58 -19.5 -83.5t-64.5 -38.5q44 -12 64.5 -37.5t20.5 -82.5v-215q0 -36 15 -50t55 -14v-88q-104 0 -143.5 37t-39.5 119v206q0 41 -12.5 58t-44.5 17v101q32 0 44.5 17.5t12.5 58.5v206q0 82 39.5 119t143.5 37z" />
    <glyph glyph-name="braceright.case" horiz-adv-x="279" 
d="M25 828q104 0 143.5 -37t39.5 -119v-206q0 -41 12.5 -58.5t44.5 -17.5v-101q-32 0 -44.5 -17t-12.5 -58v-206q0 -82 -39.5 -119t-143.5 -37v88q39 0 54.5 14t15.5 50v215q0 57 20 82t65 38q-46 14 -65 39t-19 83v215q0 36 -15.5 50t-54.5 14z" />
    <glyph glyph-name="bracketleft.case" horiz-adv-x="280" 
d="M253 809v-95h-100v-749h100v-94h-216v938h216z" />
    <glyph glyph-name="bracketright.case" horiz-adv-x="280" 
d="M243 809v-938h-216v94h101v749h-101v95h216z" />
    <glyph glyph-name="parenleft.case" horiz-adv-x="286" 
d="M186 841l79 -52q-64 -107 -92 -204t-28 -245t28 -245t92 -204l-79 -52q-81 122 -123 231.5t-42 269.5t42 269.5t123 231.5z" />
    <glyph glyph-name="parenright.case" horiz-adv-x="286" 
d="M99 841q41 -65 63.5 -105t50 -104t39.5 -135.5t12 -156.5t-12 -156.5t-39.5 -135.5t-50 -104t-63.5 -105l-78 52q64 107 92 205.5t28 243.5q0 146 -28 244t-92 205z" />
    <glyph glyph-name="parenleft.dnom" horiz-adv-x="341" 
d="M194 519l56 -36q-36 -69 -53 -134.5t-17 -154.5t17 -154.5t53 -134.5l-56 -36q-34 56 -52.5 93t-34.5 99.5t-16 132.5t16 132.5t34.5 99.5t52.5 93z" />
    <glyph glyph-name="parenright.dnom" horiz-adv-x="341" 
d="M147 519q34 -56 52.5 -93t34.5 -99.5t16 -132.5t-16 -132.5t-34.5 -99.5t-52.5 -93l-56 36q36 69 53 134.5t17 154.5t-17 154.5t-53 134.5z" />
    <glyph glyph-name="parenleft.numr" horiz-adv-x="341" 
d="M194 796l56 -36q-36 -69 -53 -134.5t-17 -154.5t17 -154.5t53 -134.5l-56 -36q-34 56 -52.5 93t-34.5 99.5t-16 132.5t16 132.5t34.5 99.5t52.5 93z" />
    <glyph glyph-name="parenright.numr" horiz-adv-x="341" 
d="M147 796q34 -56 52.5 -93t34.5 -99.5t16 -132.5t-16 -132.5t-34.5 -99.5t-52.5 -93l-56 36q36 69 53 134.5t17 154.5t-17 154.5t-53 134.5z" />
    <glyph glyph-name="emdash.case" horiz-adv-x="693" 
d="M25 309v98h643v-98h-643z" />
    <glyph glyph-name="endash.case" horiz-adv-x="457" 
d="M25 309v98h406v-98h-406z" />
    <glyph glyph-name="hyphen.case" horiz-adv-x="358" 
d="M45 309v98h268v-98h-268z" />
    <glyph glyph-name="uni00AD.case" horiz-adv-x="358" 
d="M45 309v98h268v-98h-268z" />
    <glyph glyph-name="figuredash.osf" 
d="M16 284v98h450v-98h-450z" />
    <glyph glyph-name="figuredash.tf" 
d="M16 284v98h450v-98h-450z" />
    <glyph glyph-name="figuredash.tosf" 
d="M16 284v98h450v-98h-450z" />
    <glyph glyph-name="guillemotleft.case" horiz-adv-x="547" 
d="M201 589l75 -49l-116 -209l116 -210l-75 -49l-160 218v81zM431 589l75 -49l-116 -209l116 -210l-75 -49l-160 218v81z" />
    <glyph glyph-name="guillemotright.case" horiz-adv-x="546" 
d="M117 589l159 -218v-81l-159 -218l-76 49l117 210l-117 209zM345 589l159 -218v-81l-159 -218l-76 49l117 210l-117 209z" />
    <glyph glyph-name="guilsinglleft.case" horiz-adv-x="331" 
d="M201 589l75 -49l-116 -209l116 -210l-75 -49l-160 218v81z" />
    <glyph glyph-name="guilsinglright.case" horiz-adv-x="318" 
d="M117 589l159 -218v-81l-159 -218l-76 49l117 210l-117 209z" />
    <glyph glyph-name="space.frac" horiz-adv-x="35" 
 />
    <glyph glyph-name="cent.osf" horiz-adv-x="415" 
d="M353 118l54 -72q-51 -48 -113 -58v-146h-91v149q-79 18 -122.5 87.5t-43.5 181.5q0 113 44 185.5t123 91.5v151h90v-147q62 -10 113 -58l-53 -71q-45 36 -89 36q-98 0 -98 -186q0 -97 25 -137.5t72 -40.5q41 0 89 34z" />
    <glyph glyph-name="currency.osf" horiz-adv-x="481" 
d="M471 137l-64 -53l-64 75q-46 -30 -103 -30t-102 31l-65 -76l-60 55l71 81q-29 50 -29 121q0 70 29 120l-73 85l64 54l65 -77q44 30 100 30q57 0 103 -30l66 77l60 -55l-71 -82q30 -52 30 -122q0 -67 -29 -120zM241 216q88 0 88 126t-88 126t-88 -126t88 -126z" />
    <glyph glyph-name="dollar.osf" horiz-adv-x="469" 
d="M444 193q0 -73 -42.5 -126.5t-116.5 -70.5v-154h-91v148q-107 8 -185 89l62 68q71 -64 144 -64q49 0 76 27.5t27 75.5q0 42 -24 67.5t-87 48.5q-93 36 -133.5 81.5t-40.5 116.5q0 70 45 119t116 61v147h91v-147q82 -14 143 -78l-59 -67q-59 55 -124 55q-40 0 -63.5 -22
t-23.5 -60q0 -37 24.5 -60t92.5 -49q86 -33 127.5 -78t41.5 -128z" />
    <glyph glyph-name="uni20AF.osf" horiz-adv-x="1087" 
d="M273 674q54 0 96.5 -8t84.5 -30t70 -58t45.5 -96t17.5 -141q0 -341 -301 -341h-190v92q46 16 59 41t13 84v310h118v-305q0 -50 -13 -77t-53 -50h74q38 0 66 11t50 37.5t33.5 76t11.5 121.5q0 73 -11.5 122t-35.5 73.5t-51 34t-66 9.5h-118h-24q-42 0 -42 -47
q0 -29 15 -69l-80 -38q-37 60 -37 113q0 61 41 98.5t110 37.5h18v-1h99zM833 544q211 0 211 -278q0 -120 -49.5 -200.5t-132.5 -80.5q-70 0 -111 58v-247l-123 -14v500q0 262 205 262zM830 78q87 0 87 187q0 105 -20.5 146.5t-62.5 41.5q-45 0 -64 -42t-19 -140v-136
q31 -57 79 -57z" />
    <glyph glyph-name="Euro.osf" horiz-adv-x="507" 
d="M210 226q10 -79 42.5 -113t89.5 -34t124 40v-96q-71 -38 -139 -38q-98 0 -160 60.5t-82 180.5h-73l17 71h53v81h-70l17 72h57q24 114 90 174.5t157 60.5q90 0 162 -57l-44 -77q-55 40 -113 40q-101 0 -126 -141h212l-17 -72h-200v-81h186l-16 -71h-167z" />
    <glyph glyph-name="uni20BA.osf" horiz-adv-x="494" 
d="M406 214l85 -30q-50 -184 -249 -184h-142v192l-47 -25l-27 64l74 39v68l-46 -24l-28 64l74 39v256h121v-193l126 65l27 -64l-153 -79v-69l125 65l27 -63l-152 -80v-157h37q56 0 91 27t57 89z" />
    <glyph glyph-name="uni20BD.osf" horiz-adv-x="503" 
d="M212 248v-67h142v-71h-142v-110h-122v110h-60v71h60v67h-60v82h60v343h146q121 0 185 -53.5t64 -158.5q0 -109 -64 -161t-180 -52h-29zM238 583h-26v-253h28q62 0 91.5 28.5t29.5 101.5q0 67 -29.5 95t-93.5 28z" />
    <glyph glyph-name="uni20B9.osf" horiz-adv-x="464" 
d="M442 673v-71h-130q49 -25 66 -87h64v-72h-57q-6 -126 -117 -172l153 -271h-134l-133 250h-110v80h103q53 0 80.5 26t31.5 87h-215v72h211q-19 79 -113 79h-98v79h398z" />
    <glyph glyph-name="sterling.osf" horiz-adv-x="469" 
d="M218 222q0 -49 -12 -76.5t-50 -48.5h274l-13 -97h-391v92q46 17 59 42t13 83v100h-58v70h58v109q0 83 47.5 136t131.5 53q106 0 170 -91l-75 -55q-36 51 -83 51q-71 0 -71 -92v-111h164v-70h-164v-95z" />
    <glyph glyph-name="yen.osf" 
d="M486 673l-158 -324h90v-72h-115v-81h115v-70h-115v-126h-123v126h-115v70h115v81h-115v72h89l-158 324h126l121 -290l120 290h123z" />
    <glyph glyph-name="cent.tf" 
d="M375 118l55 -72q-53 -48 -114 -58v-146h-91v149q-79 18 -122.5 87.5t-43.5 181.5q0 113 44.5 186t122.5 92v150h90v-147q62 -10 114 -58l-53 -71q-47 36 -90 36q-98 0 -98 -186q0 -97 25 -137.5t73 -40.5q40 0 88 34z" />
    <glyph glyph-name="currency.tf" 
d="M471 137l-64 -53l-64 75q-46 -30 -103 -30t-102 31l-65 -76l-60 55l71 81q-29 50 -29 121q0 70 29 120l-73 85l64 54l65 -77q44 30 100 30q57 0 103 -30l66 77l60 -55l-71 -82q30 -52 30 -122q0 -67 -29 -120zM241 216q88 0 88 126t-88 126t-88 -126t88 -126z" />
    <glyph glyph-name="dollar.tf" 
d="M448 202q0 -76 -42.5 -130.5t-117.5 -70.5v-158h-91v153q-112 10 -181 89l59 69q71 -64 146 -64q47 0 75 27t28 76q0 45 -23 69.5t-89 48.5q-93 35 -133 80.5t-40 120.5q0 72 43.5 121t114.5 61v155h91v-155q82 -12 145 -78l-60 -69q-57 56 -122 56q-41 0 -65 -21.5
t-24 -60.5t23.5 -61.5t92.5 -48.5q86 -33 128 -79t42 -130z" />
    <glyph glyph-name="uni20AF.tf" horiz-adv-x="964" 
d="M216 691q49 0 89 -8t80.5 -30.5t68 -59.5t44.5 -99t17 -145q0 -100 -24 -171t-66.5 -108.5t-89 -53.5t-102.5 -16h-167v92q45 17 58.5 41.5t13.5 83.5v297l115 -1v-291q0 -48 -13.5 -76t-53.5 -52h55q45 1 75.5 20.5t51 78t20.5 156.5q0 76 -11.5 126.5t-34.5 76
t-49.5 35.5t-63.5 10h-57h-19q-42 0 -42 -47q0 -28 15 -70l-79 -37q-38 62 -38 113q0 61 41 98t110 37h17h39zM743 544q201 0 201 -278q0 -123 -45 -202t-124 -79q-66 0 -106 57v-245l-122 -14v491q0 270 196 270zM739 80q79 0 79 185q0 107 -17.5 147.5t-56.5 40.5
q-42 0 -58.5 -39.5t-16.5 -136.5v-148q27 -49 70 -49z" />
    <glyph glyph-name="Euro.tf" 
d="M208 236q10 -82 40.5 -119t85.5 -37q53 0 119 36v-95q-65 -35 -132 -35q-97 0 -157.5 62.5t-79.5 187.5h-70l17 71h51v81h-68l17 72h55q22 120 85 183t156 63q87 0 155 -54l-42 -76q-57 36 -108 36q-99 0 -123 -152h212l-18 -72h-197v-81h184l-17 -71h-165z" />
    <glyph glyph-name="uni20BA.tf" 
d="M390 215l82 -31q-48 -184 -239 -184h-134v211l-40 -21l-27 63l67 34v69l-39 -20l-28 63l67 35v257h121v-195l125 65l27 -63l-152 -79v-69l124 64l28 -62l-152 -79v-175h29q52 0 85.5 27.5t55.5 89.5z" />
    <glyph glyph-name="uni20BD.tf" 
d="M209 265v-67h128v-71h-128v-127h-118v127h-56v71h56v67h-56v82h56v344h144q109 0 169 -54t60 -156q0 -110 -61.5 -163t-166.5 -53h-27zM236 604h-27v-257h27q52 0 79 28.5t27 102.5q0 68 -27 97t-79 29z" />
    <glyph glyph-name="uni20B9.tf" 
d="M445 691v-71h-133q51 -26 68 -87h65v-71h-58q-6 -127 -117 -173l153 -289h-137l-130 269h-93v82h87q53 0 80.5 25t31.5 86h-199v71h195q-17 79 -113 79h-82v79h382z" />
    <glyph glyph-name="sterling.tf" 
d="M227 221q0 -49 -12.5 -76.5t-50.5 -47.5h279l-14 -97h-394v92q46 17 58.5 42t12.5 83v110h-58v70h58v113q0 87 48 141.5t137 54.5q107 0 169 -91l-75 -55q-36 50 -87 50q-71 0 -71 -93v-120h168v-70h-168v-106z" />
    <glyph glyph-name="yen.tf" 
d="M488 691l-161 -342h89v-72h-113v-81h113v-70h-113v-126h-123v126h-113v70h113v81h-113v72h87l-161 342h131l119 -308l117 308h128z" />
    <glyph glyph-name="cent.tosf" 
d="M375 118l55 -72q-53 -48 -114 -58v-146h-91v149q-79 18 -122.5 87.5t-43.5 181.5q0 113 44.5 186t122.5 92v150h90v-147q62 -10 114 -58l-53 -71q-47 36 -90 36q-98 0 -98 -186q0 -97 25 -137.5t73 -40.5q40 0 88 34z" />
    <glyph glyph-name="currency.tosf" 
d="M471 137l-64 -53l-64 75q-46 -30 -103 -30t-102 31l-65 -76l-60 55l71 81q-29 50 -29 121q0 70 29 120l-73 85l64 54l65 -77q44 30 100 30q57 0 103 -30l66 77l60 -55l-71 -82q30 -52 30 -122q0 -67 -29 -120zM241 216q88 0 88 126t-88 126t-88 -126t88 -126z" />
    <glyph glyph-name="dollar.tosf" 
d="M439 195q0 -76 -40.5 -129t-112.5 -70v-153h-91v148q-109 10 -179 90l63 68q68 -65 139 -65q44 0 70.5 27t26.5 75q0 45 -22.5 70t-88.5 51q-86 34 -122.5 77t-36.5 116q0 69 42 117t108 62v149h91v-148q80 -13 141 -78l-58 -69q-56 57 -118 57q-38 0 -60.5 -21
t-22.5 -61q0 -38 23 -61.5t91 -49.5q79 -31 118 -75t39 -127z" />
    <glyph glyph-name="uni20AF.tosf" horiz-adv-x="964" 
d="M216 671q49 0 89 -8t80.5 -30t68 -58t44.5 -96t17 -140q0 -96 -24 -165t-66 -105.5t-89 -52.5t-103 -16h-167v92q45 17 58.5 41.5t13.5 83.5v277l115 -1v-271q0 -48 -13.5 -76t-53.5 -52h55q69 1 108 54.5t39 190.5q0 73 -11.5 121t-34.5 73t-49.5 34.5t-63.5 9.5h-57
h-19q-42 0 -42 -47q0 -28 15 -70l-79 -37q-38 62 -38 113q0 61 41 98t110 37h17h39zM743 528q201 0 201 -270q0 -118 -45 -195.5t-124 -77.5q-66 0 -106 57v-245l-122 -14v480q0 131 50 198t146 67zM739 80q79 0 79 177q0 102 -17.5 141t-56.5 39q-42 0 -58.5 -38
t-16.5 -133v-137q27 -49 70 -49z" />
    <glyph glyph-name="Euro.tosf" 
d="M221 226q10 -76 41.5 -111t86.5 -35q53 0 119 36v-95q-65 -35 -133 -35q-96 0 -157 60.5t-80 179.5h-73l17 71h53v81h-70l17 72h57q23 114 86.5 174.5t155.5 60.5q87 0 154 -53l-42 -76q-55 35 -108 35q-98 0 -122 -141h203l-17 -72h-191v-81h177l-17 -71h-157z" />
    <glyph glyph-name="uni20BA.tosf" 
d="M390 215l82 -31q-48 -184 -239 -184h-134v194l-40 -20l-27 63l67 34v69l-39 -20l-28 63l67 34v256h121v-193l125 64l27 -63l-152 -78v-69l124 64l28 -63l-152 -78v-159h29q52 0 85.5 27.5t55.5 89.5z" />
    <glyph glyph-name="uni20BD.tosf" 
d="M209 248v-67h128v-71h-128v-110h-118v110h-56v71h56v67h-56v82h56v343h144q109 0 169 -54t60 -156q0 -110 -61.5 -162.5t-166.5 -52.5h-27zM236 585h-27v-255h27q52 0 79 28.5t27 101.5q0 68 -27 96.5t-79 28.5z" />
    <glyph glyph-name="uni20B9.tosf" 
d="M445 673v-71h-133q51 -27 68 -87h65v-72h-58q-6 -126 -117 -173l153 -270h-133l-131 250h-96v82h87q53 0 80.5 25t31.5 86h-199v72h195q-17 79 -113 79h-82v79h382z" />
    <glyph glyph-name="sterling.tosf" 
d="M234 221q0 -49 -12.5 -76.5t-50.5 -47.5h268l-14 -97h-383v92q46 17 58.5 42t12.5 83v100h-58v70h58v101q0 88 46.5 142.5t130.5 54.5q100 0 163 -91l-73 -54q-40 50 -81 50q-65 0 -65 -97v-106h157v-70h-157v-96z" />
    <glyph glyph-name="yen.tosf" 
d="M486 673l-158 -324h88v-72h-113v-81h113v-70h-113v-126h-123v126h-113v70h113v81h-113v72h86l-157 324h131l116 -290l115 290h128z" />
    <glyph glyph-name="infinity.case" horiz-adv-x="771" 
d="M561 573q84 0 129.5 -63t45.5 -154q0 -93 -45.5 -155t-135.5 -62q-107 0 -174 118q-71 -118 -170 -118q-86 0 -131 62.5t-45 155.5q0 91 46 153.5t132 62.5q113 0 176 -121q36 62 76.5 91.5t95.5 29.5zM229 236q36 0 61 30.5t53 91.5q-44 119 -111 119q-37 0 -57.5 -30.5
t-20.5 -89.5t20 -90t55 -31zM541 235q35 0 55.5 31t20.5 90q0 58 -20 89t-55 31q-36 0 -61 -30.5t-54 -95.5q51 -115 114 -115z" />
    <glyph glyph-name="equal.dnom" horiz-adv-x="344" 
d="M53 230v74h238v-74h-238zM53 103v74h238v-74h-238z" />
    <glyph glyph-name="minus.dnom" horiz-adv-x="344" 
d="M53 166v76h238v-76h-238z" />
    <glyph glyph-name="plus.dnom" horiz-adv-x="344" 
d="M212 328v-86h80v-76h-80v-85h-80v85h-79v76h79v86h80z" />
    <glyph glyph-name="equal.numr" horiz-adv-x="344" 
d="M53 507v74h238v-74h-238zM53 380v74h238v-74h-238z" />
    <glyph glyph-name="minus.numr" horiz-adv-x="344" 
d="M53 443v76h238v-76h-238z" />
    <glyph glyph-name="plus.numr" horiz-adv-x="344" 
d="M212 605v-86h80v-76h-80v-85h-80v85h-79v76h79v86h80z" />
    <glyph glyph-name="approxequal.osf" horiz-adv-x="442" 
d="M293 348q-40 0 -84.5 29t-61.5 29q-14 0 -26 -8.5t-18.5 -17t-17.5 -25.5l-64 34q51 108 131 108q38 0 81.5 -29t61.5 -29q32 0 62 47l65 -34q-51 -104 -129 -104zM293 149q-31 0 -58.5 14.5t-49 29.5t-38.5 15q-14 0 -26 -8.5t-19 -17.5t-17 -26l-64 35q51 108 131 108
q38 0 81.5 -29t61.5 -29q32 0 62 47l65 -34q-51 -105 -129 -105z" />
    <glyph glyph-name="asciitilde.osf" horiz-adv-x="442" 
d="M293 244q-31 0 -58.5 15t-49 29.5t-38.5 14.5q-14 0 -26 -8.5t-19 -17.5t-17 -26l-64 34q50 109 131 109q38 0 81.5 -29t61.5 -29q32 0 62 47l65 -34q-51 -105 -129 -105z" />
    <glyph glyph-name="divide.osf" horiz-adv-x="442" 
d="M221 644q34 0 55.5 -23t21.5 -55t-21.5 -55.5t-55.5 -23.5t-55.5 23.5t-21.5 55.5t21.5 55t55.5 23zM44 285v95h354v-95h-354zM221 176q34 0 55.5 -23.5t21.5 -55.5t-21.5 -55t-55.5 -23t-55.5 23t-21.5 55t21.5 55.5t55.5 23.5z" />
    <glyph glyph-name="equal.osf" horiz-adv-x="442" 
d="M44 384v95h354v-95h-354zM44 183v95h354v-95h-354z" />
    <glyph glyph-name="greater.osf" horiz-adv-x="443" 
d="M74 558l337 -170v-110l-337 -171l-43 90l282 136l-282 137z" />
    <glyph glyph-name="greaterequal.osf" horiz-adv-x="443" 
d="M74 610l337 -170v-110l-337 -170l-43 89l282 136l-282 138zM45 0v95h353v-95h-353z" />
    <glyph glyph-name="infinity.osf" horiz-adv-x="771" 
d="M561 533q84 0 129.5 -63t45.5 -154q0 -93 -45.5 -155t-135.5 -62q-107 0 -174 118q-71 -118 -170 -118q-86 0 -131 62.5t-45 155.5q0 91 46 153.5t132 62.5q113 0 176 -121q36 62 76.5 91.5t95.5 29.5zM229 196q36 0 61 30.5t53 92.5q-45 118 -111 118q-37 0 -57.5 -30.5
t-20.5 -89.5t20 -90t55 -31zM541 195q35 0 55.5 31t20.5 90q0 58 -20 89t-55 31q-36 0 -61 -30.5t-54 -95.5q22 -50 48.5 -82.5t65.5 -32.5z" />
    <glyph glyph-name="integral.osf" horiz-adv-x="336" 
d="M262 857q65 0 125 -31l-35 -80q-38 17 -72 17q-54 0 -54 -74v-740q0 -82 -44 -124t-114 -42q-65 0 -119 30l34 81q38 -17 68 -17q54 0 54 69v740q0 84 39.5 127.5t117.5 43.5z" />
    <glyph glyph-name="less.osf" horiz-adv-x="443" 
d="M369 558l42 -88l-281 -137l281 -136l-42 -90l-338 171v110z" />
    <glyph glyph-name="lessequal.osf" horiz-adv-x="443" 
d="M369 610l42 -87l-281 -138l281 -136l-42 -89l-338 170v110zM43 0v95h354v-95h-354z" />
    <glyph glyph-name="logicalnot.osf" horiz-adv-x="451" 
d="M407 373v-244h-103v149h-260v95h363z" />
    <glyph glyph-name="minus.osf" horiz-adv-x="442" 
d="M44 285v95h354v-95h-354z" />
    <glyph glyph-name="multiply.osf" horiz-adv-x="442" 
d="M323 497l74 -61l-108 -129l108 -130l-74 -60l-102 126l-102 -126l-74 60l108 129l-108 130l74 61l101 -127z" />
    <glyph glyph-name="notequal.osf" horiz-adv-x="442" 
d="M398 384h-108l-55 -106h163v-95h-213l-70 -134l-62 33l53 101h-62v95h111l56 106h-167v95h216l68 130l63 -32l-51 -98h58v-95z" />
    <glyph glyph-name="partialdiff.osf" horiz-adv-x="463" 
d="M102 706q174 -47 251 -150.5t77 -293.5q0 -126 -54.5 -201.5t-153.5 -75.5q-88 0 -145 61t-57 169q0 97 49 159t118 62q71 0 118 -72q-14 104 -69 163.5t-162 93.5zM223 76q44 0 64.5 43t20.5 144q-36 80 -90 80q-74 0 -74 -128q0 -139 79 -139z" />
    <glyph glyph-name="percent.osf" horiz-adv-x="743" 
d="M534 715l77 -45l-400 -705l-77 45zM184 685q66 0 107.5 -46t41.5 -129q0 -82 -41.5 -128t-107.5 -46q-65 0 -107.5 46t-42.5 128q0 83 42 129t108 46zM184 609q-59 0 -59 -99t59 -99q33 0 45.5 25t12.5 74q0 48 -13 73.5t-45 25.5zM560 334q65 0 107 -46t42 -129
q0 -82 -41.5 -128t-107.5 -46t-108.5 46t-42.5 128q0 83 42.5 129t108.5 46zM560 258q-33 0 -46.5 -25t-13.5 -74q0 -98 60 -98q33 0 45.5 24.5t12.5 73.5t-12.5 74t-45.5 25z" />
    <glyph glyph-name="perthousand.osf" horiz-adv-x="1070" 
d="M534 715l77 -45l-400 -705l-77 45zM184 685q66 0 107.5 -46t41.5 -129q0 -82 -41.5 -128t-107.5 -46q-65 0 -107.5 46t-42.5 128q0 83 42 129t108 46zM184 609q-59 0 -59 -99t59 -99q33 0 45.5 25t12.5 74q0 48 -13 73.5t-45 25.5zM560 334q65 0 107 -46t42 -129
q0 -82 -41.5 -128t-107.5 -46t-108.5 46t-42.5 128q0 83 42.5 129t108.5 46zM887 334q65 0 107 -46t42 -129q0 -82 -42 -128t-107 -46q-66 0 -108.5 46t-42.5 128q0 83 42.5 129t108.5 46zM560 258q-33 0 -46.5 -25t-13.5 -74q0 -98 60 -98q33 0 45.5 24.5t12.5 73.5
t-12.5 74t-45.5 25zM887 258q-33 0 -46.5 -25t-13.5 -74q0 -98 60 -98q33 0 45.5 24.5t12.5 73.5t-12.5 74t-45.5 25z" />
    <glyph glyph-name="plus.osf" horiz-adv-x="451" 
d="M276 531v-151h130v-98h-130v-149h-102v149h-130v98h130v151h102z" />
    <glyph glyph-name="plusminus.osf" horiz-adv-x="451" 
d="M276 581v-151h130v-98h-130v-149h-102v149h-130v98h130v151h102zM48 0v95h354v-95h-354z" />
    <glyph glyph-name="product.osf" horiz-adv-x="520" 
d="M488 577h-56v-781l-114 -13v794h-114v-781l-114 -13v794h-58v96h456v-96z" />
    <glyph glyph-name="radical.osf" 
d="M646 865v-97h-161l-181 -768h-142l-145 459l112 29l98 -372l166 749h253z" />
    <glyph glyph-name="summation.osf" horiz-adv-x="444" 
d="M414 673v-97h-252l151 -213v-50l-151 -216h252v-97h-384v94l173 242l-173 243v94h384z" />
    <glyph glyph-name="approxequal.tf" 
d="M313 348q-40 0 -84.5 29t-61.5 29q-14 0 -26 -8.5t-18.5 -17t-17.5 -25.5l-64 34q51 108 131 108q38 0 81.5 -29t61.5 -29q32 0 62 47l65 -34q-51 -104 -129 -104zM313 149q-31 0 -58.5 14.5t-49 29.5t-38.5 15q-14 0 -26 -8.5t-19 -17.5t-17 -26l-64 35q51 108 131 108
q38 0 81.5 -29t61.5 -29q32 0 62 47l65 -34q-51 -105 -129 -105z" />
    <glyph glyph-name="asciitilde.tf" 
d="M312 244q-39 0 -83.5 29.5t-62.5 29.5q-19 0 -32 -13.5t-29 -38.5l-65 34q52 109 132 109q38 0 81.5 -29t61.5 -29q31 0 61 47l65 -34q-49 -105 -129 -105z" />
    <glyph glyph-name="divide.tf" 
d="M241 644q34 0 55.5 -23t21.5 -55t-21.5 -55.5t-55.5 -23.5t-55.5 23.5t-21.5 55.5t21.5 55t55.5 23zM64 285v95h354v-95h-354zM241 176q34 0 55.5 -23.5t21.5 -55.5t-21.5 -55t-55.5 -23t-55.5 23t-21.5 55t21.5 55.5t55.5 23.5z" />
    <glyph glyph-name="equal.tf" 
d="M64 384v95h354v-95h-354zM64 183v95h354v-95h-354z" />
    <glyph glyph-name="greater.tf" 
d="M95 558l337 -170v-110l-337 -171l-43 90l282 136l-282 137z" />
    <glyph glyph-name="greaterequal.tf" 
d="M95 610l337 -170v-110l-337 -170l-43 89l282 136l-282 138zM66 0v95h353v-95h-353z" />
    <glyph glyph-name="infinity.tf" horiz-adv-x="774" 
d="M562 533q84 0 129.5 -63t45.5 -154q0 -93 -45 -155t-135 -62q-109 0 -174 119q-71 -119 -171 -119q-86 0 -131 62.5t-45 155.5q0 91 46 153.5t132 62.5q113 0 176 -122q37 62 77 92t95 30zM230 196q36 0 61 30.5t53 91.5q-44 119 -111 119q-37 0 -57.5 -30.5t-20.5 -89.5
t20 -90t55 -31zM542 195q35 0 55.5 31t20.5 90q0 58 -20 89t-55 31q-36 0 -61 -30.5t-54 -95.5q50 -115 114 -115z" />
    <glyph glyph-name="integral.tf" 
d="M335 857q65 0 125 -31l-34 -80q-40 17 -73 17q-29 0 -41 -18t-12 -56v-740q0 -82 -44 -124t-115 -42q-65 0 -119 30l34 81q40 -17 68 -17q54 0 54 69v740q0 84 39.5 127.5t117.5 43.5z" />
    <glyph glyph-name="less.tf" 
d="M390 558l42 -88l-281 -137l281 -136l-42 -90l-338 171v110z" />
    <glyph glyph-name="lessequal.tf" 
d="M390 610l42 -87l-281 -138l281 -136l-42 -89l-338 170v110zM64 0v95h354v-95h-354z" />
    <glyph glyph-name="logicalnot.tf" 
d="M423 373v-244h-103v149h-260v95h363z" />
    <glyph glyph-name="minus.tf" 
d="M64 285v95h354v-95h-354z" />
    <glyph glyph-name="multiply.tf" 
d="M343 497l74 -61l-109 -129l109 -130l-74 -60l-102 126l-102 -126l-74 60l108 129l-108 130l74 61l101 -127z" />
    <glyph glyph-name="notequal.tf" 
d="M418 384h-108l-55 -106h163v-95h-213l-70 -134l-63 33l53 101h-61v95h111l55 106h-166v95h216l68 130l63 -32l-51 -98h58v-95z" />
    <glyph glyph-name="partialdiff.tf" 
d="M113 725q174 -47 251 -154t77 -309q0 -126 -54.5 -201.5t-153.5 -75.5q-88 0 -145 61t-57 169q0 97 48.5 159t118.5 62q71 0 118 -72q-13 116 -68 179t-163 98zM234 76q44 0 64.5 43t19.5 144q-35 80 -90 80q-33 0 -53 -31t-20 -97q0 -139 79 -139z" />
    <glyph glyph-name="percent.tf" horiz-adv-x="774" 
d="M551 735l76 -44l-402 -726l-76 45zM199 705q66 0 107.5 -46t41.5 -128t-41.5 -128.5t-107.5 -46.5q-65 0 -107.5 46t-42.5 128q0 83 42 129t108 46zM199 629q-33 0 -46 -25t-13 -74q0 -98 59 -98q33 0 46 25t13 74q0 98 -59 98zM575 334q65 0 107 -46t42 -129
q0 -82 -41.5 -128t-107.5 -46t-108 46t-42 128q0 83 42 129t108 46zM575 258q-60 0 -60 -99q0 -98 60 -98q33 0 45.5 24.5t12.5 73.5t-12.5 74t-45.5 25z" />
    <glyph glyph-name="perthousand.tf" horiz-adv-x="1037" 
d="M518 735l76 -45l-400 -725l-76 45zM172 705q66 0 108 -46t42 -128t-42 -128.5t-108 -46.5q-65 0 -107 46t-42 128q0 83 42 129t107 46zM172 629q-33 0 -46 -25t-13 -74q0 -98 59 -98q33 0 46 25t13 74q0 98 -59 98zM539 334q65 0 107 -46t42 -129q0 -82 -41.5 -128
t-107.5 -46t-108.5 46t-42.5 128q0 83 42.5 129t108.5 46zM865 334q66 0 108 -46t42 -129q0 -82 -42 -128t-108 -46q-65 0 -107.5 46t-42.5 128q0 83 42 129t108 46zM539 258q-33 0 -46.5 -25t-13.5 -74q0 -98 60 -98q33 0 45.5 24.5t12.5 73.5t-12.5 74t-45.5 25zM865 258
q-33 0 -46 -25t-13 -74q0 -98 59 -98q33 0 46 25t13 73q0 99 -59 99z" />
    <glyph glyph-name="plus.tf" 
d="M292 531v-151h130v-98h-130v-149h-102v149h-130v98h130v151h102z" />
    <glyph glyph-name="plusminus.tf" 
d="M293 580v-151h130v-97h-130v-150h-103v150h-130v97h130v151h103zM64 0v95h354v-95h-354z" />
    <glyph glyph-name="product.tf" 
d="M464 691v-94h-57v-801l-111 -13v814h-107v-801l-113 -13v814h-58v94h446z" />
    <glyph glyph-name="radical.tf" 
d="M646 865v-97h-161l-181 -768h-142l-145 459l112 29l98 -372l166 749h253z" />
    <glyph glyph-name="summation.tf" 
d="M439 691v-97h-265l159 -222v-49l-159 -226h265v-97h-397v94l183 252l-183 251v94h397z" />
    <glyph glyph-name="approxequal.tosf" 
d="M313 348q-40 0 -84.5 29t-61.5 29q-14 0 -26 -8.5t-18.5 -17t-17.5 -25.5l-64 34q51 108 131 108q38 0 81.5 -29t61.5 -29q32 0 62 47l65 -34q-51 -104 -129 -104zM313 149q-31 0 -58.5 14.5t-49 29.5t-38.5 15q-14 0 -26 -8.5t-19 -17.5t-17 -26l-64 35q51 108 131 108
q38 0 81.5 -29t61.5 -29q32 0 62 47l65 -34q-51 -105 -129 -105z" />
    <glyph glyph-name="asciitilde.tosf" 
d="M313 244q-31 0 -58.5 15t-49 29.5t-38.5 14.5q-14 0 -26 -8.5t-19 -17.5t-17 -26l-64 34q50 109 131 109q38 0 81.5 -29t61.5 -29q32 0 62 47l65 -34q-51 -105 -129 -105z" />
    <glyph glyph-name="divide.tosf" 
d="M241 644q34 0 55.5 -23t21.5 -55t-21.5 -55.5t-55.5 -23.5t-55.5 23.5t-21.5 55.5t21.5 55t55.5 23zM64 285v95h354v-95h-354zM241 176q34 0 55.5 -23.5t21.5 -55.5t-21.5 -55t-55.5 -23t-55.5 23t-21.5 55t21.5 55.5t55.5 23.5z" />
    <glyph glyph-name="equal.tosf" 
d="M64 384v95h354v-95h-354zM64 183v95h354v-95h-354z" />
    <glyph glyph-name="greater.tosf" 
d="M94 558l338 -170v-110l-338 -171l-43 90l282 136l-282 137z" />
    <glyph glyph-name="greaterequal.tosf" 
d="M94 610l337 -170v-110l-337 -170l-43 89l282 136l-282 138zM65 0v95h353v-95h-353z" />
    <glyph glyph-name="infinity.tosf" horiz-adv-x="774" 
d="M562 533q84 0 129.5 -63t45.5 -154q0 -93 -45 -155t-135 -62q-109 0 -174 119q-71 -119 -171 -119q-86 0 -131 62.5t-45 155.5q0 91 46 153.5t132 62.5q113 0 176 -122q37 62 77 92t95 30zM230 196q36 0 61 30.5t53 91.5q-44 119 -111 119q-37 0 -57.5 -30.5t-20.5 -89.5
t20 -90t55 -31zM542 195q35 0 55.5 31t20.5 90q0 58 -20 89t-55 31q-36 0 -61 -30.5t-54 -95.5q50 -115 114 -115z" />
    <glyph glyph-name="integral.tosf" 
d="M335 857q65 0 124 -31l-34 -80q-40 17 -72 17q-54 0 -54 -74v-740q0 -82 -44 -124t-114 -42q-65 0 -119 30l34 81q38 -17 68 -17q53 0 53 69v740q0 84 40 127.5t118 43.5z" />
    <glyph glyph-name="less.tosf" 
d="M389 558l43 -88l-282 -137l282 -136l-43 -90l-338 171v110z" />
    <glyph glyph-name="lessequal.tosf" 
d="M389 610l42 -87l-281 -138l281 -136l-42 -89l-338 170v110zM63 0v95h354v-95h-354z" />
    <glyph glyph-name="logicalnot.tosf" 
d="M423 373v-244h-103v149h-260v95h363z" />
    <glyph glyph-name="minus.tosf" 
d="M64 285v95h354v-95h-354z" />
    <glyph glyph-name="multiply.tosf" 
d="M344 497l73 -61l-108 -129l108 -130l-73 -60l-102 126l-103 -126l-73 60l107 129l-107 130l73 61l102 -127z" />
    <glyph glyph-name="notequal.tosf" 
d="M418 384h-108l-55 -106h163v-95h-212l-70 -134l-63 33l53 101h-62v95h112l55 106h-167v95h217l68 130l62 -32l-51 -98h58v-95z" />
    <glyph glyph-name="partialdiff.tosf" 
d="M117 706q174 -47 251 -150.5t77 -293.5q0 -126 -55 -201.5t-154 -75.5q-88 0 -144.5 61t-56.5 169q0 97 48.5 159t118.5 62q69 0 117 -71q-13 104 -68.5 163t-162.5 93zM238 76q44 0 64 43t20 144q-35 80 -90 80q-33 0 -53.5 -31.5t-20.5 -96.5q0 -139 80 -139z" />
    <glyph glyph-name="percent.tosf" horiz-adv-x="774" 
d="M550 715l76 -45l-400 -705l-76 45zM199 685q66 0 108 -46t42 -129q0 -82 -42 -128t-108 -46q-65 0 -107 46t-42 128q0 83 42 129t107 46zM199 609q-59 0 -59 -99t59 -99t59 99t-59 99zM575 334q66 0 108 -46t42 -129q0 -82 -42 -128t-108 -46q-65 0 -107.5 46t-42.5 128
q0 83 42 129t108 46zM575 258q-33 0 -46 -25t-13 -74q0 -98 59 -98q33 0 46 25t13 73q0 99 -59 99z" />
    <glyph glyph-name="perthousand.tosf" horiz-adv-x="1047" 
d="M523 715l76 -45l-400 -705l-76 45zM172 685q66 0 108 -46t42 -129q0 -82 -42 -128t-108 -46q-65 0 -107 46t-42 128q0 83 42 129t107 46zM172 609q-59 0 -59 -99t59 -99t59 99t-59 99zM548 334q66 0 107.5 -46t41.5 -129q0 -82 -41.5 -128t-107.5 -46q-65 0 -107.5 46
t-42.5 128q0 83 42 129t108 46zM875 334q65 0 107 -46t42 -129q0 -82 -41.5 -128t-107.5 -46t-108 46t-42 128q0 83 42 129t108 46zM548 258q-33 0 -46 -25t-13 -74q0 -98 59 -98q33 0 45.5 24.5t12.5 73.5t-12.5 74t-45.5 25zM875 258q-60 0 -60 -99q0 -98 60 -98
q33 0 45.5 24.5t12.5 73.5t-12.5 74t-45.5 25z" />
    <glyph glyph-name="plus.tosf" 
d="M292 531v-151h130v-98h-130v-149h-102v149h-130v98h130v151h102z" />
    <glyph glyph-name="plusminus.tosf" 
d="M293 580v-151h130v-97h-130v-150h-103v150h-130v97h130v151h103zM64 0v95h354v-95h-354z" />
    <glyph glyph-name="product.tosf" horiz-adv-x="463" 
d="M454 579h-56v-783l-112 -13v796h-107v-783l-112 -13v796h-58v94h445v-94z" />
    <glyph glyph-name="radical.tosf" 
d="M646 865v-97h-161l-181 -768h-142l-145 459l112 29l98 -372l166 749h253z" />
    <glyph glyph-name="summation.tosf" 
d="M432 673v-97h-251l150 -213v-50l-150 -216h251v-97h-383v94l172 242l-172 243v94h383z" />
    <glyph glyph-name="lozenge.osf" horiz-adv-x="487" 
d="M312 672l151 -334l-151 -338h-137l-151 337l151 335h137zM243 585l-101 -247l101 -250l102 249z" />
    <glyph glyph-name="lozenge.tf" 
d="M308 691l152 -344l-152 -347h-135l-151 346l151 345h135zM240 604l-101 -257l101 -259l102 259z" />
    <glyph glyph-name="lozenge.tosf" 
d="M309 672l149 -334l-149 -338h-136l-149 337l149 335h136zM241 585l-99 -247l99 -250l100 249z" />
    <glyph glyph-name="section.osf" horiz-adv-x="470" 
d="M352 177q49 -37 49 -100q0 -69 -51 -111.5t-132 -42.5q-95 0 -162 52l43 73q54 -36 114 -36q33 0 52.5 15t19.5 43q0 29 -19 45.5t-85 41.5q-70 26 -101 57.5t-31 89.5q0 77 70 122q-48 41 -48 105q0 68 49 110t129 42q94 0 162 -55l-43 -70q-55 37 -110 37
q-71 0 -71 -58q0 -30 19 -47.5t83 -42.5q68 -26 100 -58.5t32 -85.5q0 -77 -69 -126zM233 238q29 -11 55 -24q26 34 26 69q0 31 -18 49t-70 39q-9 3 -46 19q-24 -32 -24 -67q0 -32 16 -49.5t61 -35.5z" />
    <glyph glyph-name="degree.osf" horiz-adv-x="448" 
d="M187 376q-61 0 -105.5 44t-44.5 121t44.5 121t105.5 44q63 0 107 -43.5t44 -121.5t-44 -121.5t-107 -43.5zM187 451q64 0 64 90q0 89 -64 89q-63 0 -63 -89q0 -90 63 -90z" />
    <glyph glyph-name="dagger.osf" horiz-adv-x="454" 
d="M285 673v-144h143v-101h-143v-428h-116v428h-143v101h143v144h116z" />
    <glyph glyph-name="daggerdbl.osf" horiz-adv-x="454" 
d="M428 428h-143v-174h143v-101h-143v-153h-116v153h-143v101h143v174h-142v101h142v144h116v-144h143v-101z" />
    <glyph glyph-name="ampersand.ss03" horiz-adv-x="799" 
d="M523 480h263v-86h-85q-12 -114 -56.5 -204t-128 -147t-194.5 -57q-140 0 -216.5 85.5t-76.5 242.5q0 144 69 228.5t176 84.5q84 0 135.5 -49t51.5 -126q0 -201 -298 -223q12 -77 50.5 -111t111.5 -34q111 0 183.5 81.5t87.5 228.5h-73v86zM272 534q-55 0 -85 -56.5
t-30 -163.5v-1q98 10 139 45.5t41 98.5q0 77 -65 77z" />
    <glyph glyph-name="section.tf" 
d="M362 186q50 -40 50 -106q0 -73 -51.5 -115.5t-138.5 -42.5q-96 0 -165 52l43 73q54 -36 118 -36q77 0 77 64q0 33 -20 49.5t-91 42.5q-70 26 -101.5 58t-31.5 90q0 75 68 124q-47 38 -47 110q0 70 50 113.5t133 43.5q95 0 167 -54l-44 -72q-56 38 -116 38
q-34 0 -53.5 -17t-19.5 -47q0 -34 19.5 -52.5t86.5 -43.5q72 -27 104 -59t32 -86q0 -76 -69 -127zM235 249q26 -9 62 -25q28 35 28 71q0 30 -19 47.5t-74 38.5q-30 12 -50 21q-24 -34 -24 -71q0 -29 16 -47t61 -35z" />
    <glyph glyph-name="degree.tf" 
d="M204 396q-61 0 -105.5 44t-44.5 121t44.5 121t105.5 44q63 0 107 -43.5t44 -121.5t-44 -121.5t-107 -43.5zM204 471q64 0 64 90q0 89 -64 89q-63 0 -63 -89q0 -90 63 -90z" />
    <glyph glyph-name="dagger.tf" 
d="M299 691v-143h150v-102h-150v-446h-115v446h-150v102h150v143h115z" />
    <glyph glyph-name="daggerdbl.tf" 
d="M449 446h-150v-170h147v-101h-147v-175h-115v175h-148v101h148v170h-150v102h150v143h115v-143h150v-102z" />
    <glyph glyph-name="section.tosf" 
d="M358 177q49 -37 49 -100q0 -70 -50.5 -112t-132.5 -42q-95 0 -162 52l43 73q54 -36 114 -36q33 0 52.5 15t19.5 43q0 29 -19 45.5t-85 41.5q-70 26 -101 57.5t-31 89.5q0 76 71 122q-49 40 -49 105q0 68 49 110t129 42q94 0 162 -55l-43 -70q-55 37 -110 37
q-71 0 -71 -58q0 -30 19 -47.5t83 -42.5q68 -26 100 -58.5t32 -85.5q0 -76 -69 -126zM239 238q29 -11 55 -24q26 34 26 69q0 31 -18 49t-70 39q-34 14 -46 20q-23 -32 -23 -68q0 -32 15.5 -49.5t60.5 -35.5z" />
    <glyph glyph-name="degree.tosf" 
d="M204 376q-61 0 -105.5 44t-44.5 121t44.5 121t105.5 44q63 0 107 -43.5t44 -121.5t-44 -121.5t-107 -43.5zM204 451q64 0 64 90q0 89 -64 89q-63 0 -63 -89q0 -90 63 -90z" />
    <glyph glyph-name="dagger.tosf" 
d="M299 673v-144h143v-101h-143v-428h-116v428h-143v101h143v144h116z" />
    <glyph glyph-name="daggerdbl.tosf" 
d="M442 428h-143v-174h143v-101h-143v-153h-116v153h-143v101h143v174h-142v101h142v144h116v-144h143v-101z" />
    <glyph glyph-name="uni0308.case" horiz-adv-x="0" 
d="M-290 908q28 0 46.5 -19.5t18.5 -47.5q0 -29 -18.5 -48t-46.5 -19t-47 19t-19 48q0 28 19 47.5t47 19.5zM-96 908q28 0 47 -19.5t19 -47.5q0 -29 -19 -48t-47 -19t-47 19.5t-19 47.5t19 47.5t47 19.5z" />
    <glyph glyph-name="uni0307.case" horiz-adv-x="0" 
d="M-105 920q33 0 54 -21.5t21 -53.5q0 -33 -21 -54t-54 -21t-54 21.5t-21 53.5t21 53.5t54 21.5z" />
    <glyph glyph-name="gravecomb.case" horiz-adv-x="0" 
d="M-214 929l184 -114l-31 -62l-201 82z" />
    <glyph glyph-name="acutecomb.case" horiz-adv-x="0" 
d="M-79 929l49 -94l-200 -82l-32 62z" />
    <glyph glyph-name="uni030B.case" horiz-adv-x="0" 
d="M-261 969l86 -43l-94 -165l-64 27zM-115 969l85 -45l-102 -168l-63 29z" />
    <glyph glyph-name="uni0302.case" horiz-adv-x="0" 
d="M-301 760l-45 48l121 122h75l120 -122l-45 -48l-113 82z" />
    <glyph glyph-name="uni030C.case" horiz-adv-x="0" 
d="M-75 922l45 -48l-120 -122h-76l-120 122l46 48l112 -82z" />
    <glyph glyph-name="uni0306.case" horiz-adv-x="0" 
d="M-174 755q-62 0 -100 39.5t-43 101.5l69 14q19 -67 74 -67q56 0 75 67l69 -14q-5 -62 -43.5 -101.5t-100.5 -39.5z" />
    <glyph glyph-name="uni030A.case" horiz-adv-x="0" 
d="M-144 977q52 0 83 -33t31 -85q0 -53 -31 -85.5t-83 -32.5q-53 0 -84 32.5t-31 85.5q0 52 31 85t84 33zM-144 914q-42 0 -42 -55t42 -55q41 0 41 55t-41 55z" />
    <glyph glyph-name="tildecomb.case" horiz-adv-x="0" 
d="M-135 775q-28 0 -59 21.5t-43 21.5q-25 0 -46 -43l-62 30q37 100 105 100q27 0 58.5 -22t44.5 -22q23 0 44 43l63 -30q-35 -99 -105 -99z" />
    <glyph glyph-name="uni0304.case" horiz-adv-x="0" 
d="M-30 789h-255v85h255v-85z" />
    <glyph glyph-name="uni0326.case" horiz-adv-x="0" 
d="M-93 -73q28 0 45.5 -18.5t17.5 -47.5q0 -27 -22 -79l-39 -91h-63l27 115q-31 21 -31 55q0 28 18.5 47t46.5 19z" />
    <glyph glyph-name="uni0327.case" horiz-adv-x="0" 
d="M-117 16v-71q87 -13 87 -90q0 -49 -33.5 -77t-89.5 -28q-54 0 -92 26l30 58q26 -13 54 -13q40 0 40 34q0 40 -78 40l13 121h69z" />
    <glyph glyph-name="caron.alt" horiz-adv-x="123" 
d="M57 704l75 -47l-26 -165l-48 45z" />
    <glyph glyph-name="acute.case" horiz-adv-x="293" 
d="M213 929l49 -94l-200 -82l-32 62z" />
    <glyph glyph-name="breve.case" horiz-adv-x="347" 
d="M173 755q-62 0 -100 39.5t-43 101.5l69 14q19 -67 74 -67q56 0 75 67l69 -14q-5 -62 -43.5 -101.5t-100.5 -39.5z" />
    <glyph glyph-name="caron.case" horiz-adv-x="376" 
d="M301 922l45 -48l-120 -122h-76l-120 122l46 48l112 -82z" />
    <glyph glyph-name="cedilla.case" horiz-adv-x="275" 
d="M162 16v-71q87 -13 87 -90q0 -49 -33.5 -77t-89.5 -28q-54 0 -92 26l30 58q26 -13 54 -13q40 0 40 34q0 40 -78 40l13 121h69z" />
    <glyph glyph-name="circumflex.case" horiz-adv-x="376" 
d="M75 760l-45 48l121 122h75l120 -122l-45 -48l-113 82z" />
    <glyph glyph-name="dieresis.case" horiz-adv-x="386" 
d="M100 908q28 0 46.5 -19.5t18.5 -47.5q0 -29 -18.5 -48t-46.5 -19t-47 19t-19 48q0 28 19 47.5t47 19.5zM294 908q29 0 47.5 -19.5t18.5 -47.5q0 -29 -18.5 -48t-47.5 -19q-28 0 -46.5 19t-18.5 48q0 28 18.5 47.5t46.5 19.5z" />
    <glyph glyph-name="dotaccent.case" horiz-adv-x="210" 
d="M110 920q33 0 54 -21.5t21 -53.5q0 -33 -21 -54t-54 -21t-54 21t-21 54q0 32 21 53.5t54 21.5z" />
    <glyph glyph-name="grave.case" horiz-adv-x="293" 
d="M78 929l184 -114l-31 -62l-201 82z" />
    <glyph glyph-name="hungarumlaut.case" horiz-adv-x="363" 
d="M104 969l85 -43l-94 -165l-63 27zM249 969l85 -45l-101 -168l-63 29z" />
    <glyph glyph-name="macron.case" horiz-adv-x="315" 
d="M289 789h-255v85h255v-85z" />
    <glyph glyph-name="ring.case" horiz-adv-x="289" 
d="M148 977q53 0 84 -33t31 -85q0 -53 -31 -85.5t-84 -32.5q-52 0 -83 32.5t-31 85.5q0 52 31 85t83 33zM148 914q-41 0 -41 -55t41 -55q42 0 42 55t-42 55z" />
    <glyph glyph-name="tilde.case" horiz-adv-x="375" 
d="M243 775q-27 0 -58 21.5t-43 21.5q-15 0 -25 -10t-21 -33l-62 30q37 100 105 100q27 0 58.5 -22t44.5 -22q22 0 44 43l63 -30q-35 -99 -106 -99z" />
    <glyph glyph-name="acute.loclPLK" horiz-adv-x="236" 
d="M114 792l92 -56l-120 -157l-56 34z" />
    <glyph glyph-name="acute.case.loclPLK" horiz-adv-x="236" 
d="M115 944l91 -55l-120 -151l-56 34z" />
    <glyph glyph-name="acute.sc.loclPLK" horiz-adv-x="236" 
d="M114 836l92 -56l-120 -157l-56 34z" />
    <glyph glyph-name="uni0308.sc" horiz-adv-x="386" 
d="M100 812q28 0 46.5 -19.5t18.5 -47.5q0 -29 -18.5 -48t-46.5 -19t-47 19t-19 48q0 28 19 47.5t47 19.5zM294 812q29 0 47.5 -19.5t18.5 -47.5q0 -29 -18.5 -48t-47.5 -19q-28 0 -46.5 19t-18.5 48q0 28 18.5 47.5t46.5 19.5z" />
    <glyph glyph-name="uni0307.sc" horiz-adv-x="210" 
d="M110 824q33 0 54 -21.5t21 -53.5q0 -33 -21 -54t-54 -21t-54 21t-21 54q0 32 21 53.5t54 21.5z" />
    <glyph glyph-name="gravecomb.sc" horiz-adv-x="293" 
d="M84 843l183 -122l-35 -60l-198 90z" />
    <glyph glyph-name="acutecomb.sc" horiz-adv-x="293" 
d="M216 843l51 -92l-199 -90l-34 60z" />
    <glyph glyph-name="uni030B.sc" horiz-adv-x="363" 
d="M104 873l85 -43l-94 -165l-63 27zM249 873l85 -45l-101 -168l-63 29z" />
    <glyph glyph-name="uni0302.sc" horiz-adv-x="376" 
d="M79 660l-45 49l120 127h76l120 -127l-45 -49l-113 88z" />
    <glyph glyph-name="uni030C.sc" horiz-adv-x="376" 
d="M305 826l45 -49l-120 -127h-76l-120 127l45 49l113 -89z" />
    <glyph glyph-name="uni0306.sc" horiz-adv-x="347" 
d="M177 668q-63 0 -100.5 40t-42.5 112l69 14q17 -79 74 -79q58 0 75 79l69 -14q-5 -72 -43 -112t-101 -40z" />
    <glyph glyph-name="uni030A.sc" horiz-adv-x="289" 
d="M148 881q53 0 84 -33t31 -85q0 -53 -31 -85.5t-84 -32.5q-52 0 -83 32.5t-31 85.5q0 52 31 85t83 33zM148 818q-41 0 -41 -55t41 -55q42 0 42 55t-42 55z" />
    <glyph glyph-name="tildecomb.sc" horiz-adv-x="375" 
d="M243 679q-27 0 -58 21.5t-43 21.5q-15 0 -25 -10t-21 -33l-62 30q37 100 105 100q27 0 58.5 -22t44.5 -22q22 0 44 43l63 -30q-35 -99 -106 -99z" />
    <glyph glyph-name="uni0304.sc" horiz-adv-x="315" 
d="M289 693h-255v85h255v-85z" />
    <glyph glyph-name="uni0326.sc" horiz-adv-x="189" 
d="M100 -73q28 0 46 -18.5t18 -47.5q0 -25 -23 -79l-39 -91h-62l27 115q-31 20 -31 55q0 28 18 47t46 19z" />
    <glyph glyph-name="uni0327.sc" horiz-adv-x="275" 
d="M162 16v-71q87 -13 87 -90q0 -49 -33.5 -77t-89.5 -28q-54 0 -92 26l30 58q26 -13 54 -13q40 0 40 34q0 40 -78 40l13 121h69z" />
    <glyph glyph-name="uni0328.sc" horiz-adv-x="254" 
d="M231 41l19 -41q-59 -28 -80.5 -54t-21.5 -55q0 -46 47 -46q24 0 52 7l-9 -82q-30 -8 -59 -8q-55 0 -89 29.5t-34 79.5q0 59 45 99.5t130 70.5z" />
    <glyph glyph-name="acute.sc" horiz-adv-x="293" 
d="M216 843l51 -92l-199 -90l-34 60z" />
    </font>
</defs>
</svg>
